<?xml version="1.0" standalone="no"?><!DOCTYPE svg PUBLIC "-//W3C//DTD SVG 1.1//EN" "http://www.w3.org/Graphics/SVG/1.1/DTD/svg11.dtd"><svg t="1582788752321" class="icon" viewBox="0 0 1024 1024" version="1.1" xmlns="http://www.w3.org/2000/svg" p-id="26725" xmlns:xlink="http://www.w3.org/1999/xlink" width="24" height="24"><defs><style type="text/css"></style></defs><path d="M639.653 516.167s-41.65-112.463 4.167-170.779 140.786-89.97 154.118-83.307c8.33 4.167 45.82 108.299 29.157 191.603s-166.61 124.958-166.61 124.958l-8.33-29.157-12.496-33.322zM731.291 549.489s99.966-66.646 145.787-49.983 95.802 49.983 112.463 79.14 20.829 66.646 20.829 66.646l-41.65 33.322s-33.322 41.65-83.307 49.983-129.126-12.496-149.95-29.157-66.646-91.636-66.646-91.636l62.481-58.313zM541.769 580.31c-1.25-1.25-2.917-1.665-4.167-2.082-12.912-3.329-48.736-7.084-76.641-3.749-62.481 8.33-99.966 33.322-129.126 74.976-19.162 27.491-41.65 58.313-41.65 95.802v41.65s18.33 18.33 41.65 24.991c58.313 16.66 141.619 12.496 195.77-37.489s79.14-154.118 79.14-154.118l-64.977-39.988z" fill="#38DEFE" p-id="26726"></path><path d="M622.994 641.126s-70.812 45.82-79.14 104.134-4.167 162.446 29.157 187.441 41.65 29.157 87.471 29.157 99.966-58.313 104.134-124.958-45.82-183.271-70.812-193.689-70.812-2.082-70.812-2.082zM632.572 521.578s-16.66-136.621-64.977-165.78c-48.736-29.157-157.867-35.821-169.111-22.491-24.991 29.994-27.491 157.445 17.909 199.098 45.82 42.070 190.356 70.812 190.356 70.812s27.491-19.162 29.994-40.403c2.082-20.829-4.167-41.236-4.167-41.236z" fill="#38DEFE" p-id="26727"></path><path d="M604.252 547.403s-14.58-97.887 6.249-81.222 33.322 87.471 41.65 83.307 29.157-24.991 45.82-16.66-24.157 38.319-24.157 38.319-17.494 11.663 3.329 15.826 49.983 0 54.148 8.33-54.148 12.496-54.148 16.66 64.561 72.893 34.156 54.983-58.313-32.491-58.313-32.491-17.494-9.999-25.826-1.665-38.319 43.738-38.319 43.738-4.998 4.167 8.33-49.15-12.496-19.991-12.496-19.991l-49.15-29.157s-33.322-20.829 16.66-12.496 52.066-18.33 52.066-18.33z" fill="#FFFFFF" p-id="26728"></path><path d="M577.174 591.14c0 0 0 0 0 0 0 32.207 26.111 58.313 58.313 58.313 32.207 0 58.313-26.111 58.313-58.313 0 0 0 0 0 0 0 0 0 0 0 0 0-32.207-26.111-58.313-58.313-58.313-32.207 0-58.313 26.111-58.313 58.313s0 0 0 0z" fill="#FCF500" p-id="26729"></path><path d="M614.661 591.14c0 11.502 9.325 20.829 20.829 20.829s20.829-9.325 20.829-20.829c0-11.502-9.325-20.829-20.829-20.829-11.502 0-20.829 9.325-20.829 20.829z" fill="#754C24" p-id="26730"></path><path d="M393.902 331.226s58.313-78.307 118.709-72.893c59.98 5.412 123.71 56.231 125.377 68.31 0.833 7.497-53.732 79.14-117.875 104.967s-159.115-58.313-159.115-58.313l16.242-18.742 16.66-23.327zM411.814 408.701s89.97 38.737 98.719 77.477 8.33 87.471-4.167 112.048c-12.496 24.157-36.24 43.738-36.24 43.738l-41.236-13.746s-43.319-4.167-71.226-34.571c-27.907-30.406-48.736-93.718-46.654-115.378s32.907-86.223 32.907-86.223l67.892 16.66zM306.432 292.905c0-1.25 0-2.498-0.42-4.167-3.329-10.412-16.66-36.654-31.657-54.148-33.322-39.152-67.062-53.732-108.299-54.983-27.491-0.833-58.313-2.498-83.723 14.161-10.412 6.666-28.323 18.33-28.323 18.33s-4.58 20.829 1.25 39.571c14.58 47.066 54.148 102.468 112.463 117.046 58.313 14.996 140.37-14.161 140.37-14.161l-1.665-61.645z" fill="#17D3FF" p-id="26731"></path><path d="M301.017 375.379s-62.897-27.907-106.217-7.915c-43.738 19.991-112.881 69.145-114.961 102.883-2.498 33.74-1.25 41.236 18.742 72.893 20.41 31.239 84.139 42.489 131.622 15.826 47.482-26.657 104.967-112.463 100.799-134.123-3.749-22.077-29.994-49.568-29.994-49.568zM386.821 329.145s85.806-71.645 84.139-117.875c-1.665-46.236-45.399-123.71-59.98-125.377-31.657-3.749-119.547 50.817-127.875 100.385s36.24 161.198 36.24 161.198 25.41 10.412 40.819 2.498c15.413-7.915 26.657-20.829 26.657-20.829z" fill="#17D3FF" p-id="26732"></path><path d="M356.831 321.231s60.399-53.315 58.313-31.657c-2.082 21.66-44.987 61.645-38.319 65.397 6.666 3.749 29.994 8.746 31.657 23.741 1.665 14.996-37.071 0.833-37.071 0.833s-15.826-7.084-9.164 9.164c6.249 16.242 22.077 34.156 18.33 40.819s-32.491-31.657-35.403-29.574c-2.917 1.665-21.243 76.223-22.491 47.902-1.25-28.323-3.749-54.148-3.749-54.148s-0.833-16.66-9.999-18.742c-9.578-2.082-47.066-7.084-47.066-7.084s-4.998-1.665 37.071-15.826c42.489-14.161 7.915-17.494 7.915-17.494l-1.665-46.236s-0.42-32.073 15.826 5.829c16.242 37.489 35.821 27.073 35.821 27.073z" fill="#FFFFFF" p-id="26733"></path><path d="M300.685 387.65c8.597 13.106 23.221 21.643 39.837 21.643 26.226 0 47.482-21.26 47.482-47.482 0-9.61-2.857-18.555-7.761-26.028-8.485-12.927-23.108-21.462-39.727-21.462-26.226 0-47.482 21.26-47.482 47.482 0 9.61 2.857 18.555 7.761 26.028z" fill="#FCF500" p-id="26734"></path><path d="M326.198 371.104c3.090 4.711 8.35 7.783 14.326 7.783 9.431 0 17.079-7.645 17.079-17.079 0-3.455-1.029-6.671-2.789-9.359-3.051-4.646-8.311-7.719-14.286-7.719-9.431 0-17.079 7.645-17.079 17.079 0 3.455 1.029 6.671 2.789 9.359z" fill="#754C24" p-id="26735"></path></svg>