<?xml version="1.0" standalone="no"?><!DOCTYPE svg PUBLIC "-//W3C//DTD SVG 1.1//EN" "http://www.w3.org/Graphics/SVG/1.1/DTD/svg11.dtd"><svg t="1582353007121" class="icon" viewBox="0 0 1024 1024" version="1.1" xmlns="http://www.w3.org/2000/svg" p-id="12285" xmlns:xlink="http://www.w3.org/1999/xlink" width="24" height="24"><defs><style type="text/css"></style></defs><path d="M446.87 364.14c-0.25-5.31-0.19-10.65-0.76-15.93-0.89-8.21-13.49-8.6-13.11 0 0.49 11.1-2.88 24.51 1.83 34.9 3.08 6.8 13.61 3.16 13.54-3.67-0.06-5.05-1.26-10.21-1.5-15.3zM461.87 491a8 8 0 0 0-9.65-5.48c-0.4 0.08-0.77 0.2-1.15 0.31a8.11 8.11 0 0 0-4.72 0.22c-19.69 7.11-37.8 15.17-54.9 27.48a219.23 219.23 0 0 0-45 43.49c-5.27 6.79-2.62 18 7.42 17.9 26.46-0.24 49.93-13 69.83-29.51a183 183 0 0 0 25.91-26.89c5.96-7.46 15.74-17.3 12.26-27.52zM412.7 683.34c-1.32-14.61-6.49-27.07-18.24-36.25-3.47-2.71-7.13-5.12-10.79-7.55a462.43 462.43 0 0 1-5.46-10.09 143.82 143.82 0 0 1-10.77-26.63c-2.25-7.6-1.47-18.58-6.92-24.57a5.85 5.85 0 0 0-8.22 0c-2.88 2.81-3.9 6.8-4.06 11a11 11 0 0 0-5.38 12.53 128.49 128.49 0 0 0 5.34 16.52 10.56 10.56 0 0 0-3 7.74c0 8.32 5 17 8.46 24.37 4.14 8.78 9.22 17.11 14.2 25.43 3.17 5.29 10.56 6.45 15.76 4.07 3.16 4 6.47 7.75 9.92 11.34 6.37 6.75 20.05 2.06 19.16-7.91zM528.6 497.75c-32.25 21.1-61.92 46.72-84.64 78-6.49 8.94 6.76 16.49 14 10.82 1-0.81 2-1.63 3-2.46a7.6 7.6 0 0 0 2.76-0.6 10.86 10.86 0 0 0 3.66-2.85 10.44 10.44 0 0 0 11.51-0.44c26.76-17.42 48.78-40.28 63.16-69 4.23-8.22-4.61-19.22-13.45-13.47zM512.59 675.1c-2.58-17.26-12.93-30.29-25.74-41.46-4-3.5-8-6.71-11.68-10-5.17-9.87-15.47-29.64-22.34-24.75h-0.05a13.19 13.19 0 0 0-6.71 0c-7.18 2-9.76 8.67-8.76 15.42 2.17 14.68 16.44 24.64 27.52 32.59l0.33 0.24A199.12 199.12 0 0 0 494 685.91c8.43 8.87 20.11-0.67 18.59-10.81zM626.31 512.36c-7.79 11.43-16.74 21.94-25.93 32.26-1.47 1.65-3.23 3.45-5.08 5.36-6.39 4.92-13 9.62-18.49 15.39-7.48 7.89 2.38 22 12 15.5 22.35-15.14 44-36.19 53.82-61.65 3.8-9.95-10.97-14.71-16.32-6.86zM638.37 654.25c-3.26-8.31-6.57-16.58-10.41-24.64-3.76-7.89-7.78-17.71-17.74-17.69a7.87 7.87 0 0 0-6.78 3.93c-6.1-7.11-14.1-15.47-22.28-14.73a3 3 0 0 0-2.93 2.93c-1.07 9.79 10.53 21.43 16 28.69 8.4 11.17 17 21.9 27.42 31.24 6.77 6.02 20.67 0.34 16.72-9.73zM738.87 630.08a285.08 285.08 0 0 0-30.6-47.44c-5.41-6.93-13.39-4-17.11 2a21.87 21.87 0 0 1-1.69-8.73c0.29-10.77 11.9-22.77 17.86-30.91 8.19-11.19 16.31-22.72 20.21-36.2 3.06-10.57-11.28-15.66-17-7.18-7.95 11.73-17 22.69-25 34.35-3.67 5.32-8.63 12-10.23 18.85-4.27 7.59-7.06 15.64-6.81 24.63 0.39 14.29 10.12 27.05 19.17 37.26 10.06 11.35 22.79 21.13 35.81 28.84 10.17 6 20.29-5.7 15.39-15.47zM812.61 492c-10.46 10.64-21.76 20.52-30.87 32.4-7.11 9.27-15.73 21-11.2 33.08 0.86 2.28 4.22 4 6.11 1.61 0.39-0.49 0.75-1 1.13-1.48 3.43 4.26 9.59 6 13.83 0.59 13.1-16.68 20.7-36.82 33.75-53.45 6.98-8.9-4.36-21.29-12.75-12.75zM825.49 622.5c-6.66-10.79-14.32-20.89-21.63-31.25-4.95-7-11.65-20.83-20.9-22.43a3.79 3.79 0 0 0-4.13 1.68c-5.18 8.2 2.31 20.71 6.65 27.83 7.13 11.7 15.08 22.85 21.71 34.86s25.49 0.96 18.3-10.69zM873 588.34c-3-8.24-5.75-16.55-9.08-24.66-3-7.26-6.16-17.18-13.69-20.74-5.79-2.73-15.32 0.36-14.42 8.27 0.59 5.2 3 9.5 5.63 13.84a6.15 6.15 0 0 0-4.12 3c-2.77 4.54 1.62 9.14 4.17 12.56 4.56 6.13 10.49 11.32 15.72 16.89 6.29 6.69 19.06-0.15 15.79-9.16zM851.35 499.39c-4.17 5.77-6.49 13.6-8.95 20.26-2.3 6.24-4.17 12.53 0.73 18a3.17 3.17 0 0 0 3.13 0.83c6.27-2 8.05-7.16 10.64-12.69 3.12-6.67 7.65-12.84 9.83-19.89 3.03-9.73-10.09-13.83-15.38-6.51z" fill="#4C8B2B" p-id="12286"></path><path d="M224.91 506.84c19.55 28.13 51.76 49.34 82.32 63.84 33 15.67 68.41 25.24 104.48 30.69 77.61 11.73 156.9 5.34 234.15-6 41.31-6.08 82.32-14 123.18-22.58 18.8-3.94 37.57-8 56.34-12.12 17.55-3.82 35.55-6.77 52.77-11.88 6.24-1.85 5.32-12.59-1.59-11.76-32.92 3.93-65.69 13.48-98.1 20.4-37.37 8-74.84 15.45-112.55 21.66C588 591.9 508 599.57 429.18 591c-36.79-4-73.44-12.37-107.76-26.34a297.88 297.88 0 0 1-48.13-24.92c-16.26-10.4-30.59-23.09-45.71-35-1.39-1.09-3.87 0.34-2.67 2.06z" p-id="12287"></path><path d="M861.8 549.37c24.83-23.3 63.88-29.22 95.18-39.29l-5.23-5.23c-2.88 16.51-13.88 25.71-30.34 27.43-17.18 1.8-32.87-4.63-49.06-9.08-4.45-1.22-7.13 5.11-3.13 7.42 29.44 17 83.95 18.93 90.72-23.52 0.47-2.94-1.85-6.37-5.23-5.23-19 6.4-38.28 11.67-56.94 18.94-14.41 5.61-30.39 12.71-38.42 26.66a1.56 1.56 0 0 0 2.44 1.88zM327.06 580.88c5.17-2.12 8.34-6.55 12.06-10.58 5.19-5.62 10.05-11.55 15.09-17.3 9.79-11.18 19.64-22.24 30.55-32.36 23.59-21.89 52.14-36.43 84.78-36.73l-4.2-5.52c-6.45 26.85-26.33 48.6-47.76 65a161.93 161.93 0 0 1-76.13 32.17c-5.17 0.72-4 9.55 1.23 9.11 29.69-2.49 58.28-17.2 81.56-35.11 22.4-17.23 42.85-40.71 49.5-68.81a4.41 4.41 0 0 0-4.2-5.52c-32.67 0.42-60.92 13.86-85.22 35.11-11.77 10.29-22.18 22.07-32.24 34-5 5.9-9.71 12-14.53 18-4.21 5.26-10 10.78-11.63 17.41-0.16 0.62 0.45 1.42 1.14 1.14zM444.46 584.9c-1-6.93 7.12-16.18 11.09-21.47 7.87-10.48 17.13-19.78 26.89-28.51 19.1-17.08 42.28-34.32 67.47-40.86l-5.18-3.94c-5.82 45-44.49 79.77-87 90.72-5.73 1.48-3.29 10.37 2.44 8.85 46.5-12.32 86.77-50.66 92.73-99.58 0.33-2.71-2.85-4.57-5.18-3.94-28 7.48-53 27.07-73.9 46.38-12.66 11.7-37.41 33.16-32.09 53.08 0.48 1.81 3 1 2.72-0.75zM565.34 585.93c5.82-6.89 9.82-15.36 14.82-22.86a168.14 168.14 0 0 1 71.15-58.85l-6.12-3.51c-1.64 37.61-32.11 63.9-65.89 74.77-5.72 1.84-3.37 10.66 2.49 9 37.19-10.31 71.77-43.29 71.54-83.81 0-3.33-3.39-4.75-6.12-3.51a167.91 167.91 0 0 0-51.69 36.29c-12.95 13.37-29.31 32.73-31.76 51.8a0.94 0.94 0 0 0 1.59 0.66zM666.75 568.46c-2.84-3.71 2.5-10.92 4.48-14.2A161 161 0 0 1 687.7 532c12.38-14.32 26.64-28.46 42.9-38.35l-6-2.43a58.94 58.94 0 0 1-7.75 47.62 50.2 50.2 0 0 1-16.83 15.67c-6.49 3.84-14.63 3-20.69 6.88a3.23 3.23 0 0 0 0 5.52C693 574.52 714 557.13 721.59 547c12.58-16.78 16.27-37.8 10.87-58a4.09 4.09 0 0 0-6-2.43C707.39 498.5 691 515.69 677 533.16c-6.09 7.63-23.16 27.18-13.23 37.59 1.46 1.53 4.3-0.56 3-2.29zM761.9 549.23c16.85-26.62 40.77-47.14 69-61.15l-5.64-3.24c-1.11 32-24.93 59.7-51.16 75.78-4.46 2.73-0.36 9.78 4.1 7 28.25-17.53 54.17-48 54.56-82.8a3.79 3.79 0 0 0-5.64-3.24c-26.84 14.13-56.72 37.22-68.65 66.17-0.85 2.06 2.36 3.19 3.46 1.46zM830.78 538.75c4.79-7.15 7.82-15.15 11.59-22.85a45.79 45.79 0 0 1 24.39-23l-3.7-2.82c-0.86 31.53-23.63 49.46-50.82 60.21-3.9 1.54-2.45 7.69 1.78 6.44 31.16-9.21 54.66-33.22 54.9-66.65 0-2.41-2.45-3.38-4.4-2.53A50.68 50.68 0 0 0 840.77 508c-5.56 9-8.09 19.59-13.59 28.68-1.41 2.32 2.12 4.32 3.6 2.11z" p-id="12288"></path><path d="M341.4 590.21c-6.62 46.95 20.89 94.36 62.06 115.86a5.31 5.31 0 0 0 7.67-3.12c7.65-21.85 1.55-43.49-9-63.23C395.92 628 388 617.13 380 606.5c-7.55-10.08-14.89-20.6-23.12-30.13-3.86-4.48-11 1.29-8 6.2 20.85 35.1 68.2 71.53 52.25 117.61l7.67-3.12a111.67 111.67 0 0 1-47-44.36c-11.22-19.3-14.41-40.84-17.82-62.49a1.32 1.32 0 0 0-2.53 0zM431.48 607c9.47 19.65 21.47 39.75 35.17 56.76 12.76 15.83 29.81 26.3 50.45 26.76a4.87 4.87 0 0 0 4.84-4.84c-0.69-39-31.4-65.3-54.08-93.48-4.13-5.14-11.38 2.16-7.24 7.24 21 25.76 50.82 50.39 51.64 86.24l4.84-4.84c-44.15-0.75-57.33-48.75-83.71-75.31-1-1-2.49 0.27-1.91 1.48zM568.38 606.86c10.17 32.08 42.06 56.26 74.35 62.24a4.78 4.78 0 0 0 5.78-5.78c-5.58-31.82-28.66-64-61.41-72.08-5.08-1.25-8.78 6.41-3.69 8.74 14.29 6.54 26.5 12.93 37.14 24.88 10.19 11.44 16.13 26 18.89 41l5.78-5.78a97.69 97.69 0 0 1-41.14-17.45c-13.78-10-22.69-23.56-32.69-37-1-1.41-3.63-0.65-3 1.27zM668.9 596.26C678.91 629 710 652.87 743 658.94c3.2 0.59 6.55-1.39 6.5-4.95-0.46-30-18.57-58.74-44.76-73.26-6-3.33-10.84 5.28-5.31 9.09 22.18 15.3 39.19 36.07 39.81 64.17l6.5-4.95c-33.61-5.94-54.26-28-74-54-1-1.31-3.4-0.62-2.84 1.2zM770.83 578.38c-4-0.16-4.64 1.35-7.06 3.81a4.14 4.14 0 0 0-1.08 4.09c4.68 12 16.21 21.34 25.52 29.68a319 319 0 0 0 33 26.4c2.42 1.65 6.73 0.11 7.19-2.93 2.37-15.51 0.79-30.34-7-44.14-6.63-11.75-20.39-26.1-33.61-29.93-4.16-1.21-6.91 4-4.09 7 4.41 4.69 10.46 7.79 15.38 12a67.62 67.62 0 0 1 12.52 14.15c7.55 11.37 9.3 25 7.35 38.32l7.19-2.93c-12-8.06-23.24-17.53-34-27.17q-8.25-7.37-15.8-15.46a40.12 40.12 0 0 1-5.2-6.68c-1.6-2.66-3.63-2.62-0.31-3a1.6 1.6 0 0 0 0-3.21zM832.13 564.13c-1.19 25.78 19.69 41.58 43.34 46.21 2 0.4 4.56-0.55 5-2.84 1.92-9.93 2.48-19.33-1.6-28.76-3.87-8.94-13.07-16.92-20.39-23a4.35 4.35 0 0 0-6.15 6.15c5.06 6 11.6 10.55 16.38 16.8 6 7.81 5.52 17.41 3.92 26.62l5-2.84c-20.2-3.53-39.32-16.28-41.24-38.37a2.13 2.13 0 0 0-4.27 0zM97.68 615.91c-1.38 2.27-3.47 4.17-4.9 6.88-3.35 6.38-6.61 12.81-9.87 19.25l-18.47 36.42c-1.48 2.92 0.94 6.73 4.39 5.71 17.29-5.12 32-14.56 41.13-30.42 9.41-16.28 9.09-36.14 4.37-53.79-1.46-5.47-10-3.14-8.48 2.34 4.14 15.12 4.55 30.88-2.26 45.31C96.58 662.45 82 672 66.77 676.67l4.39 5.71 18.07-36.65c3.19-6.48 6.39-12.95 9.49-19.47 1.41-3 1.72-5.87 2.86-8.71 0.93-2.32-2.68-3.64-3.9-1.64zM444.46 394.6A207.53 207.53 0 0 1 431 321l-6.38 2.64c10.25 10.78 16.33 23.62 19.57 38.06a104 104 0 0 1 2 23.78c-0.07 6.93-2.12 14.1-0.76 20.89 0.53 2.62 4.34 2.93 5.57 0.73 3.51-6.29 3.13-14.56 3.32-21.62a116.26 116.26 0 0 0-2.47-25.91 82.54 82.54 0 0 0-22-41.23 3.77 3.77 0 0 0-6.38 2.64c0.37 26.1 4.85 52.07 18.38 74.72 0.8 1.33 3.17 0.45 2.58-1.09z" p-id="12289"></path></svg>