<?xml version="1.0" standalone="no"?><!DOCTYPE svg PUBLIC "-//W3C//DTD SVG 1.1//EN" "http://www.w3.org/Graphics/SVG/1.1/DTD/svg11.dtd"><svg t="1582355695464" class="icon" viewBox="0 0 1024 1024" version="1.1" xmlns="http://www.w3.org/2000/svg" p-id="44548" xmlns:xlink="http://www.w3.org/1999/xlink" width="24" height="24"><defs><style type="text/css"></style></defs><path d="M480.338005 479.01535l-110.306307 543.360696" fill="#C9864C" p-id="44549"></path><path d="M470.226593 476.380255l20.018552 4.054778-109.96926 543.564967-20.018551-4.054778z" fill="#A97C50" p-id="44550"></path><path d="M579.40941 326.833501c-18.384384 112.349016-113.370371 188.950618-113.370371 188.950618s-65.3667-106.220888-46.982316-218.569904S501.786453 132.77611 532.427094 108.263597C520.170838 175.673007 597.793794 214.484485 579.40941 326.833501z" fill="#B1AD5A" p-id="44551"></path><path d="M266.874874 416.712714c88.857858 18.384384 129.712046 98.05005 153.203204 210.399066 8.170838 40.854188 7.149483 75.580247 5.106773 99.071406-41.875542-25.533867-91.921922-36.768769-102.135469-68.430765-28.597931-89.879213-55.153153-121.541208-79.665666-158.309977-14.298966-22.469803-29.619286-8.170838-59.238572-84.772439-22.469803-60.259927-70.473474-82.72973-82.72973-113.370371 75.580247 31.661995 122.562563 106.220888 165.45946 115.41308z" fill="#2E3E2A" p-id="44552"></path><path d="M696.865199 590.343012c-78.644311 28.597931-150.13914 41.875542-230.82616 103.156823-31.661995 24.512513-40.854188 62.302636-50.04638 83.751085 48.00367 0 89.879213 3.064064 120.519854-6.128128 76.601602-20.427094 118.477144-35.747414 156.267267-55.153153 23.491158-11.234902 15.32032-32.68335 75.580248-83.751085 46.982316-39.832833 99.071405-34.72606 124.605272-55.153153-79.665666-13.277611-155.245913-2.042709-196.100101 13.277611z" fill="#7D804A" p-id="44553"></path><path d="M692.77978 674.094096c-78.644311 28.597931-122.562563-2.042709-202.228229 59.238572-31.661995 24.512513-66.388055 22.469803-74.558892 43.918252 48.00367 0 89.879213 3.064064 120.519854-6.128128 76.601602-20.427094 118.477144-35.747414 156.267267-55.153153 23.491158-11.234902 15.32032-32.68335 75.580248-83.751085 46.982316-39.832833 99.071405-34.72606 124.605272-55.153153-79.665666-13.277611-158.309977 81.708375-200.18552 97.028695z" fill="#2C3B28" p-id="44554"></path><path d="M249.511844 330.91892c89.879213 0 145.032366 70.473474 187.929264 175.673007 15.32032 37.790124 20.427094 72.516183 22.469803 96.007341-44.939606-16.341675-97.028696-17.36303-113.370371-46.982316-43.918252-82.72973-75.580247-108.263597-106.220888-139.925593-18.384384-18.384384-30.640641-2.042709-72.516183-70.473473-32.68335-54.131799-83.751085-66.388055-101.114114-93.964632 79.665666 16.341675 139.925593 79.665666 182.822489 79.665666z" fill="#4C6939" p-id="44555"></path><path d="M732.612613 424.883552c-91.921922-43.918252-166.480815 7.149483-237.975643 105.199533-25.533867 35.747414-39.832833 71.494828-48.00367 97.028695 51.067735 3.064064 104.178179 28.597931 127.669336 3.064065 66.388055-71.494828 106.220888-83.751085 145.032366-104.178179 23.491158-12.256256 32.68335 13.277611 92.943277-43.918252 48.00367-44.939606 103.156824-33.704705 128.690691-56.174508-86.815149-22.469803-164.438105 20.427094-208.356357-1.021354z" fill="#4C6939" p-id="44556"></path><path d="M450.718719 278.829831c21.448449 50.04638 53.110444 123.583918 34.726059 208.356357-7.149483 30.640641-18.384384 54.131799-26.555222 68.430764-20.427094-32.68335-35.747414-61.281281-48.00367-83.751085-28.597931-54.131799-42.896897-82.72973-48.003671-116.434434-3.064064-20.427094-1.021355-29.619286 2.042709-90.900568 3.064064-49.025025 5.106773-87.836503 6.128129-113.370371 41.875542 50.04638 65.3667 96.007341 79.665666 127.669337z" fill="#5D753C" p-id="44557"></path><path d="M758.146481 322.748082c-71.494828 19.405739-175.673007 46.982316-248.18919 141.968303-26.555222 33.704705-40.854188 67.40941-50.04638 89.879212 51.067735-6.128128 104.178179 7.149483 128.690691-19.405739 67.40941-71.494828 107.242243-88.857858 147.075075-112.349016 23.491158-14.298966 32.68335 5.106773 93.964632-52.089089 48.00367-45.960961 104.178179-45.960961 129.712046-69.452119-86.815149-4.085419-156.267268 9.192192-201.206874 21.448448z" fill="#728B42" p-id="44558"></path></svg>