<?xml version="1.0" standalone="no"?><!DOCTYPE svg PUBLIC "-//W3C//DTD SVG 1.1//EN" "http://www.w3.org/Graphics/SVG/1.1/DTD/svg11.dtd"><svg t="1582353592078" class="icon" viewBox="0 0 1024 1024" version="1.1" xmlns="http://www.w3.org/2000/svg" p-id="34688" xmlns:xlink="http://www.w3.org/1999/xlink" width="24" height="24"><defs><style type="text/css"></style></defs><path d="M618.06 288.21c-18.5-15-47.88-19.62-70.87-21.93a79.55 79.55 0 0 0-25.19 1.65 30.25 30.25 0 0 0 0.85-3.17c10.31-49.19 2.17-96.61-4-145.67-1.5-11.92-7-22.15-19.47-25.57-12.64-3.52-30.47 4.19-32.61 18.48-5.77 38.62-13.17 77.4-12.19 116.57 0.63 25.35 4.39 56.67 15.52 80.08 5.59 11.75 15.07 16.88 25.55 17.55l-3 3.86q3.72-5.16 0.7-1.22a66.21 66.21 0 0 0-10.67 18.86c-0.6 1.62-1.14 3.27-1.63 4.93a29.92 29.92 0 0 0-21.48-4.1c7-19.9 7.24-40.53-3.65-60-16.75-29.91-54.57-44.41-84.92-55.15-9.43-3.34-17.64-0.55-23.3 5.14a115 115 0 0 0-20.94-10.18c-11.71-4.35-25.13 6.86-24.65 18.78 2 50.34 52.45 68.73 93.06 82.07 6.3 2.07 11.89 1.53 16.49-0.7l-0.06 0.22c-0.42 1.45-0.95 2.87-1.49 4.28 1-2.7-1.27 2.57-1.64 3.31a152.74 152.74 0 0 1-8.33 14.16c-25.08 39-58.41 72.15-62.46 120.76-1.34 16.11 18.23 31.78 33.65 25.63 24.87-9.9 43.79-26.23 61-46.42 7.68-9 15-18.85 22.78-28.18 10.24 28.57 18.49 57.87 22.87 87.87 3.74 25.67 44.84 24 50 0 5.84-27.19 2.55-55 0.27-82.43-1.12-13.53-2.07-27.08-2-40.67 0-10.3 1.26-19.41 4.5-25.51l0.48-0.72 1.12-0.39c7.86-2.85 16.07-4.81 24.17-6.83 17.33-4.34 34.47-8.25 51-15.24 19.39-8.17 28.94-35.21 10.54-50.12z" fill="#FFFFFF" p-id="34689"></path><path d="M441.09 316.51c-0.9 7.13-2.28 14.16-2.48 21.34a5.76 5.76 0 0 0 5.71 5.71c15.14 0.41 20.65-17.36 27.49-28.79 4.07-6.81-5.92-15-11.18-8.63-8.76 10.54-7.89 26.72-16.43 36.93-6.3 7.53 3.64 17.94 10.92 10.92 10.42-10.06 21.25-20.55 28.43-33.26 4.69-8.3-6.29-16.79-13.12-10.12L448 332.52l-4 3.88q-2 1.84 2.61-1.53a8.78 8.78 0 0 0-3.89 2.26c-4.29 4.29-2.88 10.7 0.93 14.72 5.94 6.27 19.75 17.6 28.17 9.17s-1.56-29.25-2.12-39.18c-0.7-12.23-17.62-11.93-18.76 0-0.38 3.89-2.67 8.41-4.19 11.95-1.09 2.54-2.37 5-3.67 7.44-0.76 1.42-4.16 4.24-1.3 3.48-10.09 2.68-8.31 19.94 2.52 18.65 16.91-2 50.7-13.16 39.87-37.17s-41.82-1.13-52.11 10.11c-4.62 5-3.27 14.79 4.31 16.31 9.64 1.94 19.42 3.32 29.2 4.33 11.11 1.15 28.32 3.36 37.27-5.2 12.78-12.22-3.87-27.17-13.39-34.36-11.71-8.83-29-23.41-44.57-14.74-23.77 13.27-4.85 56.9 8.71 70.39 27.26 27.13 66.94-17 54.85-46.28-6.28-15.21-22.94-22.24-38.67-20.76-20 1.89-33.91 16.36-40.57 34.52-3.35 9.13 7.65 14.87 14.86 11.42 5.81-2.78 12.68-3.88 18.2-7.16 6.15-3.65 9.12-11.78 12.14-17.8 4.11-8.18-2.54-16.73-11.47-14.92-7.62 1.55-16 2.82-22.58 7.26-6.28 4.24-11.2 10.44-17.22 15.06-4.88 3.75-7.45 11.19-2.06 16 10.39 9.32 21.7 12 34.06 17.63 11.93 5.39 22.34-12.27 10.33-17.68-10.25-4.61-21.39-6.72-30-14.38l-2.06 16a196.21 196.21 0 0 0 17.16-14.91c4.13-4 12.46-4.36 17.74-5.45l-11.4-14.86c-1.69 3.38-3.37 6.77-5.2 10.08-1.67 3-0.94 1-0.1 0.71a148.13 148.13 0 0 0-17.72 6.94l14.86 11.42c5.3-14.55 18.79-23.56 34.07-18.39 15.43 5.22 4.14 23.76-2.8 31-13.89 14.44-25.29-21.54-25.67-32a26.54 26.54 0 0 1 1.11-7.07c-1 1.15 1.31 0.32 5.24 2.36a116.3 116.3 0 0 1 22.45 15.81 23.82 23.82 0 0 1 4.86 5.32c-1.5-2.47 2.72-6.38 1.52-5.7-5 2.87-20.08 0.53-27.3-0.26-6.9-0.75-13.8-1.84-20.61-3.17l4.31 16.31c1.57-1.74 19-18.55 21.22-15.22 1.94 3-20.64 9.22-22.78 9.49l2.49 18.65c13.7-3.73 21.74-28.7 22.86-41.17h-18.76a100.13 100.13 0 0 0 2.16 13.92c0.8 3.88 4.13 14.63 3.58 16.45l4.16-5.41c5.62-2.72 4.31-0.65-0.69-4a17.14 17.14 0 0 1-3.74-3.4l0.89 6.79 0.14-0.5-6.15 6.15c6.06-1.62 11.06-9.09 15.2-13.32l15.75-16.12-13.12-10.09c-6.22 11.64-15.84 21.34-24.93 30.77L455.12 354c8.51-11 7.3-27.2 15.58-37.78l-11.9-6.93a142.84 142.84 0 0 1-9.8 19.76c-2.09 3.44 0.1 3-4.7 3.09l5.71 5.71c-0.2-7.19-1.57-14.22-2.48-21.34a3.23 3.23 0 0 0-6.46 0z" fill="#FF9E16" p-id="34690"></path><path d="M636.07 526.74c-9.2-6.61-22-6.36-33-7.66-12.84-1.52-25.6-2.82-38.22-5.71-14.62-3.35-20.83 18.86-6.2 22.49 10.06 2.5 19.81 5.46 29.42 8.86 9.58 4.49 19.34 8.83 29.43 11.91 7.89 2.41 13.86-4.56 13.88-11.3q1.19-0.21 2.37-0.51c8.91-2.27 8.9-13.36 2.32-18.08zM708 427.93c-0.22 0.07-0.4 0.16-0.62 0.24-4.93-3.33-11.64-3.78-16.37 1.63-18.18 20.8-30 45.61-30.35 73.46-0.15 11.35 14.45 17.47 22.37 9.27 19-19.72 33.9-43 39.39-70.18 1.65-8.19-5.37-17.44-14.42-14.42z" fill="#4C8B2B" p-id="34691"></path><path d="M354.05 875.17c-6.79-1.4-13.6-1.59-18.69-6.83l-5.32 6.89c17.28 8.58 35.86 11.82 54 17.89 6.74 2.25 9.61-7.09 4.53-10.74-14.5-10.41-27.61-22.58-42.12-33-7.44-5.34-14.07 6.73-7.07 12.09 19.79 15.14 41.36 22.87 65.53 28 9.67 2.06 13.45-11.64 4.07-14.77-19.24-6.42-38.93-11.42-58.57-16.45l-4.31 15.65a217.73 217.73 0 0 0 50.18 5.88c7.93 0 12-11.91 4.22-15.6-9.8-4.67-20.28-7.86-30.64-11-8.15-2.48-18.26-6.82-26.95-5.68-8.35 1.1-11.35 12.94-2.1 15.52 17 4.76 35.11 8.14 51.24 15.61l4.22-15.6a198.15 198.15 0 0 1-45.87-4.79c-10.18-2.34-14.5 13.16-4.31 15.65 19.7 4.82 39.47 9.44 58.81 15.57l4.1-14.73c-23.22-4.56-43.06-11.7-62.53-25.34l-7.07 12.09c14.86 9.74 28.39 21.3 43.26 31l4.53-10.74c-17.76-5.12-35.58-6.4-52.71-14.13a4.39 4.39 0 0 0-4.43 7.58c7.52 5.35 15.25 4.88 24 3.15a1.68 1.68 0 0 0 0-3.21zM693.52 880.53c-14.49 18.63-24.89 41.93-26.39 65.61-0.38 6 7.4 8.54 11.32 4.69 21.64-21.23 34.33-49 35.08-79.39 0.22-9.1-12.52-10.1-15.24-2.06-6 17.62-11.58 35.28-16.26 53.29-2.21 8.52 10.89 14.71 14.65 6.17 4.57-10.37 6.25-21.6 10.81-31.93l-15.23-4.12c-1.18 14.72-15.89 26.87-21.27 40.46-4 10 12.33 14.48 16.19 4.46 6.25-16.2 20.13-26.67 21.42-44.92 0.55-7.81-12-11.61-15.23-4.12-4.49 10.44-6.07 21.7-10.54 32.1l14.65 6.17c4.51-18 10-35.76 15.76-53.43L698 871.44c-0.42 27-10.88 50.16-28.95 70l11.32 4.69c0.15-22.85 11.08-41.94 16.87-63.44 0.54-2-2.3-4-3.74-2.18z" fill="#FFFFFF" p-id="34692"></path><path d="M468.7 296.16c-11.4-8.58-30.47-2.64-42 2.68-16.41 7.57-29.42 24.17-25.54 43 5.07 24.66 29.82 47 52.87 55 24.36 8.39 46-7.26 57-28.09 10-19 16.39-43.24 1.56-61.37-11.43-14-29-19.82-43.94-29-9.57-5.84-8.62-13.19-9.53-23.88a433.16 433.16 0 0 1-1.5-49.41c0.9-31.76 7.6-63.3 24.41-90.56 7.94-12.88 18.8-24 30.76-33.24L499.89 78c16.11 33 24.11 69.87 24.7 106.51 0.5 32-5.94 68.18-31.25 90.19l14.81 1.91c-15.83-32.32-19.31-62.57-7.27-96.85 4-11.41-13.4-15.61-17.77-4.9-15.48 38-8.81 75.42 8.75 111.27 2.84 5.8 10.54 5.62 14.81 1.91 28.34-24.63 36.2-64 36.77-99.92 0.65-40.92-9.28-83-27.32-119.61-2.95-6-10.35-5.33-14.78-1.9-44.77 34.71-60.69 87.6-62 142.36a414.49 414.49 0 0 0 1.49 41.83c0.77 9.9 0 22.35 5.44 31 8 12.62 25.12 18 37.52 25 17.24 9.64 23.89 21.81 17.12 41.17-4.44 12.71-10.2 25-22.47 31.68-11.48 6.26-25.27-0.15-35-6.59-17.62-11.7-38.58-37-20.11-56.29 9.56-10 29.91-20.38 44.24-18a1.41 1.41 0 0 0 1.08-2.57z" p-id="34693"></path><path d="M493.15 291.34c24.39-17.56 48.47-39 80.57-37.39 19.11 1 37 13.15 44 31.12 6.75 17.42 1.15 36-14.19 46.63-28.24 19.63-70.28 12.74-101.31 5.84l3.6 13.64c23.73-22.81 52.79-37.49 84.51-45.69 10.49-2.71 6-19-4.47-16.22-34.28 9-66.18 25.41-91.58 50.37-4.19 4.12-2.48 12.36 3.6 13.64 36.2 7.63 82.27 13.53 114.55-9.43a53.24 53.24 0 0 0 19.57-61.4c-8.05-23.44-29.5-38.68-53.59-41.76-34.18-4.36-70.61 20.15-88.42 47.53-1.21 1.86 1.25 4.47 3.12 3.12zM446.7 303.79C439.5 288 429.1 273 418.17 259.6c-12.57-15.42-28.3-32.38-47.32-39.7-24.72-9.51-71-20.71-89.73 6.2-15.07 21.62 0.3 49.83 14.14 67.59 21.7 27.84 55.82 46.45 90.32 52.26 5.53 0.93 11.33-2.34 11.23-8.56-0.7-45.61-28.36-89.93-68.15-112.2-10.74-6-19.46 9.49-9.52 16.29 33.44 22.87 59 53.56 59.92 95.92l11.23-8.56a135.71 135.71 0 0 1-76.92-40.25c-11-11.53-28.33-34.73-19.42-51.76 11.16-21.34 57-8.08 73-2.87 18 5.85 33.1 22.77 45.39 36.33 10.43 11.51 21 23.2 28.88 36.68 2.09 3.58 7.11 0.45 5.46-3.19zM404 351.13c-24.3-3.21-42.36 29.79-50.2 47.93-13.13 30.38-17.87 65.62-13.86 98.44 0.53 4.3 3.25 8.08 8 8 73.06-0.89 119.68-79.24 104.26-146.36-0.94-4.1-6.31-7.69-10.47-5.94-44.84 18.81-71.15 63-78 110-1.56 10.63 14.22 15.55 16.5 4.55 8.7-41.89 26.42-81.36 68.08-99l-12.5-5.09c13.23 56.78-26.1 124-87.85 125.8l7.74 5.89c-3.93-28.32 0.15-57.24 8.54-84.38a136.56 136.56 0 0 1 15.92-33.66c6.49-10.07 15.44-15.43 25-21.95 2-1.36 1.07-4-1.15-4.25z" p-id="34694"></path><path d="M466.65 392.65c-12.49 22.53-9.09 58.35-2.79 82.26 8 30.3 29.45 54.11 55.91 69.89 4.6 2.74 11.09 0.24 12.39-5 15.7-63.38 17.06-131.43-25.87-184.62-4.22-5.23-13.4-2.14-14.84 3.92-4.54 19.13-6.2 38.76-6.35 58.39-0.14 18.92 0.52 40.25 6.94 58.23 2.93 8.2 17.45 7.61 16.23-2.2-4.58-37-8.43-72.84 0.29-109.71l-14.84 3.92c38.58 47.71 35.74 111.09 22.15 167.58l12.39-5c-24.8-14.57-41.61-35.42-50.25-62.87a163.19 163.19 0 0 1-6.55-36.84c-0.91-12.31 0.88-25.48-2-37.5a1.57 1.57 0 0 0-2.84-0.37zM522.2 363.23C582.86 410.87 630 467.76 664.55 536.9a671.29 671.29 0 0 1 42.93 110c10.64 35.94 14.68 73 24.06 109.09 2.57 9.88 17.38 7.62 17.52-2.37 0.54-37.24-11.4-76.72-21.8-112.18A682 682 0 0 0 682 526.72C648.3 460 597 387.13 524.71 358.93c-2.35-0.91-4.5 2.73-2.51 4.3z" p-id="34695"></path><path d="M661.88 534.47c-42.23-26.8-90.48-34.79-139.67-27.54-5.18 0.76-6.38 8.13-3 11.37 23.76 22.86 54.19 54 89.15 57.24 21.17 2 34.77-15.41 42.24-32.88 16.68-39 18-112.17 67.73-125.26l-10.17-5.77c6.51 20.55 9.47 41.79 4.29 63-5.89 24.09-23.73 34.88-40.9 50.34-5 4.52 0.3 12.17 6.27 10.77 23.81-5.62 40.73-28.38 48.92-50.2 9.36-24.94 5.35-53.61-2.64-78.28a8.39 8.39 0 0 0-10.17-5.77C663.82 415 655.4 475.6 643 517.88c-4.49 15.28-10.6 38.73-28.73 42.56-10.49 2.22-22.42-4.23-31.14-9.12-20.05-11.23-37.56-27.07-54.29-42.64l-3 11.38c45.19-7.43 91.91-1.2 132.5 20.49 4 2.15 7.39-3.65 3.55-6.08zM421.31 880.93c-22.23-42.72-79.4-42.18-116.74-20.93a6.66 6.66 0 0 0-1.34 10.37c32.14 31.19 74.76 42.88 118.52 33.84 8.6-1.78 4.84-14.38-3.58-13-39.6 6.57-76.21-1.94-105.6-30.2l-1.34 10.37c36-20.74 76.52-15.52 107.63 11.4a1.56 1.56 0 0 0 2.44-1.88zM671.15 936.91c-6-38.53 19.27-69.63 54.43-82l-6.7-3.8c3.07 20.92 0.5 42.12-6.11 62.12-4.92 14.87-16.22 37.78-35.2 35.2-6.78-0.92-10 8.76-2.92 10.59 20.43 5.31 35.07-12.67 43.31-29 12.51-24.73 15.55-54.73 11.42-81.84-0.42-2.79-4.14-4.72-6.7-3.8-39.41 14.05-70.88 50.51-57.63 94.14 1.21 4 6.7 2.26 6.09-1.68z" p-id="34696"></path></svg>