<?xml version="1.0" standalone="no"?><!DOCTYPE svg PUBLIC "-//W3C//DTD SVG 1.1//EN" "http://www.w3.org/Graphics/SVG/1.1/DTD/svg11.dtd"><svg t="1582352784290" class="icon" viewBox="0 0 1024 1024" version="1.1" xmlns="http://www.w3.org/2000/svg" p-id="3538" xmlns:xlink="http://www.w3.org/1999/xlink" width="24" height="24"><defs><style type="text/css"></style></defs><path d="M258.157 469.964c-28.899 51.158-45.676 111.661-45.676 176.56 0 183.453 133.569 332.172 298.335 332.172s298.335-148.719 298.335-332.172c0-64.899-16.777-125.402-45.676-176.56 0 0-124.167 51.94-258.576 51.94-118.433 0-246.742-51.94-246.742-51.94z" fill="#AAD5D6" p-id="3539"></path><path d="M249.236 501.696a261.3 117.021 0 1 0 522.6 0 261.3 117.021 0 1 0-522.6 0Z" fill="#6BBFBF" p-id="3540"></path><path d="M750.218 497.936c0 51.651-105.626 93.523-235.922 93.523-13.78 0-27.284-0.468-40.416-1.367-111.04-7.599-195.505-45.967-195.505-92.156 0-51.651 105.626-93.523 235.922-93.523s235.921 41.872 235.921 93.523z" fill="#3A2C17" p-id="3541"></path><path d="M280.085 591.522l-11.477 3.299-3.299-11.477a5.64 5.64 0 0 0-10.839 3.115l3.299 11.477-11.477 3.299a5.64 5.64 0 0 0 3.115 10.84l11.477-3.299 3.299 11.477a5.64 5.64 0 0 0 10.839-3.115l-3.299-11.477 11.477-3.299a5.64 5.64 0 0 0-3.115-10.84zM336.48 620.66l-11.477 3.299-3.299-11.477a5.64 5.64 0 0 0-10.84 3.115l3.299 11.477-11.477 3.299a5.64 5.64 0 0 0 3.115 10.839l11.477-3.299 3.299 11.477a5.64 5.64 0 0 0 10.84-3.115l-3.299-11.477 11.477-3.299a5.64 5.64 0 0 0-3.115-10.839zM402.275 637.578l-11.477 3.299-3.299-11.477a5.64 5.64 0 0 0-10.84 3.116l3.299 11.477-11.477 3.299a5.64 5.64 0 0 0 3.115 10.839l11.477-3.299 3.299 11.477a5.64 5.64 0 0 0 10.84-3.116l-3.299-11.477 11.477-3.299a5.64 5.64 0 0 0-3.115-10.839zM473.71 652.617l-11.477 3.299-3.299-11.477a5.64 5.64 0 0 0-10.84 3.115l3.299 11.477-11.477 3.299a5.64 5.64 0 0 0 3.115 10.839l11.477-3.299 3.299 11.477a5.64 5.64 0 0 0 10.84-3.115l-3.299-11.477 11.477-3.299a5.64 5.64 0 0 0-3.115-10.839zM547.024 654.497l-11.477 3.299-3.299-11.477a5.64 5.64 0 0 0-10.84 3.115l3.299 11.477-11.477 3.299a5.64 5.64 0 0 0 3.116 10.84l11.477-3.299 3.299 11.477a5.64 5.64 0 0 0 10.839-3.115l-3.299-11.477 11.477-3.299a5.64 5.64 0 0 0-3.115-10.84zM613.759 649.797l-11.477 3.299-3.299-11.477a5.64 5.64 0 0 0-10.84 3.116l3.299 11.477-11.477 3.299a5.64 5.64 0 0 0 3.115 10.839l11.477-3.299 3.299 11.477a5.64 5.64 0 1 0 10.839-3.116l-3.299-11.477 11.477-3.299a5.64 5.64 0 0 0-3.114-10.839zM674.782 638.518l-11.477 3.299-3.299-11.477a5.64 5.64 0 0 0-10.84 3.115l3.299 11.477-11.477 3.299a5.64 5.64 0 0 0 3.116 10.84l11.477-3.299 3.299 11.477a5.64 5.64 0 1 0 10.839-3.116l-3.299-11.477 11.477-3.299a5.64 5.64 0 0 0-3.115-10.839zM741.589 615.02l-11.477 3.299-3.299-11.477a5.64 5.64 0 0 0-10.84 3.115l3.299 11.477-11.477 3.299a5.64 5.64 0 0 0 3.115 10.84l11.477-3.299 3.299 11.477a5.64 5.64 0 0 0 10.839-3.115l-3.299-11.477 11.477-3.299a5.64 5.64 0 0 0-3.114-10.84zM782.006 576.483l-11.477 3.299-3.299-11.477a5.64 5.64 0 0 0-10.839 3.115l3.299 11.477-11.477 3.299a5.64 5.64 0 1 0 3.116 10.839l11.477-3.299 3.299 11.477a5.64 5.64 0 0 0 10.839-3.115l-3.299-11.477 11.477-3.299a5.64 5.64 0 0 0-3.116-10.839z" fill="#6BBFBF" p-id="3542"></path><path d="M682.501 332.712c0 118.93-70.298 210.943-170.925 210.943S330.793 385.588 330.793 266.659s80.156-153.686 180.783-153.686 170.925 100.809 170.925 219.739z" fill="#33B36D" p-id="3543"></path><path d="M755.991 233.953c0 40.301-41.201 60.966-81.502 60.966s-75.022-2.568-75.022-42.87 43.251-91.068 83.553-91.068 72.971 32.671 72.971 72.972z" fill="#18944A" p-id="3544"></path><path d="M425.197 145.267a45.305 45.305 0 0 0-2.011-0.929c14.296-6.621 25.169-15.87 22.409-24.237-3.455-10.473-21.857-13.816-41.102-7.467a48.002 48.002 0 0 0-5.647 2.287c-1.421-10.896-5.233-19.147-11.936-19.92-10.956-1.263-21.719 14.032-24.041 34.164a48.44 48.44 0 0 0-0.281 6.739c-1.847 0.341-3.729 0.704-5.635 1.079-19.884 3.91-39.121 13.456-36.993 24.277 2.093 10.642 19.387 16.23 38.871 12.693-5.137 17.983-5.399 36.553 4.278 39.764 10.467 3.473 24.126-9.303 30.508-28.537 1.436-4.329 2.223-8.95 2.469-13.553 2.861 1.517 5.889 3.041 9.005 4.583 18.161 8.99 39.237 13.114 44.13 3.23s-5.863-25.182-24.024-34.173z" fill="#F2E325" p-id="3545"></path><path d="M533.095 152.513m-6.431 0a6.431 6.431 0 1 0 12.862 0 6.431 6.431 0 1 0-12.862 0Z" fill="#FFFFFF" p-id="3546"></path><path d="M582.258 206.958m-6.431 0a6.431 6.431 0 1 0 12.862 0 6.431 6.431 0 1 0-12.862 0Z" fill="#FFFFFF" p-id="3547"></path><path d="M524.635 209.849m-9.646 0a9.646 9.646 0 1 0 19.292 0 9.646 9.646 0 1 0-19.292 0Z" fill="#FFFFFF" p-id="3548"></path><path d="M633.822 396.621m-9.646 0a9.646 9.646 0 1 0 19.292 0 9.646 9.646 0 1 0-19.292 0Z" fill="#FFFFFF" p-id="3549"></path><path d="M478.108 147.813m-7.503 0a7.503 7.503 0 1 0 15.006 0 7.503 7.503 0 1 0-15.006 0Z" fill="#FFFFFF" p-id="3550"></path><path d="M570.826 256.975m-9.646 0a9.646 9.646 0 1 0 19.292 0 9.646 9.646 0 1 0-19.292 0Z" fill="#FFFFFF" p-id="3551"></path><path d="M696.154 189.17m-9.646 0a9.646 9.646 0 1 0 19.292 0 9.646 9.646 0 1 0-19.292 0Z" fill="#FFFFFF" p-id="3552"></path><path d="M587.61 301.021m-6.431 0a6.431 6.431 0 1 0 12.862 0 6.431 6.431 0 1 0-12.862 0Z" fill="#FFFFFF" p-id="3553"></path><path d="M371.729397 152.144321a11.455 14.469 80.231 1 0 28.518395-4.910093 11.455 14.469 80.231 1 0-28.518395 4.910093Z" fill="#CCA70E" p-id="3554"></path><path d="M653.257 316.06m-6.431 0a6.431 6.431 0 1 0 12.862 0 6.431 6.431 0 1 0-12.862 0Z" fill="#FFFFFF" p-id="3555"></path><path d="M660.857 209.101m-6.431 0a6.431 6.431 0 1 0 12.862 0 6.431 6.431 0 1 0-12.862 0Z" fill="#FFFFFF" p-id="3556"></path><path d="M725.164 230.537m-7.503 0a7.503 7.503 0 1 0 15.006 0 7.503 7.503 0 1 0-15.006 0Z" fill="#FFFFFF" p-id="3557"></path></svg>