<?xml version="1.0" standalone="no"?><!DOCTYPE svg PUBLIC "-//W3C//DTD SVG 1.1//EN" "http://www.w3.org/Graphics/SVG/1.1/DTD/svg11.dtd"><svg t="1582352736056" class="icon" viewBox="0 0 1024 1024" version="1.1" xmlns="http://www.w3.org/2000/svg" p-id="2129" xmlns:xlink="http://www.w3.org/1999/xlink" width="24" height="24"><defs><style type="text/css"></style></defs><path d="M786.843 872.363c0 48.99-37.994 88.705-84.863 88.705H317.974c-46.869 0-84.863-39.714-84.863-88.705V508.674c0-48.99 37.994-88.705 84.863-88.705H701.98c46.869 0 84.863 39.714 84.863 88.705v363.689z" fill="#B7A376" p-id="2130"></path><path d="M786.843 814.76v-14.715l-7.47-10.704 7.47-14.881v-20.283l-13.393 26.678-21.908-31.39 18.885-37.619 16.415 23.52V720.65l-12.118-17.364 11.407-22.723 0.711 1.019v-22.718l-2.337 4.655-15.723-22.529 15.894-31.661 2.166 3.103v-27.7l-3.791 7.552-120.262-172.315h-10.27l95.042 136.179-1.186-0.237-15.467 30.81-104.837-150.213-6.906 4.819 79.492 113.899-1.418-0.284-10.897 21.706-82.378-118.034-6.906 4.819 36.834 52.777-7.044-1.41-16.35 32.569-23.192-33.23 5.092-10.142-9.252-1.852-1.762 3.509-10.054-14.404-6.906 4.819 12.664 18.145-16.642 33.15-18.591-26.638-6.906 4.819 21.201 30.378-13.651 27.192-22.736-32.577 46.462-92.55-9.252-1.852-63.392 126.273-24.431-35.005 63.974-127.434H522.94l-80.836 161.023-9.733-13.946-6.906 4.82 12.343 17.685-16.495 32.858-29.17-41.797 82.474-160.643h-10.204l-78.149 152.219-6.528-9.353-6.906 4.82 9.081 13.012-17.956 34.975-25.378-36.363 79.976-159.31h-10.182l-75.716 150.824-5.554-7.958-6.906 4.82 8.164 11.697-20.509 40.852-20.777-30.438 85.241-169.797h-10.182l-80.926 161.202-24.768-36.284 62.711-124.918h-1.172c-3.137 0-6.231 0.191-9.28 0.538l-58.126 115.785-17.457-25.574v14.938L246.25 544.9l-13.136 26.166v20.283l19.003-37.853 24.767 36.284-19.469 38.783-24.301-34.819v14.715l20.004 28.663-15.218 30.307-4.789-6.862v14.715l0.492 0.706-0.492 0.981v20.283l6.415-12.778 20.972 30.049-18.138 36.129-9.249-13.252v14.715l4.952 7.096-4.952 9.865v20.283l10.875-21.662 24.142 34.592-17.617 34.314-17.4-24.931v14.715l13.047 18.695-13.047 25.413v1.869c0 5.275 0.466 10.433 1.31 15.455l17.616-34.313 30.978 44.386-20.758 41.349a85.747 85.747 0 0 0 7.221 5.899l19.46-38.763 24.431 35.005-9.279 18.484c3.158 0.544 6.37 0.921 9.635 1.089l5.566-11.088 7.817 11.2h10.27l-13.79-19.759 17.39-34.64 22.736 32.577-10.955 21.821h10.182l6.695-13.336 9.307 13.336h10.27l-15.281-21.895 18.138-36.129 23.191 33.23-12.447 24.794h10.182l8.187-16.309 11.382 16.309h10.27L425.481 936.2l15.215-30.308 22.003 31.526-11.872 23.649h10.182l7.612-15.164 10.583 15.164h10.27l-16.556-23.723 17.467-34.792 18.641 27.308-15.666 31.207h10.182l11.351-22.612 15.435 22.612h10.197l-21.311-31.22 22.492-44.802 22.939 32.867-21.665 43.155h10.182l17.404-34.669 24.196 34.669h13.337l16.442-32.751 15.724 22.529-5.132 10.223h10.182l0.872-1.737 1.212 1.737h10.27l-7.186-10.296 16.495-32.858 21.908 31.39-5.905 11.763h10.182l1.645-3.277 2.287 3.277h4.885c1.767 0 3.516-0.075 5.256-0.186l-8.131-11.65 16.826-33.516 24.811 35.55a83.953 83.953 0 0 0 7.222-4.367l-27.737-39.742 15.963-31.798 34.364 49.239a89.442 89.442 0 0 0 4.846-7.771L740.486 866.8l13.651-27.192 31.811 45.58c0.581-4.189 0.895-8.468 0.895-12.825v-0.608l-28.409-40.705 16.642-33.15 11.767 16.86z m-41.223-73.781l-15.724-22.529 18.885-37.619 15.723 22.529-18.884 37.619z m-448.885 25.465l30.401 43.56-18.138 36.129-30.638-43.899 18.375-35.79z m-1.527-16.902l-24.491-35.092 15.215-30.308 24.69 35.377-15.414 30.023z m5.88 8.424l15.414-30.023 30.146 43.194-15.215 30.308-30.345-43.479z m19.767-38.502l19.124-37.25 29.566 43.313-18.6 37.051-30.09-43.114z m31.715 60.159l24.431 35.005-15.215 30.308-24.431-35.005 15.215-30.308z m4.297-8.559l18.545-36.941 24.204 35.458-18.318 36.489-24.431-35.006z m22.866-45.549l21.183-42.196 24.431 35.005-21.41 42.648-24.204-35.457z m25.75 52.661l22.525 32.998-18.052 35.958-22.736-32.577 18.263-36.379z m4.321-8.608l21.465-42.758 22.736 32.577-21.676 43.179-22.525-32.998z m309.874-51.045l-16.642 33.15-26.031-37.298 16.642-33.15 26.031 37.298z m-21.735-45.857l18.885-37.619 26.031 37.298-18.885 37.619-26.031-37.298z m-112.744 41.018l15.963-31.798 18.816 26.96-15.963 31.798-18.816-26.96z m14.519 35.519l-16.826 33.516-18.816-26.96 16.826-33.516 18.816 26.96z m26.182-31.871l22.939 32.867-15.963 31.798-22.939-32.867 15.963-31.798z m4.296-8.559l13.651-27.192 22.938 32.867-13.651 27.192-22.938-32.867z m42.512 14.161l26.031 37.298-13.651 27.192-26.031-37.298 13.651-27.192z m-1.626-17.044l-22.938-32.867 16.642-33.15 22.939 32.867-16.643 33.15z m-28.861-41.353l-18.815-26.96 16.642-33.15 18.816 26.96-16.643 33.15z m-4.296 8.559l-13.651 27.192-18.816-26.96 13.651-27.192 18.816 26.96z m-38.389-8.254l-22.003-31.526 13.651-27.192 22.003 31.526-13.651 27.192z m-4.296 8.559l-15.963 31.798-22.003-31.526 15.963-31.798 22.003 31.526z m-20.26 40.356l-16.826 33.516-22.003-31.526 16.825-33.516 22.004 31.526z m-44.751-6.496l-23.191-33.23 16.825-33.516 23.192 33.23-16.826 33.516z m-4.296 8.559l-16.495 32.858-23.192-33.23 16.495-32.858 23.192 33.23z m-45.609-8.857l-22.736-32.577 16.495-32.858 22.736 32.577-16.495 32.858z m-4.297 8.558l-17.725 35.307-22.736-32.577 17.725-35.307 22.736 32.577z m-16.099 52.352l23.191 33.23-21.947 43.718-22.976-33.659 21.732-43.289z m4.297-8.559l17.725-35.307 23.192 33.23-17.725 35.307-23.192-33.23z m46.838 6.409l22.003 31.526-17.725 35.307-22.003-31.526 17.725-35.307z m4.297-8.559l16.495-32.858 22.003 31.526-16.495 32.858-22.003-31.526z m44.42 7.154l18.815 26.96-16.495 32.858-18.816-26.96 16.496-32.858z m24.738 35.445l22.939 32.867-16.495 32.858-22.939-32.867 16.495-32.858z m4.297-8.559l16.826-33.516 22.939 32.867-16.826 33.516-22.939-32.867z m45.686 7.837l26.031 37.298-16.826 33.516-26.031-37.298 16.826-33.516z m4.297-8.558l15.963-31.798 26.031 37.298-15.963 31.798-26.031-37.298z m47.916 13.985l15.723 22.529-15.963 31.798-15.723-22.529 15.963-31.798z m4.297-8.558l13.651-27.192 15.723 22.529-13.651 27.192-15.723-22.529z m17.947-35.751l16.642-33.15 15.723 22.529-16.642 33.15-15.723-22.529z m71.251-88.081l-11.407 22.723-15.723-22.529 11.407-22.723 15.723 22.529z m-27.485-108.532l26.031 37.298-15.894 31.661-26.031-37.298 15.894-31.661z m-20.191 40.219l26.031 37.298-11.407 22.723-26.031-37.298 11.407-22.723z m-28.861-41.353l22.939 32.867-11.407 22.723-22.938-32.867 11.406-22.723z m-15.704 31.282l22.938 32.867-18.885 37.619-22.939-32.867 18.886-37.619z m-5.923-8.485l-18.885 37.619-18.816-26.96 18.885-37.619 18.816 26.96z m-46.74-66.972l25.887 37.092-6.069-1.215-16.701 33.268-22.003-31.526 18.886-37.619z m-23.182 46.178l22.003 31.526-16.642 33.15-22.003-31.526 16.642-33.15zM583.009 522.7l23.192 33.23-16.642 33.15-23.191-33.23 16.641-33.15z m-20.939 41.709l23.192 33.23-13.651 27.192-23.191-33.23 13.65-27.192z m-17.947 35.75l23.191 33.23-15.963 31.798-23.191-33.23 15.963-31.798z m-28.658-41.063l22.736 32.577-15.963 31.798-22.736-32.577 15.963-31.798z m-20.26 40.357l22.736 32.577-16.826 33.516-22.736-32.577 16.826-33.516z m-30.353-43.491l24.431 35.005-16.826 33.516-24.431-35.005 16.826-33.516z m-21.122 42.074l24.431 35.005-16.496 32.859-24.431-35.005 16.496-32.859z m-20.792 41.417l24.431 35.005-17.725 35.307-24.431-35.005 17.725-35.307z m-35.149-50.363l29.226 41.877-17.725 35.307-29.458-42.209 17.957-34.975z m-22.309 43.454l29.514 42.289-21.128 42.086-29.51-43.231 21.124-41.144z m-31.202-44.707L359.6 624.12l-21.068 41.036-24.817-36.357 20.563-40.962z m-24.885 49.57l24.761 36.275-19.18 37.358-24.746-35.458 19.165-38.175z m-26.644-39.033l20.777 30.438-19.22 38.285-20.972-30.049 19.415-38.674z m-38.926 77.54l15.215-30.308 20.972 30.049-15.215 30.308-20.972-30.049z m4.46 83.224l18.138-36.129 24.435 35.012-18.375 35.79-24.198-34.673z m39.029 130.194l-30.921-44.305 17.617-34.314 30.694 43.98-17.39 34.639z m30.353 43.491l-24.431-35.005 17.39-34.64 24.431 35.006-17.39 34.639z m21.687-43.198l-24.431-35.005 18.138-36.129 24.431 35.005-18.138 36.129z m28.658 41.063l-22.736-32.577 18.138-36.13 22.736 32.577-18.138 36.13z m22.434-44.689l-22.736-32.577 15.215-30.308 22.736 32.577-15.215 30.308z m29.114 41.716l-23.191-33.23 15.215-30.308 23.191 33.23-15.215 30.308z m19.512-38.867l-23.191-33.23 17.996-35.849 22.976 33.659-17.781 35.42z m27.925 40.011l-22.003-31.526 17.726-35.31 21.798 31.934-17.521 34.902z m21.843-43.51l-21.798-31.934 22.002-43.827 22.003 31.526-22.207 44.235z m24.508 35.904l-18.641-27.308 22.262-44.344 18.816 26.96-22.437 44.692z m26.733-53.252l-18.816-26.96 17.725-35.307 18.816 26.96-17.725 35.307z m28.861 41.353l-22.939-32.867 17.725-35.307 22.939 32.867-17.725 35.307z m31.953 45.784l-26.031-37.298 17.725-35.307 26.031 37.298-17.725 35.307z m22.021-43.866l-26.031-37.298 16.495-32.858 26.031 37.298-16.495 32.858z m21.646 31.014l-15.724-22.529 16.495-32.858 15.723 22.529-16.494 32.858z m20.792-41.416l-15.724-22.529 16.826-33.516 15.724 22.529-16.826 33.516z m27.83 39.876l-21.908-31.39L688.1 875.84l21.908 31.39-16.826 33.516z m21.122-42.075l-21.908-31.39 15.963-31.798 21.908 31.39-15.963 31.798z m20.26-40.356l-21.908-31.39 13.651-27.192 21.908 31.39-13.651 27.192z m17.948-35.751l-21.908-31.39 16.642-33.15 21.908 31.39-16.642 33.15zM249.572 456.186a89.92 89.92 0 0 0-11.807 23.518l11.807-23.518z" fill="#E6E9E6" p-id="2131"></path><path d="M235.18 495.352a276.06 123.631 0 1 0 552.12 0 276.06 123.631 0 1 0-552.12 0Z" fill="#95804C" p-id="2132"></path><path d="M265.964 491.38a249.248 98.806 0 1 0 498.496 0 249.248 98.806 0 1 0-498.496 0Z" fill="#3A2C17" p-id="2133"></path><path d="M488.993 452.842c0 22.805-23.314 34.498-46.118 34.498-22.804 0-42.451-1.453-42.451-24.258s24.474-51.531 47.278-51.531 41.291 18.486 41.291 41.291z" fill="#95804C" p-id="2134"></path><path d="M381.615 488.634c0 22.804-23.314 34.498-46.118 34.498-22.805 0-42.451-1.453-42.451-24.258 0-22.804 24.474-51.531 47.278-51.531 22.805 0 41.291 18.487 41.291 41.291zM630.058 433.893c0 22.805-23.314 34.498-46.118 34.498s-42.451-1.453-42.451-24.258 24.474-51.531 47.279-51.531 41.29 18.486 41.29 41.291zM667.815 476.002c0 22.805 23.314 34.498 46.118 34.498s42.451-1.453 42.451-24.258-24.474-51.531-47.279-51.531c-22.804 0-41.29 18.486-41.29 41.291z" fill="#896B36" p-id="2135"></path><path d="M676.345 304.025c0 130.684-46.946 231.79-114.146 231.79s-120.73-173.688-120.73-304.372 53.53-168.875 120.73-168.875 114.146 110.774 114.146 241.457z" fill="#33B36D" p-id="2136"></path><path d="M757.098 195.506c0 44.284-45.273 66.992-89.557 66.992s-82.436-2.822-82.436-47.106 47.526-100.069 91.81-100.069c44.284-0.001 80.183 35.898 80.183 80.183z" fill="#18944A" p-id="2137"></path><path d="M512.173 106.017m-7.066 0a7.066 7.066 0 1 0 14.132 0 7.066 7.066 0 1 0-14.132 0Z" fill="#FFFFFF" p-id="2138"></path><path d="M566.196 165.842m-7.066 0a7.066 7.066 0 1 0 14.132 0 7.066 7.066 0 1 0-14.132 0Z" fill="#FFFFFF" p-id="2139"></path><path d="M502.878 169.019m-10.599 0a10.599 10.599 0 1 0 21.198 0 10.599 10.599 0 1 0-21.198 0Z" fill="#FFFFFF" p-id="2140"></path><path d="M622.855 374.251m-10.599 0a10.599 10.599 0 1 0 21.198 0 10.599 10.599 0 1 0-21.198 0Z" fill="#FFFFFF" p-id="2141"></path><path d="M553.633 220.803m-10.599 0a10.599 10.599 0 1 0 21.198 0 10.599 10.599 0 1 0-21.198 0Z" fill="#FFFFFF" p-id="2142"></path><path d="M691.348 146.297m-10.599 0a10.599 10.599 0 1 0 21.198 0 10.599 10.599 0 1 0-21.198 0Z" fill="#FFFFFF" p-id="2143"></path><path d="M572.077 269.203m-7.066 0a7.066 7.066 0 1 0 14.132 0 7.066 7.066 0 1 0-14.132 0Z" fill="#FFFFFF" p-id="2144"></path><path d="M644.211 285.728m-7.066 0a7.066 7.066 0 1 0 14.132 0 7.066 7.066 0 1 0-14.132 0Z" fill="#FFFFFF" p-id="2145"></path><path d="M652.562 168.198m-7.066 0a7.066 7.066 0 1 0 14.132 0 7.066 7.066 0 1 0-14.132 0Z" fill="#FFFFFF" p-id="2146"></path><path d="M723.225 191.752m-8.244 0a8.244 8.244 0 1 0 16.488 0 8.244 8.244 0 1 0-16.488 0Z" fill="#FFFFFF" p-id="2147"></path><path d="M364.356 422.298c0 69.311 39.638 122.934 96.376 122.934s101.935-92.119 101.935-161.429-45.196-89.566-101.935-89.566-96.376 58.75-96.376 128.061z" fill="#17723B" p-id="2148"></path><path d="M296.174 364.742c0 23.487 38.225 35.53 75.615 35.53s69.603-1.497 69.603-24.984-40.127-53.073-77.517-53.073-67.701 19.041-67.701 42.527z" fill="#18944A" p-id="2149"></path><path d="M497.004 317.28a5.966 3.748 0 1 0 11.932 0 5.966 3.748 0 1 0-11.932 0Z" fill="#FFFFFF" p-id="2150"></path><path d="M451.391 349.01a5.966 3.748 0 1 0 11.932 0 5.966 3.748 0 1 0-11.932 0Z" fill="#FFFFFF" p-id="2151"></path><path d="M501.869 350.695a8.949 5.622 0 1 0 17.898 0 8.949 5.622 0 1 0-17.898 0Z" fill="#FFFFFF" p-id="2152"></path><path d="M400.569 459.543a8.949 5.622 0 1 0 17.898 0 8.949 5.622 0 1 0-17.898 0Z" fill="#FFFFFF" p-id="2153"></path><path d="M547.024 314.542a6.961 4.372 0 1 0 13.922 0 6.961 4.372 0 1 0-13.922 0Z" fill="#FFFFFF" p-id="2154"></path><path d="M459.015 378.159a8.949 5.622 0 1 0 17.898 0 8.949 5.622 0 1 0-17.898 0Z" fill="#FFFFFF" p-id="2155"></path><path d="M342.739 338.644a8.949 5.622 0 1 0 17.898 0 8.949 5.622 0 1 0-17.898 0Z" fill="#FFFFFF" p-id="2156"></path><path d="M446.426 403.829a5.966 3.748 0 1 0 11.932 0 5.966 3.748 0 1 0-11.932 0Z" fill="#FFFFFF" p-id="2157"></path><path d="M385.521 412.594a5.966 3.748 0 1 0 11.932 0 5.966 3.748 0 1 0-11.932 0Z" fill="#FFFFFF" p-id="2158"></path><path d="M378.47 350.259a5.966 3.748 0 1 0 11.932 0 5.966 3.748 0 1 0-11.932 0Z" fill="#FFFFFF" p-id="2159"></path><path d="M317.813 362.752a6.961 4.372 0 1 0 13.922 0 6.961 4.372 0 1 0-13.922 0Z" fill="#FFFFFF" p-id="2160"></path><path d="M463.587 525.559c0 30.407 35.506 45.998 70.237 45.998 34.731 0 64.652-1.938 64.652-32.345s-37.273-68.71-72.004-68.71c-34.731 0.001-62.885 24.651-62.885 55.057z" fill="#896B36" p-id="2161"></path><path d="M588.53 522.15c4.981 24.177 34.98 30.919 61.825 25.388 26.845-5.531 49.655-11.837 44.674-36.014-4.981-24.177-40.067-48.696-66.912-43.165-26.844 5.531-44.568 29.614-39.587 53.791zM360.42 530.743c0 22.805 23.314 34.498 46.118 34.498s42.451-1.453 42.451-24.258-24.474-51.531-47.279-51.531c-22.803 0-41.29 18.487-41.29 41.291z" fill="#95804C" p-id="2162"></path></svg>