<?xml version="1.0" standalone="no"?><!DOCTYPE svg PUBLIC "-//W3C//DTD SVG 1.1//EN" "http://www.w3.org/Graphics/SVG/1.1/DTD/svg11.dtd"><svg t="1582352794007" class="icon" viewBox="0 0 1024 1024" version="1.1" xmlns="http://www.w3.org/2000/svg" p-id="3856" xmlns:xlink="http://www.w3.org/1999/xlink" width="24" height="24"><defs><style type="text/css"></style></defs><path d="M849.018 349.352c0 42.066-43.006 63.637-85.072 63.637s-78.308-2.681-78.308-44.747 45.146-95.057 87.212-95.057 76.168 34.101 76.168 76.167z" fill="#18944A" p-id="3857"></path><path d="M153.778 485.63c-40.82 48.862-64.519 106.65-64.519 168.636 0 175.22 188.668 317.264 421.402 317.264s421.402-142.044 421.402-317.264c0-61.986-23.698-119.774-64.519-168.636 0 0-175.387 49.609-365.243 49.609-167.284 0.001-348.523-49.609-348.523-49.609z" fill="#87AA9A" p-id="3858"></path><path d="M499.888 739.926c-162.914 0-308.626-61.206-405.689-130.635a241.778 241.778 0 0 0-4.94 48.566c0 45.624 12.798 88.997 35.828 128.201 96.192 59.573 230.974 96.609 380.187 96.609 158.163 0 300.112-41.611 397.073-107.568 19.17-36.27 29.715-75.829 29.715-117.243 0-21.368-2.818-42.237-8.181-62.414-96.494 77.357-250.491 144.484-423.993 144.484z" fill="#CACCCB" p-id="3859"></path><path d="M140.013 515.938a370.382 111.769 0 1 0 740.764 0 370.382 111.769 0 1 0-740.764 0Z" fill="#CACCCB" p-id="3860"></path><path d="M684.409 469.165c0 14.453-14.776 21.864-29.229 21.864s-26.905-0.921-26.905-15.374c0-14.453 15.511-32.66 29.964-32.66 14.453 0.001 26.17 11.717 26.17 26.17zM623.362 461.984c0 14.453-14.776 21.864-29.229 21.864s-26.905-0.921-26.905-15.374 15.511-32.66 29.964-32.66 26.17 11.716 26.17 26.17zM298.948 487.574c0 14.453-14.776 21.864-29.229 21.864s-26.905-0.921-26.905-15.374c0-14.453 15.511-32.66 29.964-32.66 14.453 0.001 26.17 11.717 26.17 26.17z" fill="#DBDBDB" p-id="3861"></path><path d="M299.634 503.512c0 14.453-14.776 21.864-29.229 21.864s-26.905-0.921-26.905-15.374c0-14.453 15.511-32.66 29.964-32.66s26.17 11.717 26.17 26.17z" fill="#FFFFFF" p-id="3862"></path><path d="M328.903 555.349c0 14.453-14.776 21.864-29.229 21.864s-26.905-0.921-26.905-15.374 15.511-32.66 29.964-32.66 26.17 11.717 26.17 26.17zM253.493 524.826c0 14.453-14.776 21.864-29.229 21.864s-26.905-0.921-26.905-15.374c0-14.453 15.511-32.66 29.964-32.66s26.17 11.716 26.17 26.17zM646.23 546.371c0 14.453 14.776 21.864 29.229 21.864s26.905-0.921 26.905-15.374-15.511-32.66-29.964-32.66-26.17 11.717-26.17 26.17zM645.107 557.987c0 14.453-14.776 21.864-29.229 21.864s-26.905-0.921-26.905-15.374 15.511-32.66 29.964-32.66c14.454 0 26.17 11.717 26.17 26.17zM415.086 537.394c0 14.453-14.776 21.864-29.229 21.864s-26.905-0.921-26.905-15.374 15.511-32.66 29.964-32.66 26.17 11.717 26.17 26.17z" fill="#DBDBDB" p-id="3863"></path><path d="M565.806 502.11c0 14.453 14.776 21.864 29.229 21.864s26.905-0.921 26.905-15.374c0-14.453-15.511-32.66-29.964-32.66-14.454 0-26.17 11.717-26.17 26.17zM421.726 460.42c0 14.453-14.776 21.864-29.229 21.864s-26.905-0.921-26.905-15.374 15.511-32.66 29.964-32.66c14.454 0 26.17 11.717 26.17 26.17z" fill="#FFFFFF" p-id="3864"></path><path d="M467.155 453.006c0 14.453-14.776 21.864-29.229 21.864s-26.905-0.921-26.905-15.374c0-14.453 15.511-32.66 29.964-32.66 14.454 0 26.17 11.717 26.17 26.17zM298.858 462.849c0 14.453 14.776 21.864 29.229 21.864s26.905-0.921 26.905-15.374-15.511-32.66-29.964-32.66-26.17 11.717-26.17 26.17z" fill="#DBDBDB" p-id="3865"></path><path d="M476.663 569.531c0 14.453-14.776 21.864-29.229 21.864s-26.905-0.921-26.905-15.374 15.511-32.66 29.964-32.66 26.17 11.717 26.17 26.17zM482.429 457.99c0 14.453 14.776 21.864 29.229 21.864s26.905-0.921 26.905-15.374-15.511-32.66-29.964-32.66-26.17 11.717-26.17 26.17z" fill="#FFFFFF" p-id="3866"></path><path d="M540.481 524.192c0 14.453-14.776 21.864-29.229 21.864s-26.905-0.921-26.905-15.374 15.511-32.66 29.964-32.66c14.453 0.001 26.17 11.717 26.17 26.17z" fill="#DBDBDB" p-id="3867"></path><path d="M488.611 466.393c0 14.453-14.776 21.864-29.229 21.864s-26.905-0.921-26.905-15.374 15.511-32.66 29.964-32.66 26.17 11.716 26.17 26.17zM815.479 490.711c0 14.453-14.776 21.864-29.229 21.864s-26.905-0.921-26.905-15.374c0-14.453 15.511-32.66 29.964-32.66s26.17 11.717 26.17 26.17z" fill="#FFFFFF" p-id="3868"></path><path d="M739.084 474.31c0 14.453-14.776 21.864-29.229 21.864s-26.905-0.921-26.905-15.374c0-14.453 15.511-32.66 29.964-32.66s26.17 11.717 26.17 26.17z" fill="#DBDBDB" p-id="3869"></path><path d="M706.114 503.644c0 14.453-14.776 21.864-29.229 21.864s-26.905-0.921-26.905-15.374 15.511-32.66 29.964-32.66 26.17 11.716 26.17 26.17zM768.255 553.785c0 14.453-14.776 21.864-29.229 21.864s-26.905-0.921-26.905-15.374 15.511-32.66 29.964-32.66 26.17 11.717 26.17 26.17z" fill="#DBDBDB" p-id="3870"></path><path d="M828.117 521.92c0 14.453-14.776 21.864-29.229 21.864s-26.905-0.921-26.905-15.374 15.511-32.66 29.964-32.66 26.17 11.717 26.17 26.17zM320.719 553.308c0 14.453 14.776 21.864 29.229 21.864s26.905-0.921 26.905-15.374-15.511-32.66-29.964-32.66-26.17 11.717-26.17 26.17z" fill="#FFFFFF" p-id="3871"></path><path d="M389.463 501.741c0 20.428-20.149 36.988-45.004 36.988-24.855 0-45.004-16.56-45.004-36.988 0 0-23.596-93.435-13.678-161.364 2.961-20.282 33.827-59.777 58.682-59.777 42.152-4.076 58.032 38.079 60.335 58.419 6.612 58.418-15.331 162.722-15.331 162.722zM733.463 527.771c0 14.889-20.149 26.958-45.004 26.958-24.855 0-45.004-12.07-45.004-26.958 0 0-23.596-68.099-13.678-117.608 2.961-14.783 33.827-43.568 58.682-43.568 42.152-2.971 58.032 27.753 60.335 42.578 6.612 42.578-15.331 118.598-15.331 118.598zM591.74 494.278c0 30.073-24.379 54.451-54.451 54.451-30.073 0-54.451-24.379-54.451-54.451 0 0-28.549-137.549-16.549-237.549 3.583-29.858 40.927-88 71-88 51-6 70.215 56.057 73 86 8 86.001-18.549 239.549-18.549 239.549z" fill="#66A04E" p-id="3872"></path><path d="M351.703 514.285c0 14.453-14.776 21.864-29.229 21.864s-26.905-0.921-26.905-15.374c0-14.453 15.511-32.66 29.964-32.66s26.17 11.717 26.17 26.17z" fill="#DBDBDB" p-id="3873"></path><path d="M357.948 488.799c0 14.453 14.776 21.864 29.229 21.864s26.905-0.921 26.905-15.374c0-14.453-15.511-32.66-29.964-32.66s-26.17 11.717-26.17 26.17z" fill="#FFFFFF" p-id="3874"></path><path d="M507.769 521.4c0 22.276-28.464 33.699-56.306 33.699s-51.828-1.42-51.828-23.696 29.88-50.338 57.722-50.338 50.412 18.058 50.412 40.335z" fill="#DBDBDB" p-id="3875"></path><path d="M664.289 532.24c0 14.453-30.418 21.864-60.171 21.864s-55.386-0.921-55.386-15.374c0-14.453 31.931-32.66 61.684-32.66s53.873 11.716 53.873 26.17z" fill="#FFFFFF" p-id="3876"></path><path d="M568.725 567.411c0 16.86-23.199 25.506-45.892 25.506s-42.242-1.075-42.242-17.935 24.354-38.099 47.046-38.099 41.088 13.668 41.088 30.528zM714.229 505.962c0 14.453 14.776 21.864 29.229 21.864s26.905-0.921 26.905-15.374c0-14.453-15.511-32.66-29.964-32.66-14.454 0-26.17 11.717-26.17 26.17zM708.935 538.409c0 17.496-28.464 26.468-56.306 26.468s-51.828-1.115-51.828-18.611c0-17.496 29.88-39.536 57.722-39.536 27.842 0 50.412 14.183 50.412 31.679z" fill="#DBDBDB" p-id="3877"></path><path d="M712.155 564.213c-1.679 14.355-17.216 20-31.571 18.32-14.355-1.679-26.616-4.041-24.937-18.396 1.679-14.355 19.2-30.636 33.556-28.957 14.355 1.68 24.631 14.678 22.952 29.033z" fill="#FFFFFF" p-id="3878"></path><path d="M461.85 108.601c42.05 1.163 62.423 44.749 61.26 86.799-1.163 42.05-4.845 78.204-46.895 77.041s-93.773-47.757-92.61-89.807 36.195-75.196 78.245-74.033z" fill="#18944A" p-id="3879"></path><path d="M539.773 171.718c-0.386-0.191-0.779-0.37-1.175-0.543 8.354-3.869 14.708-9.274 13.094-14.163-2.019-6.12-12.772-8.073-24.018-4.363-1.121 0.37-2.223 0.822-3.3 1.336-0.831-6.367-3.058-11.189-6.975-11.64-6.402-0.738-12.692 8.2-14.048 19.964a28.201 28.201 0 0 0-0.164 3.938c-1.079 0.2-2.179 0.412-3.293 0.631-11.619 2.285-22.861 7.863-21.617 14.187 1.223 6.219 11.329 9.484 22.714 7.417-3.002 10.509-3.155 21.36 2.5 23.236 6.117 2.03 14.098-5.436 17.828-16.676 0.839-2.529 1.299-5.23 1.443-7.92 1.672 0.886 3.441 1.777 5.262 2.678 10.613 5.254 22.928 7.663 25.787 1.887 2.86-5.774-3.426-14.715-14.038-19.969z" fill="#E28164" p-id="3880"></path><path d="M508.536117 175.7341a6.694 8.455 80.231 1 0 16.664803-2.869227 6.694 8.455 80.231 1 0-16.664803 2.869227Z" fill="#FFFFFF" p-id="3881"></path><path d="M728.211 401.527c0.02-0.303 0.031-0.608 0.036-0.914 4.788 4.403 10.037 7.085 12.791 4.708 3.447-2.976 1.808-10.523-3.66-16.856a19.757 19.757 0 0 0-1.766-1.791c3.93-2.267 6.473-5.027 5.707-7.706-1.253-4.378-8.79-6.061-16.835-3.759-0.887 0.254-1.761 0.58-2.614 0.96-0.423-0.65-0.859-1.31-1.304-1.978-4.639-6.964-11.326-12.788-15.115-10.263-3.727 2.483-3.12 9.963 1.314 16.833-7.671 0.888-14.794 3.729-14.486 7.927 0.333 4.542 7.368 7.727 15.713 7.116 1.878-0.138 3.765-0.569 5.559-1.204a153.552 153.552 0 0 0-0.322 4.16c-0.553 8.349 1.212 17.039 5.755 17.34 4.543 0.3 8.675-6.224 9.227-14.573z" fill="#E28164" p-id="3882"></path><path d="M717.165143 382.207042a5.974 4.73 57.675 1 0 6.388847 10.096402 5.974 4.73 57.675 1 0-6.388847-10.096402Z" fill="#FFFFFF" p-id="3883"></path><path d="M344.135 298.386m-6.75 0a6.75 6.75 0 1 0 13.5 0 6.75 6.75 0 1 0-13.5 0Z" fill="#18944A" p-id="3884"></path><path d="M335.886 339.634m-6.75 0a6.75 6.75 0 1 0 13.5 0 6.75 6.75 0 1 0-13.5 0Z" fill="#18944A" p-id="3885"></path><path d="M307.387 328.385m-6.75 0a6.75 6.75 0 1 0 13.5 0 6.75 6.75 0 1 0-13.5 0Z" fill="#18944A" p-id="3886"></path><path d="M299.138 378.632m-6.328 0a6.328 6.328 0 1 0 12.656 0 6.328 6.328 0 1 0-12.656 0Z" fill="#18944A" p-id="3887"></path><path d="M686.118 383.882m-6.75 0a6.75 6.75 0 1 0 13.5 0 6.75 6.75 0 1 0-13.5 0Z" fill="#18944A" p-id="3888"></path><path d="M677.869 425.13m-6.75 0a6.75 6.75 0 1 0 13.5 0 6.75 6.75 0 1 0-13.5 0Z" fill="#18944A" p-id="3889"></path><path d="M577.374 211.391m-6.75 0a6.75 6.75 0 1 0 13.5 0 6.75 6.75 0 1 0-13.5 0Z" fill="#18944A" p-id="3890"></path><path d="M563.874 271.388m-6.75 0a6.75 6.75 0 1 0 13.5 0 6.75 6.75 0 1 0-13.5 0Z" fill="#18944A" p-id="3891"></path><path d="M590.873 272.888m-6.75 0a6.75 6.75 0 1 0 13.5 0 6.75 6.75 0 1 0-13.5 0Z" fill="#18944A" p-id="3892"></path><path d="M571.374 332.885m-6.75 0a6.75 6.75 0 1 0 13.5 0 6.75 6.75 0 1 0-13.5 0Z" fill="#18944A" p-id="3893"></path><path d="M541.375 230.89m-6.75 0a6.75 6.75 0 1 0 13.5 0 6.75 6.75 0 1 0-13.5 0Z" fill="#18944A" p-id="3894"></path><path d="M649.37 413.881m-6.75 0a6.75 6.75 0 1 0 13.5 0 6.75 6.75 0 1 0-13.5 0Z" fill="#18944A" p-id="3895"></path><path d="M661.698 469.378m-6.328 0a6.328 6.328 0 1 0 12.656 0 6.328 6.328 0 1 0-12.656 0Z" fill="#18944A" p-id="3896"></path></svg>