<?xml version="1.0" standalone="no"?><!DOCTYPE svg PUBLIC "-//W3C//DTD SVG 1.1//EN" "http://www.w3.org/Graphics/SVG/1.1/DTD/svg11.dtd"><svg t="1582352780119" class="icon" viewBox="0 0 1024 1024" version="1.1" xmlns="http://www.w3.org/2000/svg" p-id="3389" xmlns:xlink="http://www.w3.org/1999/xlink" width="24" height="24"><defs><style type="text/css"></style></defs><path d="M808.759 695.959l-58.135-191.504H277.943l-58.135 191.504s-13.679 51.296 0 106.011c11.682 46.728 88.629 138.378 110.849 164.144a20.74 20.74 0 0 0 4.02 4.633 503.825 503.825 0 0 0 1.989 2.265l1.099-0.092a19.27 19.27 0 0 0 9.578 2.544h333.88c3.495 0 6.781-0.937 9.641-2.582l1.555 0.13s102.661-116.326 116.34-171.041c13.679-54.716 0-106.012 0-106.012z" fill="#725422" p-id="3390"></path><path d="M219.935 802.444h588.696c0.04-0.156 0.089-0.318 0.128-0.474 13.679-54.716 0-106.011 0-106.011l-58.135-191.504H277.943l-58.135 191.504s-13.679 51.296 0 106.011c0.039 0.156 0.087 0.317 0.127 0.474zM232.949 833.141c6.667 12.345 15.12 25.689 24.319 39.069h514.17c9.158-13.381 17.573-26.724 24.215-39.069H232.949zM279.485 902.907c11.788 15.588 23.466 30.116 33.168 41.86h403.661c9.655-11.744 21.276-26.273 33.008-41.86H279.485z" fill="#CEA76A" p-id="3391"></path><path d="M262.655 494.541a247.443 110.267 0 1 0 494.886 0 247.443 110.267 0 1 0-494.886 0Z" fill="#725422" p-id="3392"></path><path d="M733.508 490.432c0 48.912-100.024 88.563-223.411 88.563-13.049 0-25.837-0.444-38.273-1.295-105.151-7.196-185.138-43.529-185.138-87.269 0-48.912 100.024-88.563 223.411-88.563s223.411 39.652 223.411 88.564z" fill="#3A2C17" p-id="3393"></path><path d="M401.747 488.981c0 20.149-20.599 30.48-40.747 30.48-20.149 0-37.507-1.284-37.507-21.433s21.624-45.53 41.772-45.53 36.482 16.334 36.482 36.483zM637.874 477.82c0 20.149 20.599 30.48 40.747 30.48 20.149 0 37.507-1.284 37.507-21.433s-21.624-45.53-41.772-45.53-36.482 16.334-36.482 36.483zM547.192 455.498c0 20.149 20.599 30.48 40.747 30.48 20.149 0 37.507-1.284 37.507-21.433s-21.624-45.53-41.772-45.53c-20.149 0.001-36.482 16.334-36.482 36.483z" fill="#896B36" p-id="3394"></path><path d="M498.963 531.262s-9.309-130.328-88.437-209.456-95.419-79.128-118.692-62.837c-23.273 16.291-12.44 48.832 9.309 60.51 21.797 11.703 81.455 48.873 107.055 83.783 25.6 34.909 51.2 72.146 55.855 93.092 4.655 20.944 20.946 51.199 34.91 34.908z" fill="#66A04E" p-id="3395"></path><path d="M523.155 494.146s102.244-81.353 122.785-191.355 11.332-123.441-15.262-133.429-45.879 12.685-44.651 41.885c1.039 24.718 5.731 94.819-8.594 135.671-14.325 40.851-30.569 83.018-45.216 98.698-14.646 15.679-30.394 46.22-9.062 48.53zM492.907 545.642s-18.217-91.229-98.491-139.52-95.621-46.718-116.363-32.953c-20.742 13.764-3.54 30.287 13.156 41.875s80.274 26.68 106.92 48.884 53.461 46.054 59.364 60.41c5.901 14.356 23.441 34.169 35.414 21.304z" fill="#159047" p-id="3396"></path><path d="M526.877 537.753s-48.873-195.493-86.11-272.293S301.13 90.913 382.585 62.986s93.092 74.473 102.401 111.71 58.182 176.874 58.182 249.02 13.964 104.728 9.309 114.037c-4.654 9.31-25.6 9.31-25.6 0z" fill="#159047" p-id="3397"></path><path d="M696.769 209.605c-44.27 32.73-100.074 132.656-128.001 179.202-27.927 46.546-34.909 88.437-34.909 97.746s2.327 39.564 2.327 39.564 9.309 16.291 16.291 0c6.982-16.291 60.51-128.001 86.11-153.601 25.6-25.6 73.181-75.433 95.419-81.455 70.864-19.19 28.475-130.038-37.237-81.456z" fill="#66A04E" p-id="3398"></path><path d="M753.969 388.643s-50.078 14.483-88.328 31.439-101.092 74.38-106.292 80.027c-5.2 5.647-21.08 24.94-21.08 24.94s-5.017 13.642 7.145 6.58c12.162-7.062 98.041-53.209 123.57-58.398 25.529-5.19 73.108-14.157 87.352-10.874 26.453 6.096 46.918-59.636-2.367-73.714zM515.954 545.417s-55.439-74.707-37.405-166.635 29.495-102.254 53.617-108.404c24.122-6.15 24.837 17.691 22.231 37.846-2.606 20.155-34.062 77.431-35.468 112.087-1.407 34.656-1.707 70.541 4.981 84.55s9.617 40.306-7.956 40.556z" fill="#66A04E" p-id="3399"></path><path d="M479.753 532.696c0 20.149 20.599 30.48 40.747 30.48 20.149 0 37.507-1.284 37.507-21.433s-21.624-45.53-41.772-45.53-36.482 16.334-36.482 36.483z" fill="#896B36" p-id="3400"></path><path d="M574.252 538.026c4.066 19.734 28.244 25.301 49.855 20.848 21.611-4.453 39.97-9.546 35.904-29.281-4.066-19.734-32.381-39.815-53.991-35.362-21.611 4.454-35.834 24.061-31.768 43.795zM405.343 540.603c0 20.149 20.599 30.48 40.747 30.48s37.507-1.284 37.507-21.433-21.624-45.53-41.772-45.53-36.482 16.334-36.482 36.483z" fill="#95804C" p-id="3401"></path></svg>