<?xml version="1.0" standalone="no"?><!DOCTYPE svg PUBLIC "-//W3C//DTD SVG 1.1//EN" "http://www.w3.org/Graphics/SVG/1.1/DTD/svg11.dtd"><svg t="1582352742802" class="icon" viewBox="0 0 1024 1024" version="1.1" xmlns="http://www.w3.org/2000/svg" p-id="2299" xmlns:xlink="http://www.w3.org/1999/xlink" width="24" height="24"><defs><style type="text/css"></style></defs><path d="M155.828 405.831c-40.82 48.862-64.519 106.65-64.519 168.636 0 175.22 188.668 317.264 421.402 317.264s421.402-142.044 421.402-317.264c0-61.986-23.698-119.774-64.519-168.636 0 0-175.387 49.609-365.243 49.609-167.284 0-348.523-49.609-348.523-49.609z" fill="#F9F847" p-id="2300"></path><path d="M501.938 660.127c-162.914 0-308.626-61.206-405.689-130.635a241.778 241.778 0 0 0-4.94 48.566c0 45.624 12.798 88.997 35.828 128.201 96.192 59.573 230.974 96.609 380.187 96.609 158.163 0 300.112-41.611 397.073-107.568 19.17-36.27 29.715-75.829 29.715-117.243 0-21.368-2.818-42.237-8.181-62.414C829.437 593 675.44 660.127 501.938 660.127z" fill="#FFD629" p-id="2301"></path><path d="M142.063 436.138a370.382 111.769 0 1 0 740.764 0 370.382 111.769 0 1 0-740.764 0Z" fill="#FFD629" p-id="2302"></path><path d="M183.365 432.547a334.41 89.325 0 1 0 668.82 0 334.41 89.325 0 1 0-668.82 0Z" fill="#3A2C17" p-id="2303"></path><path d="M686.459 389.366c0 14.453-14.776 21.864-29.229 21.864s-26.905-0.921-26.905-15.374 15.511-32.66 29.964-32.66 26.17 11.717 26.17 26.17zM625.412 382.184c0 14.453-14.776 21.864-29.229 21.864s-26.905-0.921-26.905-15.374c0-14.453 15.511-32.66 29.964-32.66s26.17 11.717 26.17 26.17z" fill="#DBDBDB" p-id="2304"></path><path d="M643.242 457.441c0 7.211-10.5 13.057-23.453 13.057s-23.454-5.846-23.454-13.057V281.768c0-7.211 10.5-13.057 23.454-13.057 12.953 0 23.453 5.846 23.453 13.057v175.673z" fill="#C1A174" p-id="2305"></path><path d="M495.968 617.198c14.286 10.7 16.471 31.921 4.879 47.398-11.592 15.477-37.506 29.112-54.03 21.223-22.038-10.522-9.297-44.494 2.294-59.971 11.592-15.477 32.571-19.35 46.857-8.65zM532.13 733.121c7.061-16.393 27.182-23.481 44.941-15.832 17.759 7.649 37.078 29.655 33.273 47.566-5.075 23.888-41.084 19.448-58.843 11.799-17.76-7.65-26.432-27.14-19.371-43.533zM277.465 739.074c-17.698 2.319-30.008 19.741-27.496 38.914 2.512 19.173 18.41 43.764 36.679 44.992 24.366 1.638 29.922-34.217 27.41-53.389-2.511-19.173-18.895-32.836-36.593-30.517z" fill="#18944A" p-id="2306"></path><path d="M332.686 521.115c12.408-7.388 28.955-2.48 36.958 10.963 8.003 13.442 10.213 37.03-0.782 46.958-14.665 13.241-36.148-6.763-44.152-20.205-8.003-13.443-4.432-30.329 7.976-37.716z" fill="#97D87E" p-id="2307"></path><path d="M205.526 813.771c5.34 4.871 13.622 4.662 18.708-0.552 111.45-114.247 142.804-180.631 170.467-239.2 18.716-39.625 34.879-73.846 74.037-116.778 5.012-5.495 4.62-14.012-0.875-19.024-5.495-5.012-14.012-4.62-19.024 0.874-41.884 45.92-59.666 83.568-78.491 123.426-26.761 56.658-57.092 120.877-165.393 231.896-5.193 5.323-5.088 13.849 0.236 19.042 0.11 0.108 0.222 0.213 0.335 0.316z" fill="#17723B" p-id="2308"></path><path d="M314.64 630.503c-6.45 0-12.148-4.648-13.261-11.22-5.912-34.921 1.095-64.361 21.419-90.004 16.98-21.423 40.739-36.746 61.702-50.265 30.213-19.485 48.558-32.607 48.558-50.505 0-7.437 6.029-13.466 13.466-13.466 7.437 0 13.466 6.029 13.466 13.466 0 15.781-6.733 30.012-20.583 43.507-11.031 10.748-25.253 19.92-40.31 29.631-20.147 12.994-40.979 26.428-55.192 44.361-15.524 19.586-20.599 41.442-15.971 68.779 1.241 7.333-3.697 14.284-11.03 15.526-0.76 0.128-1.517 0.19-2.264 0.19z" fill="#17723B" p-id="2309"></path><path d="M572.02 840.827c-5.116 0-10.006-2.931-12.264-7.89-66.129-145.259-73.127-218.342-79.301-282.82-4.177-43.623-7.785-81.297-30.073-134.959-2.853-6.868 0.402-14.749 7.271-17.602 6.87-2.852 14.748 0.402 17.602 7.27 23.841 57.399 27.809 98.845 32.011 142.723 5.973 62.375 12.742 133.073 77.004 274.229 3.081 6.768 0.092 14.754-6.677 17.836a13.433 13.433 0 0 1-5.573 1.213z" fill="#17723B" p-id="2310"></path><path d="M300.998 407.775c0 14.453-14.776 21.864-29.229 21.864s-26.905-0.921-26.905-15.374 15.511-32.66 29.964-32.66 26.17 11.717 26.17 26.17z" fill="#DBDBDB" p-id="2311"></path><path d="M301.684 423.712c0 14.453-14.776 21.864-29.229 21.864s-26.905-0.921-26.905-15.374c0-14.453 15.511-32.66 29.964-32.66s26.17 11.717 26.17 26.17z" fill="#FFFFFF" p-id="2312"></path><path d="M353.753 434.485c0 14.453-14.776 21.864-29.229 21.864s-26.905-0.921-26.905-15.374c0-14.453 15.511-32.66 29.964-32.66s26.17 11.717 26.17 26.17z" fill="#DBDBDB" p-id="2313"></path><path d="M330.953 475.549c0 14.453-14.776 21.864-29.229 21.864s-26.905-0.921-26.905-15.374c0-14.453 15.511-32.66 29.964-32.66s26.17 11.717 26.17 26.17zM255.543 445.026c0 14.453-14.776 21.864-29.229 21.864s-26.905-0.921-26.905-15.374c0-14.453 15.511-32.66 29.964-32.66s26.17 11.717 26.17 26.17zM687.78 430.662c0 14.453 14.776 21.864 29.229 21.864s26.905-0.921 26.905-15.374-15.511-32.66-29.964-32.66-26.17 11.717-26.17 26.17z" fill="#DBDBDB" p-id="2314"></path><path d="M648.28 466.572c0 14.453 14.776 21.864 29.229 21.864s26.905-0.921 26.905-15.374c0-14.453-15.511-32.66-29.964-32.66s-26.17 11.716-26.17 26.17zM566.161 500.686c0 14.453-14.776 21.864-29.229 21.864s-26.905-0.921-26.905-15.374 15.511-32.66 29.964-32.66 26.17 11.717 26.17 26.17zM417.136 457.594c0 14.453-14.776 21.864-29.229 21.864s-26.905-0.921-26.905-15.374c0-14.453 15.511-32.66 29.964-32.66s26.17 11.717 26.17 26.17z" fill="#DBDBDB" p-id="2315"></path><path d="M529.206 376.62c0 14.453 14.776 21.864 29.229 21.864s26.905-0.921 26.905-15.374c0-14.453-15.511-32.66-29.964-32.66s-26.17 11.717-26.17 26.17zM423.776 380.62c0 14.453-14.776 21.864-29.229 21.864s-26.905-0.921-26.905-15.374c0-14.453 15.511-32.66 29.964-32.66 14.454 0.001 26.17 11.717 26.17 26.17z" fill="#FFFFFF" p-id="2316"></path><path d="M469.205 373.206c0 14.453-14.776 21.864-29.229 21.864s-26.905-0.921-26.905-15.374 15.511-32.66 29.964-32.66c14.454 0.001 26.17 11.717 26.17 26.17zM293.409 408.548c0 14.453 14.776 21.864 29.229 21.864s26.905-0.921 26.905-15.374c0-14.453-15.511-32.66-29.964-32.66s-26.17 11.717-26.17 26.17z" fill="#DBDBDB" p-id="2317"></path><path d="M529.71 414.735c0 14.453-14.776 21.864-29.229 21.864s-26.905-0.921-26.905-15.374c0-14.453 15.511-32.66 29.964-32.66s26.17 11.717 26.17 26.17z" fill="#FFFFFF" p-id="2318"></path><path d="M484.48 378.19c0 14.453 14.776 21.864 29.229 21.864s26.905-0.921 26.905-15.374c0-14.453-15.511-32.66-29.964-32.66-14.454 0.001-26.17 11.717-26.17 26.17zM492.547 495.299c0 14.453-14.776 21.864-29.229 21.864s-26.905-0.921-26.905-15.374c0-14.453 15.511-32.66 29.964-32.66s26.17 11.717 26.17 26.17z" fill="#FFFFFF" p-id="2319"></path><path d="M586.029 418.894c0 14.453-14.776 21.864-29.229 21.864s-26.905-0.921-26.905-15.374c0-14.453 15.511-32.66 29.964-32.66s26.17 11.717 26.17 26.17zM463.819 441.435c0 14.453-14.776 21.864-29.229 21.864s-26.905-0.921-26.905-15.374c0-14.453 15.511-32.66 29.964-32.66s26.17 11.717 26.17 26.17z" fill="#DBDBDB" p-id="2320"></path><path d="M327 397c0 14.453 14.776 21.864 29.229 21.864s26.905-0.921 26.905-15.374c0-14.453-15.511-32.66-29.964-32.66S327 382.547 327 397zM490.661 386.593c0 14.453-14.776 21.864-29.229 21.864s-26.905-0.921-26.905-15.374c0-14.453 15.511-32.66 29.964-32.66s26.17 11.717 26.17 26.17zM817.529 410.912c0 14.453-14.776 21.864-29.229 21.864s-26.905-0.921-26.905-15.374 15.511-32.66 29.964-32.66 26.17 11.716 26.17 26.17z" fill="#FFFFFF" p-id="2321"></path><path d="M741.134 394.51c0 14.453-14.776 21.864-29.229 21.864S685 415.453 685 401s15.511-32.66 29.964-32.66 26.17 11.717 26.17 26.17z" fill="#DBDBDB" p-id="2322"></path><path d="M606.916 452.44c0 14.453-14.776 21.864-29.229 21.864s-26.905-0.921-26.905-15.374c0-14.453 15.511-32.66 29.964-32.66s26.17 11.717 26.17 26.17z" fill="#FFFFFF" p-id="2323"></path><path d="M658.985 463.213c0 14.453-14.776 21.864-29.229 21.864s-26.905-0.921-26.905-15.374 15.511-32.66 29.964-32.66 26.17 11.717 26.17 26.17zM560.775 473.754c0 14.453-14.776 21.864-29.229 21.864s-26.905-0.921-26.905-15.374c0-14.453 15.511-32.66 29.964-32.66s26.17 11.716 26.17 26.17zM708.164 423.844c0 14.453-14.776 21.864-29.229 21.864s-26.905-0.921-26.905-15.374c0-14.453 15.511-32.66 29.964-32.66s26.17 11.717 26.17 26.17z" fill="#DBDBDB" p-id="2324"></path><path d="M714.205 484.414c-1.679 14.355-17.216 20-31.571 18.32s-26.616-4.041-24.937-18.396 19.2-30.637 33.556-28.957c14.355 1.679 24.631 14.677 22.952 29.033z" fill="#FFFFFF" p-id="2325"></path><path d="M770.305 473.986c0 14.453-14.776 21.864-29.229 21.864s-26.905-0.921-26.905-15.374c0-14.453 15.511-32.66 29.964-32.66s26.17 11.717 26.17 26.17z" fill="#DBDBDB" p-id="2326"></path><path d="M784.669 420.121c0 14.453-14.776 21.864-29.229 21.864s-26.905-0.921-26.905-15.374c0-14.453 15.511-32.66 29.964-32.66s26.17 11.717 26.17 26.17z" fill="#FFFFFF" p-id="2327"></path><path d="M442.934 428.509c0 17.849-15.675 32.319-35.012 32.319s-45.785-12.568-49.376-30.523c-4.789-23.947 30.039-34.114 49.376-34.114 19.336-0.001 35.012 14.469 35.012 32.318zM475.28 449.008c8.945-20.255 33.986-28.82 55.929-19.129 21.943 9.691 45.658 37.209 40.735 59.384-6.566 29.576-51.186 23.658-73.129 13.967-21.944-9.69-32.481-33.967-23.535-54.222z" fill="#97D87E" p-id="2328"></path><path d="M342.311 623.827c-12.028 13.188-10.198 34.442 4.089 47.472 14.286 13.031 42.297 21.568 57.05 10.722 19.676-14.465 0.795-45.448-13.491-58.479-14.287-13.029-35.619-12.902-47.648 0.285zM324.764 600.731c6.861 16.478-2.049 35.861-19.9 43.293-17.851 7.432-47.099 5.995-57.315-9.2-13.626-20.267 14.619-43.04 32.47-50.472s37.885-0.099 44.745 16.379zM381.887 484.169c0 17.849-15.675 32.319-35.012 32.319s-45.785-12.568-49.376-30.523c-4.789-23.947 30.039-34.114 49.376-34.114 19.337-0.001 35.012 14.469 35.012 32.318z" fill="#18944A" p-id="2329"></path><path d="M514.42 709.629c14.68 10.154 17.663 31.277 6.663 47.18-11 15.903-36.382 30.505-53.191 23.245-22.419-9.684-10.968-44.112 0.032-60.015 10.999-15.903 31.817-20.564 46.496-10.41z" fill="#97D87E" p-id="2330"></path><path d="M395.528 461.864c12.408-7.388 28.955-2.48 36.958 10.963 8.003 13.442 10.213 37.03-0.782 46.958-14.665 13.241-36.148-6.763-44.152-20.205-8.003-13.443-4.432-30.329 7.976-37.716z" fill="#18944A" p-id="2331"></path><path d="M396.479 562.848c-4.189-13.82-19.722-21.345-34.694-16.807-14.972 4.538-32.5 20.477-31.067 35.221 1.912 19.666 31.265 19.364 46.237 14.826 14.972-4.538 23.713-19.42 19.524-33.24z" fill="#97D87E" p-id="2332"></path><path d="M557.122 799.415c12.408-7.388 28.955-2.48 36.958 10.963 8.003 13.442 10.213 37.03-0.782 46.958-14.665 13.241-36.148-6.763-44.152-20.205-8.003-13.442-4.433-30.329 7.976-37.716zM502.617 537.348c12.408-7.388 28.955-2.48 36.958 10.963 8.003 13.442 10.213 37.03-0.782 46.958-14.665 13.241-36.148-6.763-44.152-20.205-8.003-13.442-4.433-30.328 7.976-37.716z" fill="#18944A" p-id="2333"></path><path d="M327.934 675.3c-4.189-13.82-19.722-21.345-34.694-16.806-14.972 4.538-32.5 20.477-31.067 35.221 1.912 19.666 31.265 19.364 46.237 14.826 14.972-4.539 23.713-19.421 19.524-33.241zM524.162 645.077c12.408-7.388 28.955-2.48 36.958 10.963 8.003 13.442 10.213 37.03-0.782 46.958-14.665 13.241-36.148-6.763-44.152-20.205-8.003-13.442-4.432-30.328 7.976-37.716z" fill="#97D87E" p-id="2334"></path><path d="M229.209 783.191c-12.217-11.92-33.023-10.409-46.471 3.374s-23.239 41.029-13.447 55.579c13.06 19.406 44.241 1.37 57.689-12.413 13.448-13.784 14.446-34.62 2.229-46.54zM658.649 577.508c-4.792 12.102 1.951 26.121 15.062 31.313 13.11 5.192 34.417 3.771 41.673-7.439 9.677-14.951-11.208-31.195-24.319-36.387s-27.623 0.411-32.416 12.513zM680.432 663.34c-10.645-7.49-25.853-4.214-33.967 7.319s-11.718 32.58-2.516 42.256c12.272 12.906 32.951-3.599 41.066-15.132s6.062-26.952-4.583-34.443zM766.336 619.949c-1.947 12.87 7.778 25.013 21.72 27.122 13.942 2.109 34.383-4.069 38.931-16.623 6.065-16.744-17.939-27.874-31.881-29.983-13.942-2.11-26.823 6.614-28.77 19.484z" fill="#18944A" p-id="2335"></path><path d="M723.425 455.477c-10.53 0.146-18.938 9.512-18.779 20.92s7.79 26.907 18.412 28.879c14.167 2.629 19.879-18.001 19.721-29.408-0.159-11.408-8.824-20.537-19.354-20.391z" fill="#97D87E" p-id="2336"></path><path d="M804.167 685.443c4.441-2.825 6.314-8.215 4.18-12.187-46.768-87.036-82.042-115.975-113.165-141.509-21.056-17.275-39.24-32.193-57.474-63.136-2.334-3.96-7.93-4.815-12.499-1.908-4.569 2.907-6.382 8.473-4.048 12.434 19.504 33.097 39.509 49.51 60.688 66.885 30.106 24.7 64.23 52.695 109.677 137.273 2.179 4.055 7.712 5.096 12.357 2.324l0.284-0.176zM885.92 518.351c4.008-2.462 5.774-7.526 3.957-12.034-9.657-23.954-25.249-39.573-47.666-47.747-18.728-6.829-39.34-7.28-57.526-7.678-26.211-0.573-42.618-1.724-49.451-12.844-2.839-4.621-8.887-6.066-13.508-3.227s-6.066 8.887-3.227 13.508c6.024 9.805 15.64 16.078 29.397 19.176 10.957 2.467 23.295 2.737 36.358 3.023 17.478 0.383 35.551 0.778 51.228 6.495 17.123 6.244 28.619 17.886 36.179 36.639 2.028 5.03 7.75 7.464 12.78 5.436a9.99 9.99 0 0 0 1.479-0.747z" fill="#17723B" p-id="2337"></path><path d="M696.762 745.491a9.822 9.822 0 0 0 4.608-9.584c-14.361-115.5-37.912-163.58-58.689-206.001-14.057-28.699-26.197-53.485-32.833-95.336-0.849-5.357-5.88-9.01-11.237-8.161a9.82 9.82 0 0 0-8.161 11.237c7.098 44.765 20.453 72.032 34.593 100.9 20.1 41.036 42.881 87.548 56.837 199.785 0.669 5.381 5.575 9.202 10.957 8.533a9.798 9.798 0 0 0 3.925-1.373z" fill="#17723B" p-id="2338"></path><path d="M729.097 441.818c6.814 11.09 22.077 14.097 34.092 6.716 12.015-7.381 23.65-25.287 19.028-37.814-6.166-16.708-31.687-9.73-43.702-2.348-12.015 7.381-16.231 22.355-9.418 33.446zM607.3 465.107c-13.29-9.171-32.118-4.933-42.053 9.465-9.935 14.398-14.166 40.549-2.641 52.448 15.37 15.87 40.835-4.839 50.77-19.237 9.934-14.399 7.214-33.505-6.076-42.676z" fill="#97D87E" p-id="2339"></path><path d="M698.664 551.248c6.814 11.09 22.077 14.097 34.092 6.716 12.015-7.381 23.65-25.287 19.028-37.814-6.166-16.708-31.687-9.73-43.702-2.348-12.016 7.382-16.232 22.356-9.418 33.446zM870.784 486.082c-11.598 5.909-15.81 20.885-9.408 33.449 6.402 12.564 23.324 25.588 36.179 21.977 17.145-4.816 12.221-30.812 5.82-43.376s-20.993-17.959-32.591-12.05zM788.276 453.098c6.814 11.09 22.077 14.097 34.092 6.716 12.015-7.381 23.65-25.287 19.028-37.814-6.166-16.708-31.687-9.73-43.702-2.348s-16.232 22.356-9.418 33.446z" fill="#18944A" p-id="2340"></path><path d="M682.468 641.983c-5.245 11.913 0.965 26.176 13.87 31.858 12.905 5.682 34.251 5.066 41.923-5.862 10.233-14.575-10.024-31.595-22.929-37.278s-27.619-0.63-32.864 11.282z" fill="#97D87E" p-id="2341"></path><path d="M771.285 444.446c-10.53 0.146-18.938 9.512-18.779 20.92s7.79 26.907 18.412 28.879c14.167 2.629 19.879-18.001 19.721-29.408-0.159-11.408-8.824-20.537-19.354-20.391z" fill="#18944A" p-id="2342"></path><path d="M666.864 500.983c-10.53 0.146-18.938 9.512-18.779 20.92 0.159 11.407 7.79 26.907 18.412 28.879 14.167 2.629 19.879-18.001 19.721-29.408-0.159-11.408-8.824-20.537-19.354-20.391z" fill="#97D87E" p-id="2343"></path><path d="M690.21 714.072c-10.53 0.146-18.938 9.513-18.779 20.92s7.79 26.907 18.412 28.879c14.167 2.629 19.879-18.001 19.721-29.408s-8.824-20.537-19.354-20.391zM624.037 530.432c-10.53 0.146-18.938 9.512-18.779 20.92s7.79 26.907 18.412 28.879c14.167 2.629 19.879-18.001 19.721-29.408s-8.824-20.537-19.354-20.391z" fill="#18944A" p-id="2344"></path><path d="M731.832 571.712c-10.53 0.146-18.938 9.513-18.779 20.92s7.79 26.907 18.412 28.879c14.167 2.629 19.879-18.001 19.721-29.408s-8.824-20.538-19.354-20.391zM651.773 605.593c-10.53 0.146-18.938 9.513-18.779 20.92s7.79 26.907 18.412 28.879c14.167 2.629 19.879-18.001 19.721-29.408s-8.824-20.537-19.354-20.391z" fill="#97D87E" p-id="2345"></path><path d="M787.512 662.669c-10.819 6.155-13.959 21.04-7.015 33.245 6.945 12.206 24.061 24.566 36.233 20.64 16.235-5.235 9.889-30.726 2.944-42.931-6.943-12.205-21.343-17.11-32.162-10.954z" fill="#18944A" p-id="2346"></path><path d="M800.102 269.177c0 10.651-8.376 19.285-18.709 19.285H468.957c-10.333 0-18.709-8.634-18.709-19.285V151.539c0-10.651 8.376-19.285 18.709-19.285h312.436c10.333 0 18.709 8.634 18.709 19.285v117.638z" fill="#CA942C" p-id="2347"></path><path d="M268.772 452.509c0 14.453 14.776 21.864 29.229 21.864s26.905-0.921 26.905-15.374-15.511-32.66-29.964-32.66c-14.454 0.001-26.17 11.717-26.17 26.17z" fill="#FFFFFF" p-id="2348"></path><path d="M529.191 235.934c1.132-0.65 2.143-0.977 3.033-0.977 1.375 0 2.063 0.499 2.063 1.493 0 0.23-0.102 0.786-0.303 1.666a21.064 21.064 0 0 1-0.849 2.758c-0.364 0.959-0.77 1.838-1.213 2.643-0.445 0.804-0.91 1.206-1.396 1.206a6.606 6.606 0 0 1-2.002-0.287c-0.607-0.19-1.517-0.478-2.73-0.862-0.163-0.075-0.446-0.133-0.85-0.173a46.277 46.277 0 0 0-2.064-0.115c-0.97-0.038-2.286-0.075-3.944-0.115a288.702 288.702 0 0 0-6.371-0.057c-2.752 0-4.957 0.02-6.614 0.057a267.3 267.3 0 0 0-3.944 0.115c-0.971 0.039-1.68 0.115-2.124 0.23a6.467 6.467 0 0 0-1.153 0.402c-1.052 0.537-2.306 0.804-3.762 0.804-0.485 0-0.992-0.267-1.517-0.804a16.931 16.931 0 0 1-1.517-1.781 9.773 9.773 0 0 1-1.153-1.953c-0.284-0.65-0.425-1.092-0.425-1.322 0-0.612 0.404-1.321 1.213-2.126 0.808-0.804 1.214-1.934 1.214-3.39 0.08-1.225 0.14-2.718 0.182-4.481 0.04-1.761 0.061-3.83 0.061-6.205v-16.201c0-5.591-0.203-10.054-0.607-13.387-0.405-3.332-0.83-5.936-1.274-7.814-0.445-1.876-0.87-3.178-1.274-3.907-0.405-0.727-0.607-1.322-0.607-1.781 0-0.383 0.383-0.957 1.153-1.724a21.891 21.891 0 0 1 2.67-2.241 26.326 26.326 0 0 1 3.034-1.896c1.011-0.535 1.718-0.804 2.124-0.804 0.729 0 1.617 0.249 2.67 0.747 1.051 0.499 1.578 1.169 1.578 2.011 0 0.69-0.163 1.533-0.485 2.528a9.966 9.966 0 0 0-0.486 3.103c0 3.447-0.121 6.857-0.364 10.226a140.408 140.408 0 0 0-0.243 15.915c0.08 1.878 0.121 4.079 0.121 6.607 0 2.375-0.082 4.808-0.243 7.297-0.163 2.49-0.324 4.808-0.485 6.952a234.38 234.38 0 0 1-0.486 5.63c-0.163 1.609-0.242 2.758-0.242 3.447 0 0.614 0.485 0.92 1.456 0.92 0.404 0 0.828-0.075 1.274-0.23 0.444-0.153 0.95-0.23 1.517-0.23l21.966-0.804c1.132-0.074 2.264-0.438 3.398-1.09zM550.672 201.864a31.457 31.457 0 0 1 5.461-10.686c2.506-3.217 5.722-5.841 9.648-7.871 3.923-2.029 8.677-3.045 14.26-3.045 3.235 0 6.31 0.594 9.223 1.781 2.913 1.189 5.462 3.027 7.646 5.516 2.185 2.49 3.923 5.67 5.219 9.537 1.293 3.869 1.941 8.446 1.941 13.731 0 5.056-0.83 9.537-2.487 13.444-1.66 3.907-3.865 7.182-6.615 9.825a28.413 28.413 0 0 1-9.405 6.033 29.842 29.842 0 0 1-10.982 2.068c-2.995 0-6.028-0.612-9.102-1.838-3.076-1.224-5.826-3.045-8.252-5.458-2.428-2.413-4.411-5.419-5.947-9.02-1.538-3.6-2.306-7.774-2.306-12.525-0.002-3.753 0.563-7.585 1.698-11.492z m7.887 15.628c0.565 2.606 1.596 5.191 3.095 7.756 1.497 2.567 3.538 4.808 6.129 6.722 2.588 1.916 5.905 2.873 9.951 2.873 1.699 0 3.599-0.306 5.704-0.92 2.103-0.612 4.106-1.761 6.007-3.447 1.9-1.684 3.478-4.002 4.733-6.952 1.253-2.948 1.881-6.722 1.881-11.318 0-4.749-0.527-8.733-1.577-11.95-1.053-3.217-2.428-5.803-4.127-7.756-1.699-1.954-3.641-3.37-5.825-4.252a18.033 18.033 0 0 0-6.796-1.322c-3.155 0-5.989 0.672-8.495 2.011a19.293 19.293 0 0 0-6.31 5.343c-1.699 2.222-2.995 4.826-3.884 7.814-0.892 2.987-1.335 6.129-1.335 9.422 0 1.379 0.283 3.373 0.849 5.976zM607.347 180.205a18.757 18.757 0 0 1 3.094-2.24 28.725 28.725 0 0 1 3.398-1.724c1.092-0.46 1.839-0.69 2.245-0.69 1.375 0 2.064 0.804 2.064 2.413 0 1.226 1.01 3.217 3.033 5.975 2.022 2.758 4.611 5.917 7.768 9.48a410.07 410.07 0 0 0 10.436 11.318c3.802 3.984 7.504 7.853 11.104 11.605 3.6 3.754 6.857 7.182 9.77 10.284 2.912 3.103 5.055 5.573 6.431 7.412 1.293-0.919 2.892-2.393 4.794-4.424 1.9-2.029 3.923-4.384 6.069-7.067 2.143-2.681 4.287-5.63 6.431-8.848a118.067 118.067 0 0 0 5.886-9.824c1.779-3.332 3.296-6.625 4.551-9.882 1.254-3.255 2.042-6.3 2.366-9.135 0.161-1.302 0.425-2.126 0.789-2.471 0.364-0.345 0.869-0.517 1.517-0.517 0.565 0 1.375 0.172 2.428 0.517 1.05 0.345 2.103 0.767 3.155 1.264 1.05 0.499 1.96 1.035 2.731 1.609 0.768 0.575 1.153 1.091 1.153 1.551 0 0.614-0.546 1.916-1.639 3.907-1.092 1.993-2.57 4.406-4.43 7.239a384.465 384.465 0 0 1-6.371 9.365 612.18 612.18 0 0 1-7.403 10.342 501.288 501.288 0 0 1-7.585 10.111c-2.508 3.257-4.835 6.13-6.978 8.618-2.145 2.49-3.986 4.501-5.522 6.033-1.538 1.533-2.59 2.298-3.155 2.298-0.324 0-0.729-0.095-1.213-0.287a11.91 11.91 0 0 1-1.456-0.69 4.84 4.84 0 0 1-1.214-0.919c-0.324-0.345-0.485-0.67-0.485-0.977 0-0.383-0.082-0.747-0.243-1.092-0.163-0.345-0.445-0.804-0.85-1.379-0.406-0.575-0.992-1.322-1.76-2.241-0.77-0.919-1.76-2.106-2.974-3.562-6.31-7.354-11.913-13.634-16.808-18.845-4.896-5.208-9.162-9.595-12.803-13.157-3.641-3.562-6.716-6.453-9.223-8.675a1222.766 1222.766 0 0 0-6.069-5.343c-1.538-1.34-2.651-2.393-3.338-3.16-0.688-0.765-1.031-1.454-1.031-2.068 0.002-0.611 0.445-1.32 1.337-2.124zM755.646 209.333c0 0.23-0.224 0.594-0.668 1.091a14.938 14.938 0 0 1-1.639 1.551 18.13 18.13 0 0 1-1.881 1.379c-0.607 0.384-1.113 0.574-1.518 0.574-3.64 0.307-7.02 0.48-10.133 0.517-3.116 0.039-5.886 0.097-8.313 0.172 0 9.193 1.9 16.107 5.704 20.741 3.801 4.636 9.87 6.952 18.204 6.952 1.778 0 2.973 0.154 3.58 0.46 0.607 0.307 0.91 0.959 0.91 1.953 0 0.612-0.607 1.224-1.82 1.838-1.213 0.612-3.358 0.919-6.432 0.919-4.611 0-8.536-0.479-11.771-1.436-3.237-0.959-5.947-2.241-8.131-3.85s-3.904-3.465-5.158-5.573a27.063 27.063 0 0 1-2.852-6.665 35.3 35.3 0 0 1-1.213-7.067 99.12 99.12 0 0 1-0.243-6.78c0-7.659 0.747-14.076 2.245-19.247 1.497-5.171 3.459-9.345 5.886-12.525 2.427-3.178 5.237-5.438 8.434-6.78 3.196-1.339 6.493-2.011 9.891-2.011 3.398 0 5.704 0.249 6.918 0.747 1.213 0.499 1.82 1.398 1.82 2.7 0 1.686-0.77 2.528-2.306 2.528H748c-1.942 0-3.823 0.384-5.643 1.149-1.821 0.767-3.48 2.203-4.976 4.309-1.497 2.108-2.772 4.999-3.822 8.675-1.053 3.677-1.741 8.388-2.063 14.134 0.646-0.535 1.414-0.977 2.306-1.322 0.889-0.345 1.942-0.517 3.155-0.517h16.383c1.535 0.005 2.306 0.465 2.306 1.384z" fill="" p-id="2349"></path><path d="M670.299 471.958c0 14.453-14.776 21.864-29.229 21.864s-26.905-0.921-26.905-15.374 15.511-32.66 29.964-32.66c14.454 0 26.17 11.717 26.17 26.17z" fill="#DBDBDB" p-id="2350"></path></svg>