<?xml version="1.0" standalone="no"?><!DOCTYPE svg PUBLIC "-//W3C//DTD SVG 1.1//EN" "http://www.w3.org/Graphics/SVG/1.1/DTD/svg11.dtd"><svg t="1582352820484" class="icon" viewBox="0 0 1024 1024" version="1.1" xmlns="http://www.w3.org/2000/svg" p-id="4515" xmlns:xlink="http://www.w3.org/1999/xlink" width="24" height="24"><defs><style type="text/css"></style></defs><path d="M533.095 152.513m-6.431 0a6.431 6.431 0 1 0 12.862 0 6.431 6.431 0 1 0-12.862 0Z" fill="#FFFFFF" p-id="4516"></path><path d="M478.108 147.813m-7.503 0a7.503 7.503 0 1 0 15.006 0 7.503 7.503 0 1 0-15.006 0Z" fill="#FFFFFF" p-id="4517"></path><path d="M495.332 337.616c-1.81 1.259-6.312-2.083-10.055-7.464-34.791-50.013-69.594-95.33-97.998-127.605-24.631-27.987-17.821-20.76-21.96-17.881-1.81 1.259-6.312-2.083-10.055-7.464s-5.311-10.764-3.501-12.023c3.993-2.778 12.075 0.901 24.021 10.935 10.149 8.524-1.742-1.291 13.336 15.841 29.998 34.086 66.475 81.546 102.712 133.637 3.742 5.382 5.31 10.765 3.5 12.024zM558.682 388.38c-2.125-0.588-2.43-6.186-0.682-12.504 16.248-58.717 28.875-114.444 35.557-156.915 5.794-36.829 4.585-26.973-0.274-28.318-2.125-0.588-2.43-6.186-0.682-12.504s4.888-10.963 7.013-10.375c4.688 1.297 7.021 9.865 6.934 25.465-0.074 13.254-0.12-2.165-3.667 20.38-7.057 44.854-20.263 103.238-37.186 164.395-1.748 6.319-4.888 10.964-7.013 10.376zM525.339 381.711c-2.125-0.588-2.43-6.186-0.682-12.504 16.248-58.717 28.875-114.444 35.557-156.915 5.794-36.829 4.585-26.973-0.274-28.318-2.125-0.588-2.43-6.186-0.682-12.504 1.748-6.318 4.888-10.963 7.013-10.375 4.688 1.297 7.021 9.865 6.934 25.465-0.074 13.254-0.12-2.165-3.667 20.38-7.057 44.854-20.263 103.238-37.186 164.395-1.748 6.319-4.888 10.964-7.013 10.376z" fill="#493923" p-id="4518"></path><path d="M528.337 365.105c-0.505-2.146 2.774-4.754 7.324-5.825 42.287-9.952 81.287-21.896 109.816-33.631 24.739-10.176 18.257-7.147 17.102-12.055-0.505-2.146 2.774-4.754 7.324-5.825s8.648-0.199 9.153 1.947c1.114 4.735-3.147 10.395-12.665 16.823-8.086 5.461 1.268-1.01-13.877 5.219-30.13 12.393-70.98 24.927-115.025 35.293-4.549 1.072-8.647 0.2-9.152-1.946z" fill="#493923" p-id="4519"></path><path d="M425.447 94.317a5.67 5.67 0 0 0-6.392-3.462c-41.586 8.282-59.93 28.975-68.058 45.938a284.208 284.208 0 0 1-0.554-6.816c-0.561-9.203-5.146-13.925-8.875-16.28-13.511-8.473-36.826 0.446-39.433 1.478a7.073 7.073 0 0 0-1.05 0.548c-11.984 7.991-20.98 20.761-23.439 33.35a31.217 31.217 0 0 0 4.445 24.058c2.384 3.369 7.339 6.643 25.569 7.952-44.609 15.746-80.416 55.982-80.416 55.982s4.825 5.891 19.117 4.97l0.098-0.006a50.8 50.8 0 0 0 1.51-0.124l0.218-0.022a63.509 63.509 0 0 0 6.961-1.112l0.364-0.078a74.082 74.082 0 0 0 1.763-0.409l0.376-0.094a96.812 96.812 0 0 0 8.672-2.619l0.226-0.079c0.765-0.27 1.544-0.556 2.337-0.855l0.181-0.069a134.65 134.65 0 0 0 5.15-2.065c3.624-1.549 7.577-3.688 11.711-6.233l0.562-0.348c0.414-0.257 0.829-0.519 1.247-0.784 0.262-0.167 0.524-0.332 0.788-0.502 0.233-0.15 0.469-0.306 0.703-0.458 0.765-0.498 1.535-1.007 2.309-1.528l0.147-0.099c12.723-8.576 26.467-20.062 37.415-29.799-5.07 10.04-8.726 22.394-6.335 35.269 3.405 18.349 18.109 33.215 43.721 44.225a5.556 5.556 0 0 0 2.232 0.471 5.68 5.68 0 0 0 5.579-4.554 175.495 175.495 0 0 0 2.676-37.285c-0.824-23.217-6.705-42.054-17.071-55.155 32.768-12.918 53.952-29.578 62.998-49.618 8.463-18.624 2.799-33.182 2.548-33.788z" fill="#18944A" p-id="4520"></path><path d="M689.413 104.876a5.67 5.67 0 0 0-6.392-3.462c-41.586 8.282-59.93 28.975-68.058 45.938a284.208 284.208 0 0 1-0.554-6.816c-0.561-9.203-5.146-13.925-8.875-16.28-13.511-8.473-36.826 0.446-39.433 1.478a7.073 7.073 0 0 0-1.05 0.548c-11.984 7.991-20.98 20.761-23.439 33.35a31.217 31.217 0 0 0 4.445 24.058c2.384 3.369 7.339 6.643 25.569 7.952-44.609 15.746-80.416 55.982-80.416 55.982s4.825 5.891 19.117 4.97l0.098-0.006a50.8 50.8 0 0 0 1.51-0.124l0.218-0.022a63.509 63.509 0 0 0 6.961-1.112l0.364-0.078a74.082 74.082 0 0 0 1.763-0.409l0.376-0.094a96.812 96.812 0 0 0 8.672-2.619l0.226-0.079c0.765-0.27 1.544-0.556 2.337-0.855l0.181-0.069a134.65 134.65 0 0 0 5.15-2.065c3.624-1.549 7.577-3.688 11.711-6.233l0.562-0.348c0.414-0.257 0.829-0.519 1.247-0.784 0.262-0.167 0.524-0.332 0.788-0.502 0.233-0.15 0.469-0.306 0.703-0.458 0.766-0.498 1.535-1.007 2.309-1.528l0.147-0.099c12.723-8.576 26.467-20.062 37.415-29.799-5.07 10.04-8.726 22.394-6.335 35.269 3.405 18.349 18.109 33.215 43.721 44.225a5.556 5.556 0 0 0 2.232 0.471 5.68 5.68 0 0 0 5.579-4.554 175.495 175.495 0 0 0 2.676-37.285c-0.824-23.217-6.705-42.054-17.071-55.155 32.768-12.918 53.952-29.578 62.998-49.618 8.462-18.624 2.798-33.182 2.548-33.788z" fill="#3B965B" p-id="4521"></path><path d="M765.482 368.106c-21.793-58.265-68.36-65.676-73.584-66.328a5.694 5.694 0 0 0-5.353 2.354 20.602 20.602 0 0 0-3.109 10.359c-0.424 7.707 2.31 15.93 8.231 24.482 21.702 31.531 66.017 36.575 67.894 36.768h0.593v0.046a5.686 5.686 0 0 0 5.328-7.681z" fill="#18944A" p-id="4522"></path><path d="M639.375 192.894l1.565 0.059 1.715 0.062a1801.19 1801.19 0 0 0 3.098 0.103c0.685 0.022 1.374 0.044 2.08 0.065l0.074 0.002c7.309 0.22 15.748 0.404 25.501 0.524 8.122 0.101 16.021-0.642 23.7-2.001 0.112-0.02 0.226-0.037 0.338-0.057 1.333-0.239 2.657-0.502 3.976-0.779 0.262-0.055 0.526-0.106 0.788-0.162 1.207-0.26 2.407-0.54 3.602-0.829 0.37-0.089 0.741-0.176 1.11-0.268a150.79 150.79 0 0 0 3.301-0.868c0.454-0.124 0.909-0.247 1.361-0.375a161.21 161.21 0 0 0 3.04-0.896 163.937 163.937 0 0 0 4.381-1.398 173.656 173.656 0 0 0 6.294-2.233 183.54 183.54 0 0 0 4.504-1.753c0.701-0.283 1.402-0.566 2.099-0.856 0.802-0.333 1.597-0.673 2.393-1.014 0.602-0.259 1.203-0.516 1.801-0.779 0.909-0.4 1.811-0.807 2.712-1.217 0.476-0.217 0.953-0.431 1.427-0.65 1.057-0.489 2.106-0.986 3.152-1.487 0.309-0.148 0.62-0.293 0.927-0.442a281.017 281.017 0 0 0 3.85-1.898l0.161-0.08c20.091-10.104 37.918-21.864 53.267-29.8l-0.01-0.002a164.405 164.405 0 0 1 4.866-2.43c-26.158-6.611-74.182-14.614-126.546-9.094-14.673 1.546-27.458 6.543-38.118 13.048 5.374-10.379 7.637-20.362 8.378-28.7a79.729 79.729 0 0 0-4.643-35.234 5.686 5.686 0 0 0-8.482-2.439c-27.108 18.865-42.715 39.562-46.341 61.523a55.71 55.71 0 0 0-0.771 12.444c-10.484-23.108-31.155-52.402-70.162-60.874 0 0 2.263 45.949 43.842 74.603-7.948-0.955-17.419-1.247-28.717-0.548a123.16 123.16 0 0 0-19.234 2.721c-3.063 0.677-52.409 21.515-62.897 27.889-7.783 4.572-15.137 8.893-21.915 12.073a5.687 5.687 0 0 0-3.251 5.683 5.677 5.677 0 0 0 4.257 4.971c4.438 1.143 9.423 2.916 15.208 4.973 16.267 5.83 37.318 13.313 64.852 13.313 7.43-0.02 14.847-0.561 22.192-1.626 17.707-2.504 34.796-9.417 47.732-17.562-1.125 12.797 2.63 28.357 11.264 46.443 11.97 25.05 36.324 47.482 57.833 67.277 13.196 12.144 25.656 23.611 33.841 34.265a5.645 5.645 0 0 0 4.507 2.232 5.105 5.105 0 0 0 1.716-0.22 5.666 5.666 0 0 0 3.954-5.191c1.11-29.591-3.373-59.923-15.982-108.011-7.371-28.107-24.061-51.763-43.668-62.667 0.99 0.043 2.011 0.085 3.062 0.127l1.016 0.04z" fill="#30591D" p-id="4523"></path><path d="M280.365 479.485c-28.47 50.398-44.998 110.002-44.998 173.936 0 180.728 131.584 327.236 293.902 327.236s293.902-146.509 293.902-327.236c0-63.934-16.528-123.538-44.998-173.936 0 0-122.322 51.168-254.734 51.168-116.671 0-243.074-51.168-243.074-51.168z" fill="#A9B0D3" p-id="4524"></path><path d="M271.578 510.745a257.417 115.282 0 1 0 514.834 0 257.417 115.282 0 1 0-514.834 0Z" fill="#7E8BB7" p-id="4525"></path><path d="M300.283 507.041a232.416 92.133 0 1 0 464.832 0 232.416 92.133 0 1 0-464.832 0Z" fill="#3A2C17" p-id="4526"></path><path d="M611.082 532.167c0 11.055-7.783 20.017-17.383 20.017H465.93c-9.601 0-17.383-8.962-17.383-20.017l25.377-199.171c0-11.055 7.783-20.017 17.383-20.017h82.681c9.601 0 17.383 8.962 17.383 20.017l19.711 199.171z" fill="#514339" p-id="4527"></path><path d="M410.418 500.489c0 20.445-20.902 30.929-41.347 30.929s-38.059-1.303-38.059-21.748 21.942-46.2 42.387-46.2 37.019 16.574 37.019 37.019zM667.006 489.163c0 20.445 20.902 30.929 41.347 30.929s38.059-1.303 38.059-21.748-21.942-46.2-42.387-46.2-37.019 16.574-37.019 37.019zM483.908 533.593c0 27.261 31.833 41.239 62.97 41.239s57.963-1.737 57.963-28.998c0-27.261-33.417-61.601-64.554-61.601s-56.379 22.1-56.379 49.36z" fill="#896B36" p-id="4528"></path><path d="M595.925 530.537c4.466 21.675 31.361 27.72 55.428 22.761s44.518-10.612 40.052-32.288c-4.466-21.675-35.921-43.658-59.989-38.699s-39.957 26.551-35.491 48.226zM391.416 538.241c0 20.445 20.902 30.929 41.347 30.929s38.059-1.303 38.059-21.748-21.942-46.2-42.387-46.2-37.019 16.574-37.019 37.019z" fill="#95804C" p-id="4529"></path><path d="M331.436 631.093c0.133 13.214-18.555 18.555-18.555 18.555s-18.555-5.208-18.555-18.555c0-10.212 10.681-14.684 18.555-3.472 6.005-12.009 18.453-6.771 18.555 3.472zM423.044 730.089c0.133 13.214-18.555 18.555-18.555 18.555s-18.555-5.208-18.555-18.555c0-10.212 10.681-14.685 18.555-3.472 6.004-12.009 18.442-6.77 18.555 3.472zM544.604 682.993c0.133 13.214-18.555 18.555-18.555 18.555s-18.555-5.208-18.555-18.555c0-10.212 10.682-14.684 18.555-3.472 6.005-12.009 18.402-6.771 18.555 3.472zM750.526 795.331c0.133 13.214-18.555 18.555-18.555 18.555s-18.555-5.208-18.555-18.555c0-10.212 10.681-14.685 18.555-3.472 6.005-12.009 18.402-6.771 18.555 3.472zM664.011 713.852c0.133 13.214-18.555 18.555-18.555 18.555s-18.555-5.208-18.555-18.555c0-10.212 10.681-14.684 18.555-3.472 6.005-12.019 18.442-6.781 18.555 3.472zM785.342 636.277c0.133 13.214-18.555 18.555-18.555 18.555s-18.555-5.208-18.555-18.555c0-10.212 10.682-14.685 18.555-3.472 6.005-12.019 18.443-6.781 18.555 3.472zM359.753 798.162c0.133 13.214-18.555 18.555-18.555 18.555s-18.555-5.208-18.555-18.555c0-10.212 10.681-14.684 18.555-3.472 6.005-12.009 18.443-6.77 18.555 3.472zM539.416 807.298c0.133 13.214-18.555 18.555-18.555 18.555s-18.555-5.208-18.555-18.555c0-10.212 10.681-14.684 18.555-3.472 6.015-12.009 18.453-6.771 18.555 3.472zM488.466 895.08c0.133 13.214-18.555 18.555-18.555 18.555s-18.575-5.208-18.575-18.555c0-10.212 10.682-14.685 18.555-3.472 6.025-12.009 18.473-6.77 18.575 3.472zM617.272 893.295c0.133 13.214-18.555 18.555-18.555 18.555s-18.555-5.208-18.555-18.555c0-10.212 10.682-14.684 18.555-3.472 6.005-12.009 18.453-6.771 18.555 3.472z" fill="#7E8BB7" p-id="4530"></path></svg>