<?xml version="1.0" standalone="no"?><!DOCTYPE svg PUBLIC "-//W3C//DTD SVG 1.1//EN" "http://www.w3.org/Graphics/SVG/1.1/DTD/svg11.dtd"><svg t="1582352730269" class="icon" viewBox="0 0 1024 1024" version="1.1" xmlns="http://www.w3.org/2000/svg" p-id="1964" xmlns:xlink="http://www.w3.org/1999/xlink" width="24" height="24"><defs><style type="text/css"></style></defs><path d="M533.095 152.513m-6.431 0a6.431 6.431 0 1 0 12.862 0 6.431 6.431 0 1 0-12.862 0Z" fill="#FFFFFF" p-id="1965"></path><path d="M478.108 147.813m-7.503 0a7.503 7.503 0 1 0 15.006 0 7.503 7.503 0 1 0-15.006 0Z" fill="#FFFFFF" p-id="1966"></path><path d="M243.605 597.469l105.308 326.879c0 28.257 79.437 51.164 177.428 51.164s177.428-22.907 177.428-51.164l103.598-336.55-563.762 9.671z" fill="#E6E9E6" p-id="1967"></path><path d="M243.619 587.798a282.668 117.949 0 1 0 565.336 0 282.668 117.949 0 1 0-565.336 0Z" fill="#BBC4BB" p-id="1968"></path><path d="M271.072 584.009a255.215 94.264 0 1 0 510.43 0 255.215 94.264 0 1 0-510.43 0Z" fill="#3A2C17" p-id="1969"></path><path d="M549.683 519.49c0 15.252-15.593 23.073-30.845 23.073-15.252 0-28.393-0.972-28.393-16.224s16.369-34.466 31.621-34.466c15.253 0 27.617 12.365 27.617 27.617z" fill="#FFFFFF" p-id="1970"></path><path d="M597.678 525.819c0 15.252-15.593 23.073-30.845 23.073-15.252 0-28.393-0.972-28.393-16.224s16.369-34.466 31.621-34.466c15.252 0 27.617 12.365 27.617 27.617z" fill="#EDEDED" p-id="1971"></path><path d="M479.577 525.174c0 15.252-15.593 23.073-30.845 23.073s-28.393-0.972-28.393-16.224 16.369-34.466 31.621-34.466 27.617 12.365 27.617 27.617z" fill="#FFFFFF" p-id="1972"></path><path d="M615.429 604.999c0 15.252-15.593 23.073-30.845 23.073s-28.393-0.972-28.393-16.224 16.369-34.466 31.621-34.466c15.252 0.001 27.617 12.365 27.617 27.617z" fill="#DBDBDB" p-id="1973"></path><path d="M672.343 559.28c0 15.252 15.593 23.073 30.845 23.073 15.252 0 28.393-0.972 28.393-16.224s-16.369-34.466-31.621-34.466c-15.253 0-27.617 12.365-27.617 27.617z" fill="#FFFFFF" p-id="1974"></path><path d="M405.804 556.216c-2.019 15.118-18.51 20.806-33.628 18.788s-28.014-4.721-25.995-19.839c2.019-15.118 20.786-31.996 35.905-29.977 15.117 2.018 25.736 15.91 23.718 31.028z" fill="#DBDBDB" p-id="1975"></path><path d="M703.528 592.638c-0.324 15.249 15.099 23.4 30.347 23.724 15.249 0.324 28.407-0.368 28.731-15.617 0.324-15.249-15.632-34.806-30.881-35.13-15.248-0.324-27.873 11.774-28.197 27.023z" fill="#FFFFFF" p-id="1976"></path><path d="M428.419 629.386c0 15.252-15.593 23.073-30.845 23.073s-28.393-0.972-28.393-16.224 16.369-34.466 31.621-34.466 27.617 12.365 27.617 27.617z" fill="#DBDBDB" p-id="1977"></path><path d="M492.841 650.229c0 15.252-15.593 23.073-30.845 23.073s-28.393-0.972-28.393-16.224 16.369-34.466 31.621-34.466 27.617 12.364 27.617 27.617zM464.468 580.16c0 15.252-15.593 23.073-30.845 23.073s-28.393-0.972-28.393-16.224 16.369-34.466 31.621-34.466 27.617 12.364 27.617 27.617z" fill="#FFFFFF" p-id="1978"></path><path d="M634.621 600.922c0 15.252 15.593 23.073 30.845 23.073 15.252 0 28.393-0.972 28.393-16.224s-16.369-34.466-31.621-34.466c-15.252 0-27.617 12.364-27.617 27.617z" fill="#DBDBDB" p-id="1979"></path><path d="M561.052 654.018c0 15.252-15.593 23.073-30.845 23.073-15.252 0-28.393-0.972-28.393-16.224s16.369-34.466 31.621-34.466c15.253 0.001 27.617 12.365 27.617 27.617z" fill="#EDEDED" p-id="1980"></path><path d="M619.79 646.439c0 15.252-15.593 23.073-30.845 23.073s-28.393-0.972-28.393-16.224 16.369-34.466 31.621-34.466c15.252 0.001 27.617 12.365 27.617 27.617z" fill="#EDEDED" p-id="1981"></path><path d="M707.771 631.486c0 15.252-15.593 23.073-30.845 23.073-15.252 0-28.393-0.972-28.393-16.224s16.369-34.466 31.621-34.466c15.252 0 27.617 12.364 27.617 27.617z" fill="#FFFFFF" p-id="1982"></path><path d="M298.711 590.754c0 15.252 15.593 23.073 30.845 23.073s28.393-0.972 28.393-16.224-16.369-34.466-31.621-34.466-27.617 12.365-27.617 27.617z" fill="#EDEDED" p-id="1983"></path><path d="M670.948 536.543c0 15.252-15.593 23.073-30.845 23.073-15.252 0-28.393-0.972-28.393-16.224s16.369-34.466 31.621-34.466c15.253 0 27.617 12.365 27.617 27.617z" fill="#DBDBDB" p-id="1984"></path><path d="M641.956 553.841c0 15.252-15.593 23.073-30.845 23.073s-28.393-0.972-28.393-16.224 16.369-34.466 31.621-34.466c15.253 0.001 27.617 12.365 27.617 27.617zM415.177 771.481s46.57 17.236 124.176 19.186c68.297 1.716 122.624-20.749 122.624-20.749l-1.552 70.524s-40.363 13.431-113.31 15.447c-62.088 1.716-128.832-12.015-128.832-12.015l-3.106-72.393z" fill="#FFFFFF" p-id="1985"></path><path d="M536.122 859.62c-58.571 0-118.287-12.146-118.883-12.269a5.174 5.174 0 0 1-4.127-4.847l-3.104-72.393a5.175 5.175 0 0 1 6.966-5.074c0.112 0.041 11.726 4.287 32.548 8.713 19.209 4.082 50.409 9.159 89.961 10.152 2.428 0.061 4.901 0.092 7.351 0.092 62.876 0 112.671-20.246 113.167-20.451a5.175 5.175 0 0 1 7.149 4.897l-1.552 70.524a5.174 5.174 0 0 1-3.54 4.797c-1.678 0.558-41.927 13.694-114.801 15.709-3.612 0.099-7.358 0.15-11.135 0.15z m-112.846-21.641c14.141 2.653 63.939 11.291 112.846 11.291 3.682 0 7.332-0.049 10.849-0.146 59.347-1.641 97.192-11.011 108.363-14.157l1.301-59.115c-16.381 5.761-58.396 18.491-109.801 18.491-2.536 0-5.097-0.032-7.611-0.095-60.878-1.53-102.517-12.231-118.555-17.112l2.608 60.843z" fill="#BBC4BB" p-id="1986"></path><path d="M473.121 804.71l-8.193 6.9-6.9-8.193a5.058 5.058 0 1 0-7.738 6.518l6.9 8.193-8.193 6.9a5.058 5.058 0 1 0 6.518 7.738l8.193-6.9 6.9 8.193a5.058 5.058 0 1 0 7.738-6.518l-6.9-8.193 8.193-6.9a5.058 5.058 0 1 0-6.518-7.738zM549.478 808.409l-8.193 6.9-6.901-8.193a5.058 5.058 0 1 0-7.738 6.518l6.901 8.193-8.193 6.9a5.058 5.058 0 1 0 6.518 7.738l8.193-6.9 6.901 8.193a5.058 5.058 0 1 0 7.738-6.518l-6.901-8.193 8.193-6.9a5.058 5.058 0 1 0-6.518-7.738zM620.911 801.508l-8.193 6.901-6.901-8.193a5.058 5.058 0 1 0-7.738 6.518l6.901 8.193-8.193 6.901a5.058 5.058 0 1 0 6.518 7.738l8.193-6.901 6.901 8.193a5.058 5.058 0 1 0 7.738-6.518l-6.901-8.193 8.193-6.901a5.058 5.058 0 1 0-6.518-7.738z" fill="#BBC4BB" p-id="1987"></path><path d="M532.622 605.289c7.728 0 13.992-4.766 13.992-10.645 0-54.638 9.433-105.826 26.561-144.134 14.852-33.219 35.058-53.855 52.729-53.855 7.728 0 13.992-4.766 13.992-10.645s-6.265-10.645-13.992-10.645c-17.05 0-32.94 6.848-47.228 20.353-12.139 11.473-22.904 27.601-31.996 47.937-18.089 40.458-28.051 94.08-28.051 150.989 0 5.879 6.265 10.645 13.993 10.645z" fill="#3A2C1C" p-id="1988"></path><path d="M518.394 610.514c-7.806 0-14.135-6.574-14.135-14.683 0-75.365-9.529-145.971-26.832-198.812-15.004-45.821-9.824-33.671-27.676-33.671-7.806 0-14.135-6.574-14.135-14.683s6.329-14.683 14.135-14.683c17.223 0 33.275 9.445 47.709 28.073 12.262 15.826-2.454-2.542 6.731 25.508 18.273 55.806 28.337 129.77 28.337 208.268 0.001 8.109-6.327 14.683-14.134 14.683z" fill="#493923" p-id="1989"></path><path d="M282.511 230.683c-21.113 7.244-121.376-22.341-122.796-6.083s25.566 50.792 58.139 55.424 75.648-13.288 93.662-10.02c18.014 3.268 25.317 12.245 25.744 15.957 0.427 3.711-100.905 22.707-107.462 45.523-6.557 22.816 19.488 37.075 50.6 37.007s73.446-54.182 89.947-56.936c16.5-2.754 29.24 6.739 25.277 10.883s-58.252 38.934-70.66 57.49c-12.409 18.555-8.604 36.054 24.916 23.755s61.428-58.203 74.146-58.38 11.874 6.946 7.602 12.118c-4.273 5.172-37.36 35.728-46.518 48.795-9.158 13.067 21.011 16.068 31.12 14.474 10.109-1.594 32.639-21.071 37.539-28.29 4.9-7.219 2.879-21.04 9.59-23.918s6.644 21.684 20.632 14.382c3.643-1.902 18.29-12.949 17.147-17.987-1.143-5.039-14.753-13.748-15.96-21.501-1.207-7.753 13.013-2.444 19.749-17.822 6.735-15.378 11.423-59.798 0.669-71.382-10.754-11.584-33.544 53.899-45.106 65.335-9.289 6.998-18.487 4.838-16.652-3.321 1.835-8.159 55.214-95.337 46.646-114.07-8.568-18.733-10.454-12.595-18.692-3.949s-35.304 79.305-48.561 76.578c-13.256-2.727 34.566-97.186 23.462-122.276-11.103-25.09-30.924-48.636-43.262-41.239-12.338 7.398-1.112 94.719-18.711 108.329-17.599 13.61-7.598-6.58-10.012-22.093s2.066-83.906-9.025-95.137c-11.091-11.231-19.543-25.234-33.13-13.75-13.587 11.485 4.13 87.827-6.625 90.789-10.755 2.962-9.494-43.399-28.012-68.32-18.518-24.922-53.245-34.242-58.45-25.991s-4.885 7.895 1.345 13.836c6.231 5.94 30.292 22.273 38.098 37.643s16.132 23.957 10.756 25.439c-5.376 1.482-18.18-10.726-26.235-22.369-8.055-11.644-23.902-37.981-33.778-40.79-9.875-2.808-41.742-19.969-60.253 12.591s7.031 53.605 25.269 66.345 37.284 17.71 58.123 26.34 39.148 23.358 29.722 26.591z" fill="#159047" p-id="1990"></path><path d="M794.037 344.28c16.359-0.408 30.55 1.195 46.219-2.675 15.67-3.869 38.45-11.456 34.409-38.327s-30.09-23.563-37.509-24.237-25.015 13.024-33.505 18.806-20.342 10.708-23.595 8.303 4.623-6.048 13.916-14.418 29.843-13.152 35.61-15.549c5.767-2.397 5.892-2.073 4.519-9.016-1.373-6.943-27.314-9.69-46.35 2.353s-30.272 43.759-36.782 38.949 25.395-51.875 19.191-63.193-15.578-4.043-26.015 0.669c-10.438 4.712-25.24 52.182-30.92 62.056s-4.174 26.15-12.54 12.346c-8.366-13.804 22.007-69.994 15.583-78.22-6.424-8.226-25.984 2.546-40.044 16.637-14.06 14.091-6.318 90.513-16.004 88.902-9.686-1.611-9.583-56.507-12.906-64.509-3.322-8.002-2.999-12.649-13.685-2.201-10.686 10.448 2.718 83.389 1.833 89.392s-7.676 5.066-12.14-2.094c-4.845-10.758-3.198-61.034-13.499-55.996-10.301 5.038-18.712 36.333-18.162 48.501 0.55 12.168 11.171 16.02 8.332 20.954-2.839 4.934-13.933 3.543-16.021 6.656-2.088 3.113 4.013 15.978 6.918 16.649 2.905 0.671 13.926-8.055 17.719-4.356 3.793 3.699-1.18 12.529 0.255 18.694 1.435 6.165 11.609 25.227 18.037 28.942 6.428 3.716 27.636 9.552 24.843-1.683-2.792-11.235-17.225-40.55-18.768-45.166-1.544-4.616-0.257-9.658 8.307-6.222 8.564 3.436 15.487 41.792 34.973 58.86 19.486 17.068 26.625 6.213 23.063-9.585-3.562-15.798-31.243-53.509-32.846-57.349s9.498-6.944 19.951-0.776c10.453 6.168 25.001 53.844 46.047 62.004 21.046 8.16 42.397 5.298 43.908-11.858s-62.139-56.443-60.882-58.844 8.543-6.575 21.59-4.089c13.048 2.486 37.537 25.851 60.798 31.21 23.26 5.359 50.536-10.983 53.815-22.361s-72.316-17.495-84.721-27.905c-5.537-4.649 10.699-9.846 27.058-10.254z" fill="#39BB74" p-id="1991"></path><path d="M540.949 591.137c0 15.252-15.593 23.073-30.845 23.073-15.252 0-28.393-0.972-28.393-16.224s16.369-34.466 31.621-34.466c15.252 0 27.617 12.364 27.617 27.617z" fill="#DBDBDB" p-id="1992"></path></svg>