<?xml version="1.0" standalone="no"?><!DOCTYPE svg PUBLIC "-//W3C//DTD SVG 1.1//EN" "http://www.w3.org/Graphics/SVG/1.1/DTD/svg11.dtd"><svg t="1582352763784" class="icon" viewBox="0 0 1024 1024" version="1.1" xmlns="http://www.w3.org/2000/svg" p-id="2952" xmlns:xlink="http://www.w3.org/1999/xlink" width="24" height="24"><defs><style type="text/css"></style></defs><path d="M654.591 917.004c0 33.137-26.863 60-60 60h-208c-33.137 0-60-26.863-60-60v-476c0-33.137 26.863-60 60-60h208c33.137 0 60 26.863 60 60v476z" fill="#957CA0" p-id="2953"></path><path d="M594.591 381.004h-208c-33.137 0-60 26.863-60 60v476c0 26.865 17.658 49.603 42 57.249V449.004c0-6.627 5.373-12 12-12s12 5.373 12 12v528h48v-528c0-6.627 5.373-12 12-12s12 5.373 12 12v528h48v-528c0-6.627 5.373-12 12-12s12 5.373 12 12v528h48v-528c0-6.627 5.373-12 12-12s12 5.373 12 12v526.341c26.381-6.308 46-30.026 46-58.341v-476c0-33.137-26.862-60-60-60z" fill="#BEADC4" p-id="2954"></path><path d="M332.178 431.417a163.129 73.415 0 1 0 326.258 0 163.129 73.415 0 1 0-326.258 0Z" fill="#957CA0" p-id="2955"></path><path d="M370.781 427.111a124.526 51.883 0 1 0 249.052 0 124.526 51.883 0 1 0-249.052 0Z" fill="#3A2C17" p-id="2956"></path><path d="M511.798 469.994c-1.139-114.898-10.294-222.309-26.072-304.682-8.491-44.325 5.113-15.3-6.222-40.309C466.161 95.566 451.321 80.64 435.4 80.64c-7.217 0-13.067 10.388-13.067 23.202s24.782 4.004 38.652 76.412c15.072 78.683 23.76 182.297 24.713 293.638 0.617 0.015 1.233 0.04 1.852 0.04 8.289 0.002 16.393-1.362 24.248-3.938z" fill="#896B36" p-id="2957"></path><path d="M519.198 82.417s99.807-50.718 118.358 27.872c14.343 60.771-58.566 19.686-54.757 51.771 11.984 38.541 79.951-17.761 127.524 25.833s-73.003 33.463-34.618 59.322 86.016 15.889 82.907 55.471c-3.298 34.842-26.781 12.894-42.266 9.011-10.074-3.873-32.263 3.35 2.36 28.691 34.588 25.421 60.973 77.629 24.111 80.851s-46.643-119.389-95.253-91.037c-48.61 28.352 55.063 39.106-6.576 70.929s-23.341-117.284-53.504-101.891c-30.163 15.393-14.353 61.418-48.686 38.866-27.595-24.902 26.815-50.031-6.354-82.332-35.949-35.047-35.284 30.387-91.519-71.439C365.768 48.25 460.258 67.67 460.258 67.67l58.94 14.747zM465.016 281.498s41.84-8.599 8.561 51.659c-24.901 45.088-24.606 16.114-40.524 31.633-14.687 14.303 9.406 25.43-2.814 36.456-15.202 9.986-8.202-10.393-21.558-17.21s3.602 59.208-23.691 45.117c-27.293-14.091 18.613-18.853-2.912-31.407-21.524-12.554-25.855 41.737-42.178 40.311-16.323-1.427-4.639-24.544 10.676-35.801 15.331-11.221 5.506-14.419 1.045-12.704-6.857 1.72-17.255 11.438-18.715-3.99-1.376-17.527 19.714-13.112 36.711-24.562 16.997-11.451-36.394-6.964-15.329-26.268 21.065-19.303 51.161 5.627 56.467-11.439 1.686-14.207-30.597 3.985-24.246-22.924 8.215-34.799 52.408-12.342 52.408-12.342l26.099-6.529z" fill="#33B36D" p-id="2958"></path><path d="M737.789 400.969c-8.845-15.493-18.22-30.649-28.087-45.548a941.258 941.258 0 0 0-30.501-43.952c-21.162-28.716-43.637-56.396-68.163-82.225a612.115 612.115 0 0 0-18.672-19.066c-6.374-6.231-12.817-12.304-19.49-18.287-13.187-11.897-27.043-23.138-41.409-33.655a386.31 386.31 0 0 0-45.128-28.453 341.97 341.97 0 0 0-24-11.724c-2.068-0.912-4.092-1.71-6.16-2.622-1.034-0.456-2.068-0.912-3.058-1.254l-3.093-1.174c-4.127-1.63-8.359-3.021-12.636-4.527 4.267 1.312 8.57 2.544 12.767 4.015l3.128 1.094c1.069 0.376 2.103 0.833 3.093 1.174 2.103 0.833 4.162 1.55 6.265 2.383 8.334 3.295 16.457 7.068 24.475 11.079 15.966 8.181 31.246 17.485 45.912 27.754 29.331 20.536 55.962 44.823 80.612 70.802a705.584 705.584 0 0 1 35.311 40.372c11.26 13.897 22.105 28.087 32.466 42.728 10.282 14.606 20.264 29.46 29.753 44.572 4.727 7.596 9.339 15.236 13.802 23 4.381 7.729 8.729 15.537 12.813 23.514z" fill="#17723B" p-id="2959"></path><path d="M733.031 290.455c-6.977-4.217-14.244-7.992-21.677-11.175-7.433-3.183-15.191-5.844-23.096-7.525-7.861-1.566-16.037-2.417-23.872-1.026-3.9 0.656-7.736 1.814-11.227 3.696-3.535 1.767-6.688 4.177-9.469 7.036-5.527 5.639-9.223 12.941-11.655 20.61-2.512 7.634-3.795 15.715-4.654 23.697-0.815 8.097-0.969 16.201-0.769 24.366 0.12 8.13 0.709 16.276 1.297 24.422-2.377-16.156-3.792-32.553-2.559-48.923l0.203-3.046c0.068-1.015 0.25-2.075 0.318-3.091 0.25-2.075 0.545-4.036 0.874-6.076 0.147-0.98 0.33-2.04 0.591-3.065 0.262-1.025 0.409-2.005 0.671-3.03 0.489-1.97 1.012-4.019 1.616-6.034 2.423-7.863 6.293-15.563 12.146-21.724 2.931-2.983 6.349-5.562 10.148-7.497 3.764-1.856 7.865-3.183 11.959-3.848s8.331-0.792 12.472-0.486c4.141 0.306 8.221 0.965 12.276 1.898 7.994 1.91 15.727 4.845 23.178 8.416 3.669 1.808 7.302 3.695 10.865 5.742 3.642 2.084 7.055 4.254 10.364 6.663z m-37.191-83.294c-8.2-2.951-16.723-4.525-25.358-5.197-8.556-0.637-17.293-0.215-25.701 1.398-8.408 1.613-16.6 4.461-24.154 8.447-7.633 3.95-14.548 9.072-20.684 15.013L597.557 229l-2.182 2.363-2.182 2.363c-0.739 0.814-1.443 1.549-2.103 2.398l-4.037 5.061c-0.66 0.849-1.319 1.699-1.899 2.583l-1.82 2.618c-2.559 3.432-4.631 7.269-6.907 10.922l-0.791 1.362-0.746 1.476-1.457 2.873c-0.957 1.954-1.993 3.872-2.914 5.746l-4.596 10.421-0.587 1.546-2.392 6.071c-0.797 2.024-1.595 4.048-2.233 6.141l-2.039 6.132-1.059 3.048-0.507 1.582-0.428 1.617c-1.162 4.143-2.359 8.366-3.601 12.475 3.5-16.985 8.448-33.807 15.578-49.761 0.877-1.989 1.913-3.907 2.87-5.861l1.492-2.953 0.746-1.476 0.826-1.441c2.231-3.767 4.224-7.639 6.853-11.23l1.855-2.698c0.58-0.884 1.195-1.848 1.934-2.663l4.072-5.14c0.66-0.849 1.399-1.664 2.138-2.478l2.217-2.443 2.217-2.443 2.421-2.258c6.365-6.03 13.544-11.32 21.371-15.28s16.249-6.897 24.94-8.29c17.143-2.889 35.183-0.92 51.233 5.778z m-87.642-102.693c-8.453-1.732-16.983-2.644-25.555-2.813-8.572-0.17-17.186 0.402-25.559 1.936-8.408 1.613-16.54 4.108-24.138 7.979-7.563 3.791-14.478 8.913-20.171 15.144a74.62 74.62 0 0 0-7.81 9.953c-2.32 3.538-4.278 7.33-6.076 11.193-1.798 3.863-3.199 7.901-4.521 11.974-0.524 2.049-1.242 4.108-1.686 6.193l-0.786 3.074-0.627 3.144c-1.697 8.373-2.608 16.903-2.972 25.484-0.443 8.546-0.26 17.179 0.198 25.837-0.996-8.516-1.453-17.174-1.442-25.816 0.011-2.18 0.102-4.326 0.193-6.471 0.091-2.145 0.296-4.335 0.387-6.48 0.206-2.19 0.376-4.3 0.661-6.455 0.285-2.155 0.57-4.309 0.935-6.429l0.547-3.179 0.741-3.189c0.182-1.06 0.479-2.164 0.741-3.189l0.821-3.154c1.277-4.188 2.713-8.306 4.467-12.283a82.39 82.39 0 0 1 6.217-11.511 77.247 77.247 0 0 1 7.986-10.351c5.958-6.399 13.137-11.69 21.009-15.535 7.872-3.845 16.312-6.394 24.889-7.743 4.288-0.674 8.586-1.155 12.937-1.326 4.351-0.171 8.712-0.149 12.968 0.113 4.335 0.296 8.6 0.752 12.874 1.402a81.228 81.228 0 0 1 12.772 2.498z" fill="#17723B" p-id="2960"></path></svg>