<?xml version="1.0" standalone="no"?><!DOCTYPE svg PUBLIC "-//W3C//DTD SVG 1.1//EN" "http://www.w3.org/Graphics/SVG/1.1/DTD/svg11.dtd"><svg t="1582352775608" class="icon" viewBox="0 0 1024 1024" version="1.1" xmlns="http://www.w3.org/2000/svg" p-id="3243" xmlns:xlink="http://www.w3.org/1999/xlink" width="24" height="24"><defs><style type="text/css"></style></defs><path d="M808.695 575.251a732.673 732.673 0 0 0-18.743-48.452 802.353 802.353 0 0 0-21.125-46.279c-14.906-30.064-31.131-58.752-49.45-85.024a433.852 433.852 0 0 0-14.03-19.314c-4.828-6.274-9.741-12.356-14.871-18.303a335.13 335.13 0 0 0-32.323-32.908c-11.376-10.083-23.546-18.905-36.377-26.406a196.57 196.57 0 0 0-19.823-10.124c-1.722-0.759-3.42-1.393-5.142-2.153-0.861-0.38-1.722-0.759-2.559-1.014l-2.602-0.917c-3.463-1.297-7.053-2.305-10.667-3.438 3.633 0.911 7.308 1.726 10.856 2.83l2.644 0.821c0.904 0.283 1.765 0.663 2.602 0.917 1.765 0.663 3.505 1.2 5.27 1.863 6.992 2.623 13.729 5.824 20.338 9.315 13.134 7.174 25.497 15.735 37.176 25.491 23.357 19.512 43.775 43.716 62.183 70.143 9.183 13.262 17.804 27.081 25.928 41.488s15.837 29.208 23.054 44.596c7.151 15.359 13.999 31.045 20.369 47.097 3.164 8.074 6.219 16.215 9.123 24.52 2.839 8.276 5.634 16.648 8.169 25.251z" fill="#FFFFFF" p-id="3244"></path><path d="M830.167 673.335L769.78 474.413H278.791l-60.387 198.922s-14.209 53.283 0 110.117c12.135 48.538 92.062 143.737 115.143 170.501a21.571 21.571 0 0 0 4.175 4.812 475.69 475.69 0 0 0 2.066 2.353l1.142-0.095a20.022 20.022 0 0 0 9.949 2.642h346.812c3.631 0 7.043-0.974 10.014-2.682l1.615 0.135s106.637-120.831 120.846-177.666 0.001-110.117 0.001-110.117z" fill="#3A2C17" p-id="3245"></path><path d="M218.536 783.944h611.498c0.042-0.162 0.093-0.331 0.133-0.492 14.209-56.835 0-110.117 0-110.117L769.78 474.413H278.791l-60.387 198.922s-14.209 53.283 0 110.117c0.04 0.162 0.09 0.33 0.132 0.492zM232.054 815.83c6.925 12.823 15.706 26.684 25.261 40.582H791.4c9.513-13.899 18.254-27.759 25.153-40.582H232.054zM280.392 888.299c12.245 16.192 24.375 31.282 34.452 43.481H734.14c10.029-12.199 22.1-27.291 34.286-43.481H280.392z" fill="#A9B0D3" p-id="3246"></path><path d="M262.91 464.115a257.027 114.538 0 1 0 514.054 0 257.027 114.538 0 1 0-514.054 0Z" fill="#7E8BB7" p-id="3247"></path><path d="M752.001 459.848c0 50.807-103.899 91.993-232.064 91.993-13.555 0-26.838-0.461-39.755-1.345-109.224-7.475-192.309-45.215-192.309-90.649 0-50.807 103.899-91.993 232.064-91.993s232.064 41.187 232.064 91.994z" fill="#3A2C17" p-id="3248"></path><path d="M407.39 458.34c0 20.929-21.397 31.661-42.326 31.661s-38.96-1.334-38.96-22.263 22.461-47.293 43.39-47.293 37.896 16.966 37.896 37.895zM652.662 446.747c0 20.929 21.397 31.661 42.326 31.661s38.96-1.334 38.96-22.263-22.461-47.293-43.39-47.293-37.896 16.966-37.896 37.895zM558.468 423.56c0 20.929 21.397 31.661 42.326 31.661s38.96-1.334 38.96-22.263c0-20.929-22.461-47.293-43.39-47.293s-37.896 16.966-37.896 37.895zM437.577 430.514c0 20.929 21.397 31.661 42.326 31.661 20.929 0 38.96-1.334 38.96-22.263 0-20.929-22.461-47.293-43.39-47.293-20.929-0.001-37.896 16.966-37.896 37.895z" fill="#896B36" p-id="3249"></path><path d="M586.577 509.285c4.224 20.499 29.338 26.281 51.786 21.656s41.518-9.916 37.294-30.415c-4.224-20.499-33.635-41.357-56.082-36.732-22.448 4.626-37.222 24.993-32.998 45.491zM392.338 505.699c0 20.929 21.397 31.661 42.326 31.661s38.96-1.334 38.96-22.263c0-20.929-22.461-47.293-43.39-47.293s-37.896 16.966-37.896 37.895z" fill="#95804C" p-id="3250"></path><path d="M834.474 246.744c-35.187-7.58-71.027-15.167-102.188-32.594-9.413-5.199-18.154-12.188-29.237-14.108-14.011-2.852-29.091 2.377-41.879 7.032-52.794 19.5-89.834 61.653-131.027 95.368-10.555-20.197-12.93-41.803-15.299-64.008-2.384-20.707-6.732-41.135-12.715-61.282-13.557-44.208-32.345-87.873-28.236-134.883 0.023-2.098 0.373-4.192 0.722-6.286 0.357-2.694-2.559-4.824-5.171-4.852-3.265-0.036-4.924 2.344-5.278 4.737-0.349 2.094-0.372 4.192-0.722 6.286-5.026 41.306-3.522 82.683 0.269 124.086 3.49 39.002 11.868 78.956 3.93 117.832-42.147-28.037-57.247-80.354-91.479-115.497-38.753-39.689-89.71-68.423-119.9-114.611-2.89-4.528-10.759-1.617-9.183 3.496 16.423 50.833 65.727 81.346 97.597 123.357 19.322 24.789 33.716 52.222 51.725 77.596 8.042 11.178 16.413 22.06 25.444 32.35 5.162 5.751 10.324 11.503 15.812 17.258 4.845 4.849 13.926 10.643 16.802 16.369 6.821 3.372 6.795 5.77-0.735 7.485-3.912-0.642-8.154-0.989-12.065-1.631-8.8-1.595-17.597-3.49-26.387-5.984-10.743-3.115-21.465-8.029-32.904-7.255-26.143 1.511-48.308 27.343-64.489 43.649-39.963 40.622-68.562 87.363-88.718 138.393-2.012 4.773 4.816 7.546 7.134 4.574 24.378-19.214 48.11-39.033 71.521-59.457a1394.165 1394.165 0 0 0 31.994-28.721c12.867-11.847 26.097-26.987 44.439-31.881 29.477-7.768 72.512-1.001 97.49 14.26 12.323 7.928 22.65 19.131 28.716 31.786 7.989 15.973 5.542 30.632 6.663 47.428 0.604 4.502 1.524 9.907 3.761 14.428l8.513-2.004c-1.279-2.412-1.886-6.614-1.82-12.608-0.297-2.701 0.066-5.994 0.096-8.691 0.389-5.69 0.451-11.384-0.139-17.086-1.184-11.102-4.661-21.631-10.433-31.285-18.991-32.562-60.973-48.001-100.954-48.609 40.079 0.529 82.238 15.962 101.281 48.613 5.446 9.651 9.245 20.483 10.433 31.285 0.59 5.702 0.201 11.392 0.138 17.086-0.03 2.697-0.392 5.99-0.096 8.691-0.066 5.994 0.541 10.196 1.821 12.608 0.03 0.054 0.068 0.086 0.1 0.138l-7.96 1.874c3.51 7.532 9.971 13.897 20.088 14.607 16.643 1.082 22.036-14.144 21.844-26.434-0.201-11.392-2.602-30.6-1.749-48.873l-8.49-0.093-0.049 4.495-0.264 23.974c-0.059 5.394 3.375 19.818 0.716 23.985-3.282 1.463-6.567 3.225-9.849 4.687-3.672 2.982-6.665 4.492-9.018 4.618 2.287-0.279 5.075-1.819 8.365-4.625 3.282-1.462 6.567-3.225 9.849-4.687 2.662-4.466-0.772-18.891-0.716-23.985a293.82 293.82 0 0 1 0.264-23.974l0.049-4.495c0.009-0.199 0.016-0.4 0.024-0.599l7.82 0.086c0.547-20.075 5.003-39.208 19.766-45.34 13.121-5.25 34.343-4.718 48.38-4.263 19.912 0.818 37.172 5.204 52.721 16.764 28.834 20.998 52.682 50.032 77.555 74.883 18.415 18.185 37.087 42.668 66.816 41.796 2.942-0.268 5.247-2.041 5.277-4.738-0.386-24.281-20.15-38.585-36.622-55.251-23.25-23.933-38.605-53.174-58.893-79.173 0.003-0.3-0.32-0.603-0.32-0.603l-0.323-0.304c-16.44-19.662-36.811-38.169-62.841-46.847-30.259-10.223-59.479 3.842-89.164 0.818 15.162-12.721 30.001-25.746 45.167-38.766 17.471-14.794 39.319-41.528 62.563-46.667 21.607-4.857 48.305 2.629 69.833 4.964 24.138 2.663 48.272 5.626 72.409 8.289 5.545 0.656 6.943-7.721 1.405-8.981z m-476.091-81.95c-25.4-23.759-54.206-44.234-78.745-68.314 4.447 5.845 9.266 11.498 14.301 17.036-5.249-5.741-10.285-11.595-14.948-17.642 25.033 24.286 53.893 44.906 79.392 68.92z m-15.885 184.739c14.246-12.788 25.858-22.414 43.592-22.145-17.55-0.147-29.107 9.439-43.265 22.149-42.754 38.38-74.543 84.034-96.968 134.267-0.176 0.144-0.351 0.29-0.527 0.433 22.434-50.406 54.289-96.213 97.168-134.704z m67.64-17.572c10.732 2.835 21.135 5.698 32.116 7.485-11.135-1.639-21.543-4.599-32.116-7.485z m46.01 8.936c8.889 0.152 17.705-1.883 14.923-12.13-2.507-9.619-17.433-18.475-24.214-25.443-12.274-12.423-23.884-25.739-34.185-39.339-18.995-24.785-33.716-52.221-51.725-77.596-13.964-19.767-32.346-37.342-50.119-55.272 17.914 17.986 36.554 35.516 50.446 55.276 18.01 25.374 32.73 52.81 51.726 77.596 10.624 13.904 21.911 26.916 34.184 39.339 6.782 6.968 21.707 15.824 24.214 25.443 2.815 10.373-6.252 12.334-15.25 12.126z m20.21-47.438c-0.683 2.69-4.944 4.141-7.54 2.614-9.101-5.176-16.998-11.338-24.069-18.183 6.909 6.58 14.597 12.534 23.423 17.576 2.596 1.527 6.854 0.375 7.54-2.614 10.234-39.75 2.509-79.697-1.298-119.602-2.055-21.003-3.454-42.298-3.877-63.282 0.227 0.881 0.477 1.759 0.711 2.639 0.469 20.328 1.823 40.923 3.812 61.25 3.48 39.901 11.529 80.152 1.298 119.602z m55.301 19.79c-2.123 1.905-5.58 1.744-7.373-0.399 1.894 1.448 4.84 1.242 6.727-0.208 40.846-31.92 75.918-73.195 125.465-94.53 20.015-8.471 38.03-13.369 58.816-2.95 11.693 5.823 22.393 12.834 35.075 17.769 4.875 2.151 9.753 4.003 14.962 5.559-0.487-0.058-0.997-0.116-1.488-0.174a887.14 887.14 0 0 1-12.827-4.779c-12.356-4.932-23.055-11.943-35.075-17.769-20.783-10.719-38.798-5.821-58.816 2.95-49.549 21.336-84.62 62.611-125.466 94.531z m187.382 103.973c8.179 8.435 15.988 17.039 23.803 24.829 1.046 1.057 2.069 2.086 3.112 3.139-1.257-1.247-2.494-2.5-3.758-3.746-7.682-7.65-15.272-16.02-23.157-24.222z m60.627 61.8c-1.051-1.062-2.079-2.095-3.125-3.153 1.262 1.251 2.503 2.509 3.771 3.759 2.063 2.046 4.16 4.121 6.31 6.161-2.377-2.233-4.688-4.517-6.956-6.767z m24.856-2.297c-8.014-8.628-17.483-16.692-25.182-24.801 7.787 8.023 17.263 16.114 25.182 24.801z m-147.023-143.81c9.718 2.015 18.669 5.63 26.964 10.296-8.128-4.437-16.881-7.831-26.317-9.69-29.653-6.02-57.907 9.254-87.549 2.335-1.01-0.265-1.81-0.83-2.416-1.534 0.506 0.405 1.079 0.747 1.769 0.928 29.643 6.919 58.223-8.352 87.549-2.335z" fill="#18944A" p-id="3251"></path><path d="M488.418 503.748c0 20.929 21.397 31.661 42.326 31.661 20.929 0 38.96-1.334 38.96-22.263s-22.461-47.293-43.39-47.293c-20.93-0.001-37.896 16.966-37.896 37.895z" fill="#896B36" p-id="3252"></path></svg>