<?xml version="1.0" standalone="no"?><!DOCTYPE svg PUBLIC "-//W3C//DTD SVG 1.1//EN" "http://www.w3.org/Graphics/SVG/1.1/DTD/svg11.dtd"><svg t="1582352832816" class="icon" viewBox="0 0 1024 1024" version="1.1" xmlns="http://www.w3.org/2000/svg" p-id="4814" xmlns:xlink="http://www.w3.org/1999/xlink" width="24" height="24"><defs><style type="text/css"></style></defs><path d="M721.547 467.137s-117.648 53.975-245.001 53.975c-112.213 0-233.786-53.975-233.786-53.975-27.382 53.162-43.279 116.035-43.279 183.476 0 190.64 77.266 323.709 282.672 323.709 226.316 0 282.672-133.069 282.672-323.709 0.001-67.44-15.896-130.314-43.278-183.476z" fill="#A4CDD8" p-id="4815"></path><path d="M275.923 523.068c15.628 93.768 15.628 125.024 27.349 136.745 11.721 11.721 42.977 58.605 58.605 78.14 15.628 19.535 27.349 23.442 54.698 62.512s35.163 19.535 46.884 62.512c11.721 42.977 11.721 58.605 11.721 58.605s62.512 89.861 42.977-11.721c-19.535-101.582 0-156.279-39.07-199.256-39.07-42.977-89.861-85.954-105.489-105.489-15.628-19.535-62.512-70.326-70.326-85.954M742.842 773.238c-86.404-39.634-116.57-47.818-124.813-62.199-8.243-14.381-45.307-56.822-60.069-77.02-14.761-20.198-15.463-32.533-46.009-69.157-30.546-36.625-9.646-39.051-48.055-61.616-38.409-22.565-53.491-26.657-53.491-26.657s-70.358-83.86 22.565-38.409 150.827 40.92 182.075 89.879c31.248 48.96 59.426 109.231 74.188 129.429 14.761 20.198 51.504 78.745 64.541 90.378" fill="#FFFFFF" p-id="4816"></path><path d="M210.617 500.112a271.536 121.605 0 1 0 543.072 0 271.536 121.605 0 1 0-543.072 0Z" fill="#80A9B2" p-id="4817"></path><path d="M722.682 497.838c0 52.66-107.688 95.349-240.529 95.349-14.049 0-27.817-0.477-41.206-1.394-113.208-7.747-199.323-46.865-199.323-93.955 0-52.66 107.688-95.349 240.529-95.349s240.529 42.689 240.529 95.349z" fill="#3A2C17" p-id="4818"></path><path d="M471.476 554.042c-1.535-112.221 4.93-217.316 18.44-298.115 7.27-43.478-5.345-14.822 5.147-39.504 12.351-29.052 26.498-43.969 42.045-44.336 7.047-0.166 12.999 9.843 13.294 22.356 0.295 12.513-24.107 4.48-35.982 75.505-12.905 77.179-19.002 178.556-17.368 287.3-0.603 0.029-1.203 0.068-1.808 0.082-8.093 0.191-16.038-0.954-23.768-3.288z" fill="#896B36" p-id="4819"></path><path d="M293.788 315.577c2.131-3.995 9.609-4.166 16.702-0.383 7.094 3.784-5.101 14.901 30.887 43.958 14.367 11.6 30.858 23.718 49.007 36.063-8.016-30.202-12.208-59.114-11.975-83.495 0.154-16.094-4.696-3.953-0.745-14.337 4.651-12.223 11.776-20.028 21.176-23.2 4.261-1.437 8.854 0.773 10.258 4.936 1.405 4.164-14.192 6.237-14.444 32.527-0.266 27.814 5.647 62.105 16.703 97.458 26.073 16.828 54.865 33.873 85.272 50.427-0.174 0.346-0.342 0.694-0.525 1.037-2.448 4.589-5.596 8.672-9.341 12.26-63.267-34.555-120.024-71.337-160.964-104.393-22.03-17.788-9.979-1.687-20.476-15.346-12.355-16.077-16.236-28.699-11.535-37.512z" fill="#896B36" p-id="4820"></path><path d="M659.767 334.157c2.014 4.842 0.826 10.411 3.41 15.218 7.118 13.396 31.306 18.66 44.253 8.65 5.28-4.223 4.375-9.664 0.65-14.402-2.487-3.217-7.172-4.882-9.3-8.476-3.008-5.491 1.622-4.709 4.027-9.111 2.573-4.767 0.255-8.349-4.293-10.909-3.363-1.923-11.062-6.063-14.781-4.418 3.855-2.54 12.268-2.344 16.601-3.317 6.224-1.266 19.031-4.175 19.117-12.159 0.201-9.232-9.487-5.273-14.289-8.881-2.793-1.957-3.719-7.752-5.984-10.451-2.243-2.346-4.835-4.138-7.954-5.189-6.831-2.421-18.855 0.795-26.615-1.214 5.632-1.584 11.317-2.286 15.233-6.957 4.971-6.154 3.514-14.399-1.956-19.562-7.904-7.497-20.502-7.438-30.926-9.285-2.706-0.544-21.705-5.237-17.408-9.932 2.154-2.259 4.239 0.628 6.988 1.879 2.548 1.086 5.276 1.983 7.993 2.704 10.847 2.53 22.43 1.47 33.632 0.432 0.951-0.058 10.018-1.675 10.822-1.014 0.994 0.649-0.366 3.391-0.66 4.828-1.073 4.321-1.935 8.984-1.095 13.365 1.404 7.362 7.161 14.103 15.596 14.653 3.826 0.121 6.561-1.996 9.964-2.558 1.795-1.882 3.697-1.998 5.528-0.16 2.886 0.356 3.934 1.888 3.345 4.761 1.145 3.122 1.012 7.208 1.407 10.553 0.352 2.638 2.807 5.326 6.03 4.952 5.876-0.713 6.866-3.256 10.868-6.514 7.825-6.328 13.385 3.44 20.09 6.932 11.052 5.887 23.141 3.731 30.168-6.272 1.414-1.859 0.47-4.816-1.339-6.302-1.809-1.485-3.406-2.629-5.395-3.927-0.592-0.319-9.171-6.356-7.649-6.449 4.555-0.455 7.455-6.128 3.446-9.253a1520.281 1520.281 0 0 0-27.24-20.858c-1.608-1.32-5.542-3.208-6.411-4.929-0.635-1.025-1.037-1.355-1.238-1.52 0.359-0.376 0.707-0.93 1.192-2.378 2.792-7.44 12.196-9.786 18.869-6.824 8.841 4.071 16.152 11.25 25.373 15.298 7.846 3.422 17.426 7.094 26.231 7.444 5.549 0.194 11.594-0.884 15.341-5.191 2.85-3.365 1.231-4.862 5.47-4.234 3.859 0.651 8.546 5.508 12.11 7.595 13.643 7.679 30.165 9.332 42.487-1.526 2.175-1.906 1.748-5.781-0.452-7.419-13.212-10.011-26.436-20.198-39.3-30.761-2.222-1.992-9.264-4.755-4.447-7.176 1.669-0.811 6.69 0.124 8.772-0.18 5.876-0.713 11.285-2.816 16.471-5.437 5.187-2.621 1.87-10.043-3.457-9.719-8.18 0.499-14.246-8.174-21.109-11.125-2.548-1.086-5.065-1.642-7.749-1.833-5.179-0.393-5.8 1.949-8.439-3.741-2.416-5.172-1.432-4.7 2.548-8.312 1.816-1.529 2.089-3.319 1.421-4.874-0.341-2.462-2.394-4.819-5.818-4.61-10.273 0.626-24.659-0.447-33.722 4.361-4.806 2.598-7.961 7.223-12.957 9.833-5.926 3.021-12.52 4.487-18.69 6.636-5.039 1.903-9.688 3.959-14.303 6.546-3.686 2.175-18.517 9.463-9.289 1.098 8.499-7.788 23.298-6.208 31.819-13.642 4.899-4.2 6.457-9.969 2.139-15.025-4.508-5.045-11.644-6.205-8.198-15.458 1.644-4.356 4.896-7.391 5.176-12.195 0.739-9.797-11.3-38.142-24.419-21.562-2.67 3.177-2.053 7.04-3.159 10.831-2.075 6.687-8.442 11.863-16.349 10.572-10.413-1.67-16.184-11.78-28.072-9.459-7.925 1.547-11.439 6.549-13.144 13.036-3.263 12.256 0.488 29.936-5.093 38.61-3.313 5.167-8.316 10.791-12.835 14.967-5.955 5.682-10.667 6.679-18.837 7.354-6.077 0.548-11.974 0.907-18.072 1.102-3.055 0.009-24.372 1.131-26.299-2.298-5.136-9.084 24.099-18.136 29.393-18.991 8.686-1.593 24.343 1.53 31.439-4.222 5.639-4.599 3.273-12.079-2.649-15.265-1.385-0.802-3.108-0.874-4.673-1.488-7.233-2.751-11.719-7.442-0.74-8.998 6.055-0.901 11.805-0.542 17.362-3.364 3.507-1.987 6.378-4.999 7.695-8.448 0.991-2.543 1.199-5.392 0.075-8.161-1.335-3.11-4.35-5.586-7.85-6.614-0.782-0.307-2.326-0.567-3.859-0.651 0.729-0.576 1.468-0.976 2.006-1.541 4.54-3.823 12.243-5.888 14.985-11.02 2.067-3.672 0.689-7.489-1.788-10.53-2.89-3.547-5.269-4.998-7.071-9.498-1.102-2.415-1.612-4.512-3.453-6.527-7.566-8.227-21.052-7.05-29.235-0.345-4.91 4.023-8.011 9.531-10.341 15.17l-2.94 8.158c-0.822 2.178-1.665 4.002-2.498 6.004 0.761-9.444-3.428-21.778-16.045-18.881-9.224 2.158-11.669 9.045-11.776 16.676-1.353-9.67-11.421-15.084-20.039-9.24-13.636 8.101-9.486 32.317-7.591 44.613 0.693 5.1 7.994 30.897-0.305 29.452-3.478-0.674-2.351-22.907-2.157-29.125l-0.097-1.59c-0.054-0.883-0.298-1.755-0.711-2.262-4.81-9.991-16.066-9.837-26.166-6.384-1.87 0.646-3.496 2.164-3.769 3.953-2.466 15.931-0.915 31.972 6.099 46.793 3.963 8.624 9.792 13.411-0.833 20.796-6.96 4.857-14.741 2.494-21.396 6.092-8.884 4.62-5.226 14.504 1.913 18.856 4.76 2.901 10.52 3.437 16.271 3.795 4.989 0.405 10.136 0.269 15.294 0.309 3.826 0.121 11.192-1.214 14.386 1.073 3.195 2.288-1.816 1.529-4.795 2.775-3.909 1.657-6.612 4.304-9.505 6.963-5.976 5.329-12.512 10.87-17.082 17.354-5.456 7.602-8.808 24.651-1.665 32.195 1.429 1.509 2.95 1.416 4.347 2.395 0.772 0.13 1.543 0.261 2.304 0.214-1.098 0.776-1.044 1.659 0.162 2.65 2.286 3.052 4.731 5.563 9.106 5.296 4.946-0.302 7.986-3.679 10.043-7.527 4.124-7.521 10.032-17.102 19.924-17.705-0.822 2.178-1.823 4.544-1.96 5.439-0.671 4.651-0.477 7.831-2.692 12.221-1.54 2.931-3.862 5.555-5.804 8.156-5.983 8.344-14.82 16.862-11.701 27.31 0.711 2.262 3.27 3.524 5.754 3.55 4.006-0.067 3.941-1.127 5.826 1.595 1.059 1.709 0.111 4.958 0.219 6.724 0.151 2.473 0.704 5.276 1.985 7.503 3.421 5.997 10.42 8.053 17.128 5.339 14.146-6.004 9.939-24.898 15.157-36.386 1.339-3.096 3.173-7.463 5.707-9.745 3.072-2.847 1.719-3.119 3.266 0.333 2.182 4.477 0.998 13.238 1.099 18.019 0.262 7.431 0.334 14.874 0.205 22.152-0.14 7.101-2.792 16.837 2.351 22.907 4.329 5.233 12.932 5.418 19.314 3.61 7.512-2.054 10.064-7.174 9.454-14.052-0.086-1.413-1.188-3.828-0.894-5.265 1.095-7.16 6.185-1.974 7.966 2.173zM822.7 219.256c1.795-1.882 1.834-4.367 4.601-5.954a10.843 10.843 0 0 1 1.535-0.71c-0.328 0.149-0.654 0.311-0.975 0.499-2.767 1.587-2.807 4.072-4.601 5.954-1.3 1.364-2.679 2.223-4.119 2.713 1.238-0.512 2.428-1.316 3.559-2.502z m-86.887 40.582a16.107 16.107 0 0 1 1.603-0.836c-0.351 0.191-0.7 0.396-1.043 0.625-0.729 0.576-1.795 1.882-2.861 3.189-0.017-0.189-0.037-0.38-0.055-0.57 0.758-1.088 1.609-1.93 2.356-2.408z m-29.906-10.005c2.034-0.87 4.583-2.906 6.329-3.442-1.882 0.809-4.419 2.822-6.329 3.442z m-25.093 69.388c2.19 1.462 4.749 2.725 8.037 3.411 0.19-0.012 0.391 0.154 0.581 0.142l-0.538 0.565c-1.267 1.141-2.301 2.977-2.774 4.602-3.517 11.208 8.715 14.54 13.173 21.893-0.412 0.223-0.853 0.418-1.307 0.6-4.464-7.345-16.681-10.679-13.166-21.881 0.474-1.625 1.508-3.461 2.775-4.602l0.538-0.565c-0.19 0.012-0.391-0.153-0.581-0.142-2.548-1.086-5.108-2.348-7.297-3.811-5.585-3.915-12.294-10.598-5.398-16.515 0.86-0.731 1.991-1.312 3.311-1.789-1.082 0.435-2.015 0.952-2.751 1.578-6.896 5.916-0.177 12.776 5.397 16.514z m-32.333-48.03c7.265 12.678 21.263 7.392 33.367 8.604 10.179 0.975 9.289 8.299 14.792 13.992 1.418 1.332 2.814 2.311 4.58 3.09-0.216 0.06-0.438 0.116-0.66 0.172-1.708-0.612-3.09-1.745-4.48-3.051-5.492-5.517-4.602-12.841-14.792-13.992-12.294-1.201-26.091 4.25-33.367-8.605-1.493-2.569-1.106-5.607 1.651-7.37a23.044 23.044 0 0 1 3.071-1.642c-0.838 0.413-1.674 0.882-2.511 1.43-2.756 1.765-3.144 4.803-1.651 7.372z m-27.67-37.322c8.18 8.899 21.044 10.065 32.799 11.831 3.277 0.509 9.777 0.645 12.2 2.802 1.134 2.945 2.448 5.702 3.582 8.647-0.76 0.318-1.521 0.634-2.284 0.905 0.576-0.22 1.15-0.454 1.724-0.694-1.134-2.945-2.448-5.702-3.582-8.647-2.423-2.157-8.733-2.305-12.2-2.802-11.755-1.766-24.429-2.943-32.799-11.831-5.111-5.54-8.79-15.777-0.711-21.057a11.683 11.683 0 0 1 2.367-1.163 11.7 11.7 0 0 0-1.807 0.951c-8.091 5.104-4.401 15.518 0.711 21.058z m-47.793-12.913c3.124-1.584 7.134-2.739 10.503-4.302-3.174 1.665-7.18 2.829-10.503 4.302z m160.081-5.635c-3.205 6.933 0.646 10.599 6.253 14.868 8.622 6.744 17.423 13.3 26.235 20.033-1.414 1.859-2.215 4.391-1.852 7.205 0.599 6.701 6.913 10.04 12.466 13.425a7.083 7.083 0 0 1-1.019 0.405c0.153-0.064 0.308-0.118 0.459-0.193-5.553-3.385-11.676-6.735-12.466-13.425-0.363-2.815 0.449-5.169 1.852-7.205-8.812-6.733-17.613-13.288-26.235-20.033-5.617-4.445-9.458-7.934-6.253-14.868 2.773-5.916 7.213-10.855 12.5-13.967-5.042 3.14-9.269 7.977-11.94 13.755z m98.412-26.923c3.877 7.211 15.732 13.758 22.154 18.863 8.019 6.249 16.026 12.321 24.045 18.57-0.189 0.075-0.378 0.138-0.568 0.205-8.005-6.071-16.021-12.317-24.037-18.564-6.432-5.282-18.277-11.652-22.154-18.863-2.584-4.807-0.402-9.728 4.192-12.667 0.828-0.55 1.666-0.942 2.523-1.228-0.668 0.262-1.323 0.591-1.963 1.017-4.604 2.763-6.776 7.86-4.192 12.667z m-12.34-42.689c-4.63 8.616-4.756 19.085 8.733 21.1 4.049 0.64 8.169-0.675 12.229 0.141 4.831 0.947 7.879 3.952 11.665 6.559l-0.783 0.046c-3.694-2.729-6.707-5.466-11.443-6.394-4.049-0.64-8.18 0.499-12.229-0.141-13.478-1.838-13.352-12.307-8.733-21.1-3.615 0.22-7.229 0.441-10.632 1.003-0.82 0.122-1.578 0.288-2.306 0.478 0.89-0.278 1.838-0.512 2.865-0.69 3.405-0.561 7.019-0.781 10.634-1.002z m-34.294 13.867c-7.525 3.328-15.771 5.043-23.315 8.4 7.392-3.53 15.717-5.182 23.315-8.4z m-62.213 6.734c-0.754 6.429 5.625 10.828 11.788 11.693 6.926 0.927 12.528-1.885 18.023-5.045-5.671 3.341-11.417 6.341-18.583 5.256-6.163-0.866-12.541-5.264-11.788-11.693 1.037-8.042 13.693-13.424 20.38-16.491a45.024 45.024 0 0 1 2.631-1.134c-0.696 0.292-1.387 0.597-2.071 0.922-6.686 3.068-19.342 8.449-20.38 16.492z m35.911-68.682c2.904 6.915 0.89 11.471-2.157 17.863-3.216 6.757-2.362 14.506 3.141 20.199 0.413 0.507 3.977 2.595 4.411 3.455 2.929 1.063 2.814 2.311-0.736 3.591l-0.027 0.008c3.035-1.21 3.156-2.392 0.203-3.387-0.434-0.86-3.999-2.948-4.411-3.455-5.682-5.505-6.346-13.266-3.141-20.199 3.047-6.392 4.881-10.759 2.157-17.863-0.729-1.885-1.168-3.048-1.441-3.653 0.074-1.506 0.156-1.035 2.001 3.441z m-48.743 11.66c4.831 0.947 8.747 5.673 13.611 7.149 5.913 1.72 12.117 1.143 17.542-1.093-5.59 2.437-12.043 3.098-18.102 1.305-4.864-1.477-8.97-6.191-13.611-7.149-2.331-0.469-4.223-0.461-5.772-0.105 1.644-0.508 3.714-0.599 6.332-0.107zM596.543 177.19c6.009 4.598 16.525 4.844 23.808 5.286 11.69 0.706 23.284-0.178 34.867-1.239 5.779-0.592 10.163-1.105 14.233-3.243-4.173 2.385-8.632 2.828-14.793 3.454-11.583 1.061-23.176 1.945-34.867 1.239-7.283-0.443-17.8-0.688-23.808-5.286-12.832-10.034 8.173-25.677 17.056-30.296a55.812 55.812 0 0 1 6.891-3.058 55.271 55.271 0 0 0-6.331 2.846c-8.873 4.797-30.079 20.275-17.056 30.297z m51.829-39.331c0.201 0.165 0.782 0.307 1.375 0.625l-0.811 0.091c-0.498-0.233-0.952-0.364-1.124-0.505-12.785-6.136-11.945-20.549 1.292-25.789 0.113-0.042 0.226-0.079 0.339-0.119-13.031 5.142-13.783 19.596-1.071 25.697z m-43.51-43.449c0.574 3.157 2.452 8.893 1.684 11.955l0.108 1.767c-2.039 1.011-4.067 2.198-6.105 3.209-0.804-0.66 0.635-8.372 0.782-9.091 0.639-5.181 2.207-10.773 2.444-16.284 0.362 2.815 0.735 5.806 1.087 8.444z m45.157 4.695c1.116 5.783 8.23 6.591 13.557 6.266 0.951-0.058 5.843-1.243 6.245-0.913-0.147 0.718-0.093 1.602-0.24 2.32 0.341 1.877-0.244 3.051-1.708 3.459 1.049-0.535 1.442-1.631 1.148-3.248 0.147-0.718 0.093-1.602 0.24-2.32-0.402-0.33-5.294 0.855-6.245 0.913-5.327 0.325-12.441-0.483-13.557-6.266-0.698-4.179 2.018-6.233 5.318-7.798-3.118 1.541-5.532 3.592-4.758 7.587z m20.291-30.494c0.434 0.86 7.577 8.404 7.724 7.685-0.147 0.718-14.415 10.986-15.703 11.773-0.921 0.568-1.996 1.06-3.121 1.536 0.928-0.411 1.804-0.84 2.561-1.324 1.278-0.965 15.545-11.232 15.703-11.773-0.147 0.718-7.29-6.825-7.724-7.685-2.796-5.149-2.032-11.401-11.023-8.548-0.191 0.061-0.373 0.133-0.558 0.201 0.362-0.15 0.733-0.29 1.118-0.413 8.991-2.853 8.216 3.223 11.023 8.548z m-49.698 17.924c0.323 5.3 0.363 12.212 7.477 13.02a9.55 9.55 0 0 0 4.067-0.336 9.387 9.387 0 0 1-4.627 0.547c-7.125-0.984-7.154-7.72-7.477-13.02-0.155-2.537 0.972-7.276-0.478-7.25 2.431-1.394 0.865 4.204 1.038 7.039z m-28.439 3.33c-0.797 5.723-1.974 11.468-2.39 17.168-0.677 9.541 6.885 22.311 16.86 19.905-10.256 2.972-18.11-9.974-17.42-19.694 0.416-5.699 1.784-11.457 2.39-17.168 0.113-1.228 1.26-6.625 0.724-7.273 0.178-0.083 0.36-0.17 0.536-0.251 0.614 0.672-0.585 6.064-0.7 7.313z m-30.62 27.045c0.043 10.104-1.001 21.161 1.124 30.961 1.073 5.077 4.027 9.684 10.169 10.196 2.178 0.169 4.1-0.001 5.796-0.447-1.825 0.577-3.931 0.824-6.356 0.658-6.131-0.335-9.085-4.943-10.169-10.196-2.125-9.8-1.081-20.857-1.124-30.961-2.614-1.833-5.329-2.557-7.988-2.211l0.016-0.14c2.832-0.527 5.74 0.182 8.532 2.14zM539.4 192.022c2.622-0.549 5.129-1.284 7.594-2.273-2.643 1.146-5.326 2.033-8.154 2.484-1.626 0.303-3.658 0.048-4.751 0.156 0.75-0.371 3.33 0.002 5.311-0.367z m20.033 68.639c-0.327 0.906-0.843 1.825-1.17 2.731-0.463 1.801 1.726 3.264-0.05 2.308-0.447-0.215-0.846-0.945-1.225-1.756 0.327-0.887 0.827-1.785 1.146-2.672 0.991-2.543 3.101-5.508 5.075-7.579 3.143-3.388 7.824-6.824 12.988-9.144-4.645 2.289-8.812 5.431-11.688 8.533-1.975 2.071-4.096 4.86-5.076 7.579z m40.517 31.929c-1.317 3.449-2.814 7.087-3.359 10.666-0.262 1.966-0.334 3.921-0.406 5.876 1.299 3.637 0.766 5.77-1.697 6.317 1.238-0.978 1.401-2.895 0.397-5.706 0.072-1.955 0.144-3.91 0.406-5.876 0.736-3.591 2.042-7.217 3.36-10.666 2.635-6.898 6.471-15.998 13.865-19.995 0.458-0.248 0.92-0.464 1.383-0.655l-0.083 0.043c-7.215 3.809-11.041 13.086-13.866 19.996z m40.865 40.772c0.086 1.413 0.352 2.638 0.628 4.04-0.936 2.118-2.057 3.277-3.393 3.539 0.787-0.589 1.488-1.556 2.094-2.927-0.276-1.402-0.542-2.627-0.628-4.04 0.481-4.639-0.158-8.856 2.649-12.928 1.747-2.62 4.089-4.277 6.664-5.108-2.033 0.924-3.884 2.4-5.365 4.497-2.997 4.083-2.348 8.476-2.649 12.927zM382.597 160.378c0.68-3.653 3.429-6.619 3.775-10.451 1.012-10.651-10.603-22.376-21.616-20.856-4.544 0.705-6.071 4.332-5.75 8.524 0.194 2.832 2.202 5.495 2.053 8.43-0.364 4.397-2.672 2.29-5.668 4.118-3.228 1.99-3.265 4.985-1.668 8.144 1.17 2.354 3.945 7.585 6.648 7.896-3.115 0.185-7.766-2.9-10.563-3.836-3.969-1.424-12.248-4.171-15.282 0.652-3.565 5.541 3.356 6.549 4.704 10.435 0.836 2.174-0.811 6.023-0.548 8.461 0.383 2.216 1.168 4.219 2.526 5.958 2.931 3.879 10.885 6.163 14.492 10.12-3.755-1.022-7.21-2.6-11.156-1.141-5.093 1.988-7.357 7.513-6.216 12.579 1.635 7.343 8.732 11.748 13.895 16.545 1.316 1.285 10.23 10.834 6.062 12.173-2.054 0.614-2.146-1.876-3.222-3.605-1.025-1.558-2.221-3.065-3.478-4.461-5.145-5.361-12.046-8.8-18.725-12.118-0.556-0.3-6.252-2.513-6.456-3.198-0.316-0.745 1.474-1.932 2.176-2.701 2.218-2.248 4.445-4.778 5.612-7.737 1.965-4.969 1.252-11.096-3.279-14.403-2.103-1.423-4.431-1.1-6.552-1.958-1.712 0.512-2.823-0.089-3.164-1.851-1.487-1.234-1.503-2.534-0.098-4.073 0.524-2.301 2.127-4.738 3.156-6.91 0.789-1.727 0.415-4.226-1.535-5.135-3.566-1.638-5.073-0.442-8.539 0.128-6.76 1.088-6.23-6.808-8.69-11.294-4.005-7.474-11.6-10.425-19.287-6.822-1.489 0.632-2.065 2.761-1.604 4.302 0.46 1.541 0.93 2.799 1.561 4.288 0.213 0.402 2.773 7.096 1.884 6.616-2.728-1.329-6.478 1.097-5.395 4.409a1027.41 1027.41 0 0 0 7.498 22.279c0.409 1.369 1.912 3.904 1.757 5.255-0.027 0.847 0.076 1.189 0.127 1.361-0.342 0.102-0.745 0.316-1.558 1.025-4.35 3.538-10.508 1.649-13.148-2.503-3.442-5.591-4.864-12.531-8.528-18.242-3.126-4.846-7.133-10.454-11.947-13.77-3.044-2.074-6.841-3.549-10.556-2.253-2.859 1.041-2.51 2.521-4.655 0.645-1.923-1.756-2.74-6.36-3.961-8.885-4.79-9.476-13.45-16.305-24.43-14.049-1.934 0.392-3.143 2.897-2.52 4.669 3.676 10.742 7.293 21.594 10.567 32.549 0.503 1.994 3.425 6.155-0.186 5.929-1.241-0.095-3.711-2.434-4.994-2.983-3.566-1.638-7.39-2.266-11.283-2.502-3.893-0.235-4.806 5.445-1.693 7.125 4.78 2.58 4.944 9.99 7.694 14.202 1.025 1.558 2.23 2.783 3.667 3.845 2.761 2.065 3.986 0.86 3.34 5.248-0.577 3.995-0.953 3.362-4.539 4.153-1.592 0.289-2.414 1.281-2.621 2.461-0.729 1.616-0.457 3.773 1.544 4.853 6.003 3.24 13.68 8.964 20.568 9.236 3.67 0.115 7.172-1.584 10.953-1.409 4.457 0.253 8.708 1.686 12.977 2.555 3.542 0.62 6.921 1.008 10.48 1.063 2.883-0.023 13.937 0.776 5.627 2.607-7.685 1.737-15.405-4.439-22.97-2.924-4.322 0.826-7.354 3.783-6.819 8.378 0.645 4.655 4.218 7.876-1.176 12.285-2.552 2.068-5.513 2.766-7.467 5.588-4.079 5.694-7.917 27.166 5.65 21.712 2.688-0.99 3.785-3.555 5.824-5.47 3.665-3.333 9.176-4.234 13.134-0.662 5.223 4.686 4.684 12.865 12.227 15.644 5.029 1.853 8.872 0.052 12.256-3.29 6.415-6.299 10.919-18.367 17.297-21.671 3.792-1.972 8.705-3.627 12.804-4.573 5.469-1.355 8.488-0.299 13.328 2.17a189.997 189.997 0 0 1 10.561 5.701c1.719 1.071 14.109 7.903 13.909 10.667-0.512 7.332-20.314 2.529-23.607 1.182-5.474-2.093-13.098-9.511-19.234-8.516-4.886 0.808-6.355 6.188-4.22 10.211 0.478 0.976 1.419 1.627 2.068 2.552 3.033 4.221 3.798 8.654-2.949 5.729-3.737-1.587-6.832-3.832-11.007-4.076-2.712-0.028-5.451 0.79-7.48 2.422-1.507 1.196-2.69 2.855-3.094 4.934-0.413 2.361 0.354 4.929 1.935 6.787 0.325 0.462 1.094 1.165 1.923 1.756-0.625 0.093-1.189 0.076-1.703 0.229-3.979 0.723-9.077-0.737-12.536 1.416-2.534 1.503-3.187 4.309-2.933 7.03 0.296 3.175 1.09 4.895 0.419 8.266-0.284 1.856-0.782 3.31-0.502 5.184 1.173 7.667 9.186 11.706 16.288 10.515 4.262-0.714 8.063-2.969 11.479-5.575l4.701-3.922c1.276-1.034 2.432-1.846 3.648-2.768-3.959 5.472-6.218 14.445 1.95 17.131 5.987 1.94 9.935-1.384 12.849-5.984-2.856 6.354 0.774 13.194 7.798 12.679 10.687-0.117 17.411-16.298 20.945-24.44 1.518-3.344 7.064-21.597 11.184-17.793 1.701 1.636-7.245 14.752-9.679 18.462l-0.54 1.001c-0.3 0.556-0.489 1.172-0.447 1.625-1.035 7.768 5.344 11.642 12.307 13.103 1.292 0.267 2.772-0.083 3.595-1.074 7.342-8.814 12.469-19.11 14.072-30.59 0.999-6.638-0.484-11.602 8.244-12.346 5.724-0.499 9.211 3.68 14.293 3.839 6.716 0.324 8.358-6.973 5.976-12.135-1.588-3.441-4.623-5.797-7.718-8.042-2.65-2.005-5.592-3.736-8.473-5.579-2.103-1.422-6.739-3.207-7.677-5.723-0.939-2.516 1.592-0.289 3.73 0.004 2.815 0.371 5.322-0.285 7.941-0.882 5.349-1.132 11.091-2.196 16.081-4.527 5.906-2.698 14.164-11.878 12.973-18.981-0.238-1.421-1.127-1.901-1.546-2.988-0.385-0.351-0.769-0.702-1.214-0.942 0.907-0.085 1.207-0.64 0.9-1.667-0.143-2.661-0.577-5.049-3.133-6.429-2.89-1.56-5.86-0.579-8.454 1.035-5.128 3.118-12.028 6.858-17.809 3.738 1.276-1.034 2.723-2.119 3.134-2.615 2.116-2.59 3.196-4.591 6.081-6.479 1.961-1.239 4.246-2.015 6.309-2.911 6.48-2.962 14.627-5.024 16.783-12.474 0.447-1.625-0.519-3.295-1.904-4.186-2.274-1.371-2.635-0.704-2.675-3.023 0.044-1.412 1.791-3.053 2.391-4.164 0.84-1.556 1.578-3.455 1.691-5.26 0.322-4.851-2.84-8.567-7.622-9.283-10.189-1.337-14.891 11.629-22.117 16.772-1.909 1.41-4.572 3.418-6.849 3.911-2.79 0.647-2.132 1.29-1.71-1.354 0.449-3.49 4.389-8.397 6.121-11.339a322.895 322.895 0 0 1 8.168-13.536c2.734-4.267 7.864-9.249 7.245-14.751-0.474-4.706-5.237-7.851-9.496-9.002-4.987-1.4-8.334 0.813-10.563 5.208-0.48 0.889-0.764 2.746-1.467 3.515-3.286 3.967-4.205-0.979-3.655-4.127z m-134.461 12.403c-1.712 0.512-2.663 2.008-4.811 1.997a6.978 6.978 0 0 1-1.127-0.109c0.24 0.025 0.484 0.042 0.734 0.04 2.148 0.011 3.099-1.486 4.811-1.997 1.24-0.371 2.336-0.407 3.327-0.197-0.887-0.125-1.856-0.056-2.934 0.266z m63.967 5.962c-0.413 0.007-0.816-0.017-1.213-0.057 0.269 0.008 0.541 0.006 0.82-0.012 0.625-0.093 1.712-0.512 2.799-0.93-0.062 0.121-0.121 0.244-0.182 0.366-0.833 0.394-1.625 0.605-2.224 0.633z m13.053 16.622c-1.468-0.188-3.66 0.151-4.841-0.139 1.359 0.172 3.537-0.157 4.841 0.139z m40.037-33.328c-0.683-1.661-1.648-3.33-3.238-4.906-0.111-0.06-0.162-0.231-0.273-0.291l0.513-0.153c1.138-0.247 2.405-0.999 3.279-1.819 6.166-5.572 0.543-11.909 0.789-17.95 0.315 0.01 0.636 0.047 0.958 0.096-0.24 6.037 5.374 12.371-0.789 17.94-0.874 0.821-2.141 1.572-3.279 1.819l-0.514 0.154c0.111 0.06 0.162 0.231 0.273 0.291 1.025 1.558 1.99 3.228 2.673 4.888 1.672 4.348 2.941 10.775-3.144 11.941-0.756 0.141-1.608 0.096-2.529-0.08 0.77 0.117 1.488 0.132 2.135 0.011 6.087-1.166 4.878-7.704 3.146-11.941z m0.197 40.589c0.661-10.266-9.177-11.988-15.52-16.991-5.352-4.181-2.113-8.319-3.074-13.718-0.298-1.309-0.716-2.396-1.417-3.492 0.144 0.04 0.289 0.083 0.435 0.128 0.73 0.974 1.083 2.149 1.375 3.433 1.021 5.289-2.217 9.426 3.074 13.718 6.455 5.063 16.241 6.613 15.52 16.991-0.122 2.088-1.476 3.797-3.683 3.898-0.812 0.037-1.586 0-2.339-0.085 0.625 0.044 1.27 0.054 1.945 0.016 2.209-0.1 3.562-1.81 3.684-3.898z m1.584 32.438c-1.266-8.292-8.054-13.535-13.995-18.752-1.65-1.465-5.249-3.839-5.803-6.004 0.464-2.19 0.757-4.329 1.222-6.518 0.546 0.075 1.091 0.151 1.621 0.255-0.405-0.069-0.815-0.13-1.228-0.186-0.464 2.19-0.757 4.329-1.222 6.518 0.554 2.165 4.042 4.479 5.803 6.004 5.941 5.217 12.618 10.4 13.995 18.752 0.799 5.169-0.963 12.688-7.474 13.049a7.472 7.472 0 0 1-1.764-0.127c0.439 0.06 0.895 0.082 1.37 0.059 6.452-0.252 8.274-7.882 7.475-13.05z m22.01 24.695c-2.346-0.139-5.031-0.85-7.507-1.087 2.405 0.106 5.09 0.811 7.507 1.087z m-92.003-53.003c4.392-3.084 3.6-6.67 2.048-11.24-2.32-7.138-4.811-14.225-7.242-21.423 1.489-0.632 2.885-1.888 3.734-3.727 2.169-4.284-0.128-8.539-1.981-12.554 0.25 0.016 0.489 0.059 0.724 0.113-0.11-0.015-0.217-0.037-0.33-0.044 1.853 4.015 4.038 8.209 1.98 12.554-0.849 1.839-2.185 2.984-3.734 3.727 2.431 7.198 4.922 14.285 7.242 21.423 1.492 4.682 2.344 8.156-2.048 11.24-3.769 2.618-8.11 4.055-12.242 4.083 4.006-0.132 8.189-1.582 11.849-4.152zM231.65 188.43c0.519-5.749-3.69-13.907-5.387-19.274-2.166-6.625-4.393-13.138-6.559-19.763 0.134 0.021 0.264 0.05 0.396 0.075 2.226 6.511 4.391 13.134 6.557 19.756 1.637 5.478 5.907 13.525 5.387 19.274-0.346 3.833-3.412 6.054-7.091 6.221a6.701 6.701 0 0 1-1.876-0.143 6.63 6.63 0 0 0 1.483 0.074c3.618-0.055 6.743-2.387 7.09-6.22z m-9.033 30.296c5.822-3.605 9.807-9.923 2.985-15.903-2.034-1.816-4.84-2.469-6.815-4.396-2.359-2.278-2.946-5.179-4.098-8.098l0.457 0.248c1.054 2.961 1.723 5.686 4.035 7.919 2.034 1.816 4.78 2.58 6.815 4.396 6.881 5.868 2.896 12.187-2.985 15.902 2.112 1.14 4.224 2.28 6.345 3.138 0.506 0.215 0.994 0.381 1.474 0.522a13.88 13.88 0 0 1-1.867-0.591c-2.122-0.857-4.234-1.997-6.346-3.137z m24.443 3.66c5.47 0.63 10.742 2.494 16.234 3.113-5.471-0.46-10.764-2.39-16.234-3.113z m37.454 17.837c2.827-3.642 0.89-8.564-2.247-11.262-3.543-3.005-7.74-3.27-12.008-3.287 4.434-0.032 8.782 0.17 12.401 3.356 3.137 2.698 5.074 7.62 2.247 11.262-3.59 4.522-12.709 3.332-17.611 2.839a28.434 28.434 0 0 1-1.901-0.238c0.5 0.068 1.003 0.126 1.508 0.17 4.902 0.492 14.022 1.682 17.611-2.84z m-45.847 29.085c0.955-5.227 3.789-7.286 7.891-10.096 4.332-2.973 6.75-7.984 5.789-13.384-0.042-0.454-1.263-2.979-1.186-3.655-1.247-1.678-0.716-2.396 1.756-1.923l0.018 0.005c-2.157-0.334-2.667 0.341-1.381 1.987-0.078 0.676 1.143 3.201 1.185 3.655 1.132 5.349-1.397 10.3-5.789 13.384-4.101 2.811-6.764 4.819-7.891 10.096-0.296 1.403-0.484 2.264-0.557 2.728-0.603 0.89-0.473 0.574 0.165-2.797z m31.732 10.095c-2.359-2.278-2.791-6.531-4.97-9.143-2.677-3.13-6.377-4.966-10.26-5.519 4.05 0.49 7.921 2.362 10.653 5.588 2.179 2.612 2.722 6.925 4.97 9.143 1.134 1.107 2.199 1.768 3.202 2.099-1.113-0.271-2.309-0.945-3.595-2.168z m89.009-1.336c-1.655-4.913-7.469-8.769-11.393-11.605-6.301-4.55-13.142-8.099-20.043-11.537-3.467-1.677-6.12-2.91-9.205-3.046 3.235 0.022 5.905 1.324 9.599 3.115 6.901 3.438 13.742 6.987 20.043 11.537 3.924 2.836 9.738 6.692 11.393 11.605 3.454 10.622-14.19 12.725-20.907 12.402a35.3 35.3 0 0 1-5.013-0.571c1.521 0.264 3.06 0.44 4.62 0.502 6.776 0.212 24.472-1.721 20.906-12.402z m-43.812 5.635c-0.051-0.171-0.325-0.462-0.538-0.865l0.489 0.23c0.193 0.317 0.398 0.557 0.442 0.703 4.885 8.236-0.976 16.7-10.369 15.219-0.079-0.014-0.157-0.032-0.235-0.047 9.241 1.469 15.068-7.051 10.211-15.24z m8.187 41.745c0.858-2.121 1.949-6.269 3.525-7.859l0.6-1.112c1.523 0.104 3.106 0.097 4.629 0.202 0.205 0.685-3.487 4.865-3.839 5.249-2.296 2.924-5.268 5.77-7.462 9.036 0.849-1.839 1.758-3.789 2.547-5.516z m-23.603-18.771c1.536-3.908-2.158-6.907-5.27-8.587-0.556-0.3-3.746-1.304-3.849-1.647 0.351-0.385 0.651-0.941 1.002-1.325 0.51-1.261 1.278-1.768 2.252-1.501-0.789-0.045-1.419 0.483-1.859 1.569-0.351 0.385-0.651 0.941-1.002 1.325 0.102 0.342 3.293 1.347 3.848 1.647 3.113 1.68 6.806 4.679 5.27 8.587-1.171 2.786-3.464 3.077-5.902 2.865 2.328 0.163 4.451-0.232 5.51-2.933z m-22.797 11.382c0.078-0.676-1.113-7.778-1.464-7.394 0.351-0.385 12.202-1.596 13.221-1.62 0.73-0.021 1.518 0.059 2.327 0.167-0.675-0.077-1.327-0.125-1.934-0.098-1.078 0.136-12.929 1.347-13.221 1.62 0.351-0.385 1.542 6.718 1.464 7.394-0.355 4.115-3.122 7.646 2.994 9.081 0.13 0.03 0.259 0.05 0.389 0.075a8.697 8.697 0 0 1-0.782-0.143c-6.116-1.437-3.409-4.856-2.994-9.082z m34.611 6.624c1.8-3.335 4.363-7.55 0.67-10.549a5.876 5.876 0 0 0-2.41-1.229c0.986 0.167 1.934 0.57 2.803 1.298 3.633 3.11 1.13 7.214-0.67 10.549-0.862 1.597-3.267 4.08-2.443 4.575-1.885-0.01 1.087-2.86 2.05-4.644z m17.215 8c2.587-3.197 5.397-6.275 7.762-9.592 3.948-5.56 4.476-15.987-2.025-18.041 6.871 1.809 6.441 12.446 2.419 18.11-2.365 3.317-5.286 6.334-7.762 9.592-0.522 0.706-3.185 3.582-3.126 4.165-0.131-0.012-0.266-0.023-0.395-0.036-0.094-0.625 2.596-3.479 3.127-4.198z m27.308-5.644c3.754-6.156 8.475-12.509 10.946-19.214 1.296-3.464 1.359-7.305-1.898-9.781-1.16-0.871-2.303-1.444-3.422-1.772 1.241 0.293 2.516 0.885 3.815 1.84 3.317 2.365 3.253 6.206 1.898 9.781-2.471 6.705-7.192 13.057-10.946 19.214 0.783 2.035 2.036 3.432 3.659 4.16l-0.061 0.079c-1.787-0.677-3.155-2.133-3.991-4.307z m40.526-37.844a27.992 27.992 0 0 0-5.115-1.295c1.913 0.235 3.751 0.642 5.508 1.364 1.026 0.389 2.072 1.26 2.726 1.58-0.558-0.039-1.868-1.174-3.119-1.649z m14.416-48.779c0.522-0.436 1.156-0.812 1.678-1.247 0.934-0.932 0.251-2.592 0.891-1.385 0.171 0.288 0.122 0.873 0.031 1.499-0.516 0.424-1.132 0.794-1.643 1.22-1.507 1.196-3.801 2.255-5.684 2.818-3.032 0.951-6.946 1.39-10.713 0.98 3.464 0.246 6.979-0.195 9.754-1.066 1.885-0.565 4.119-1.512 5.686-2.819z m-10.814-33.688c2.029-1.632 4.23-3.315 5.875-5.299 0.882-1.103 1.654-2.266 2.425-3.428 0.63-2.669 1.727-3.777 3.315-3.241-1.061 0.158-1.87 1.266-2.357 3.328-0.771 1.163-1.542 2.326-2.425 3.428-1.756 1.923-3.845 3.667-5.875 5.299-4.059 3.264-9.616 7.442-15.263 7.265a9.096 9.096 0 0 1-1.021-0.09l0.063 0.003c5.476 0.229 11.093-4.061 15.263-7.265z m-7.702-39.186c0.48-0.889 0.789-1.727 1.158-2.677 1.318-0.958 2.381-1.267 3.229-0.955-0.662 0.08-1.417 0.421-2.27 1.041-0.369 0.949-0.678 1.788-1.158 2.677-2.005 2.65-3.223 5.438-6.322 6.924-1.961 0.976-3.896 1.158-5.653 0.756 1.487 0.155 3.078-0.089 4.694-0.842 3.21-1.426 4.488-4.325 6.322-6.924z" fill="#823A16" p-id="4821"></path></svg>