<?xml version="1.0" standalone="no"?><!DOCTYPE svg PUBLIC "-//W3C//DTD SVG 1.1//EN" "http://www.w3.org/Graphics/SVG/1.1/DTD/svg11.dtd"><svg t="1582352825600" class="icon" viewBox="0 0 1024 1024" version="1.1" xmlns="http://www.w3.org/2000/svg" p-id="4667" xmlns:xlink="http://www.w3.org/1999/xlink" width="24" height="24"><defs><style type="text/css"></style></defs><path d="M629.372 205.82c-16.788-44.885-52.661-50.593-56.685-51.095a4.383 4.383 0 0 0-4.124 1.814 15.873 15.873 0 0 0-2.395 7.98c-0.327 5.937 1.779 12.271 6.341 18.86 16.718 24.29 50.856 28.176 52.302 28.324h0.457v0.036a4.378 4.378 0 0 0 4.104-5.919zM697.1 164.01c-25.851-69.117-81.092-77.907-87.289-78.681a6.754 6.754 0 0 0-6.35 2.793 24.442 24.442 0 0 0-3.688 12.288c-0.503 9.143 2.74 18.896 9.764 29.042 25.744 37.403 78.313 43.387 80.539 43.616h0.703v0.055a6.743 6.743 0 0 0 6.321-9.113z" fill="#18944A" p-id="4668"></path><path d="M284.991 456.29c-28.495 51.057-45.038 111.44-45.038 176.21 0 183.09 131.701 331.513 294.162 331.513S828.277 815.589 828.277 632.5c0-64.77-16.543-125.153-45.038-176.21 0 0-122.43 51.837-254.96 51.837-116.773 0-243.288-51.837-243.288-51.837z" fill="#D5B9EA" p-id="4669"></path><path d="M276.471 495.671a257.645 145.233 0 1 0 515.29 0 257.645 145.233 0 1 0-515.29 0Z" fill="#C197DD" p-id="4670"></path><path d="M753.183 491.005c0 64.104-98.08 116.07-219.067 116.07a412.1 412.1 0 0 1-37.529-1.697c-103.107-9.431-181.538-57.049-181.538-114.373 0-64.104 98.08-116.07 219.067-116.07s219.067 51.967 219.067 116.07z" fill="#3A2C17" p-id="4671"></path><path d="M525.456 520.796c-1.774-129.717 5.699-251.197 21.315-344.592 8.404-50.257-6.179-17.133 5.95-45.662 14.277-33.582 30.629-50.824 48.6-51.248 8.146-0.192 15.026 11.377 15.367 25.841 0.341 14.464-27.865 5.179-41.592 87.277-14.917 89.212-21.964 206.394-20.075 332.092-0.696 0.033-1.391 0.079-2.09 0.095-9.357 0.219-18.54-1.105-27.475-3.803z" fill="#896B36" p-id="4672"></path><path d="M320.065 245.153c2.463-4.618 11.107-4.816 19.306-0.443 8.199 4.373-5.896 17.224 35.703 50.811 16.607 13.409 35.669 27.416 56.648 41.685-9.266-34.91-14.112-68.33-13.842-96.513 0.178-18.603-5.428-4.569-0.861-16.572 5.376-14.128 13.612-23.151 24.477-26.817 4.925-1.662 10.234 0.893 11.858 5.706 1.624 4.813-16.405 7.209-16.695 37.599-0.308 32.15 6.527 71.787 19.307 112.653 30.138 19.451 63.418 39.154 98.566 58.289-0.201 0.4-0.395 0.803-0.606 1.199-2.829 5.304-6.468 10.024-10.797 14.172-73.131-39.943-138.736-82.459-186.059-120.669-25.465-20.561-11.535-1.95-23.669-17.739-14.284-18.584-18.77-33.173-13.336-43.361z" fill="#896B36" p-id="4673"></path><path d="M542.273 447.474c0 22.452 22.953 33.964 45.405 33.964s41.795-1.431 41.795-23.883-24.096-50.734-46.547-50.734c-22.452 0-40.653 18.201-40.653 40.653zM357.625 526.783c0 22.452 22.953 33.964 45.405 33.964s41.795-1.431 41.795-23.883c0-22.452-24.096-50.734-46.547-50.734s-40.653 18.201-40.653 40.653z" fill="#896B36" p-id="4674"></path><path d="M643.035 469.866c0 22.452 22.953 33.964 45.405 33.964s41.795-1.431 41.795-23.883-24.096-50.734-46.547-50.734-40.653 18.201-40.653 40.653zM426.022 457.172c0 22.452 22.953 33.964 45.405 33.964s41.795-1.431 41.795-23.883c0-22.452-24.096-50.734-46.547-50.734-22.452 0.001-40.653 18.202-40.653 40.653zM576.905 550.632c4.531 21.99 31.473 28.193 55.554 23.232 24.081-4.962 44.539-10.638 40.008-32.628-4.531-21.99-36.082-44.366-60.163-39.404-24.081 4.961-39.929 26.81-35.399 48.8z" fill="#95804C" p-id="4675"></path><path d="M485.039 546.931c0 22.452 22.953 33.964 45.405 33.964s41.795-1.431 41.795-23.883-24.096-50.734-46.547-50.734c-22.452 0-40.653 18.201-40.653 40.653z" fill="#896B36" p-id="4676"></path><path d="M647.839 334.186c-25.851-69.117-81.092-77.907-87.289-78.681a6.754 6.754 0 0 0-6.35 2.793 24.442 24.442 0 0 0-3.688 12.288c-0.503 9.143 2.74 18.896 9.764 29.042 25.744 37.403 78.313 43.387 80.539 43.616h0.703v0.055a6.743 6.743 0 0 0 6.321-9.113zM468.04 190.88c25.851-69.117 81.092-77.907 87.289-78.681a6.754 6.754 0 0 1 6.35 2.793 24.442 24.442 0 0 1 3.688 12.288c0.503 9.143-2.74 18.896-9.764 29.042-25.744 37.403-78.313 43.387-80.539 43.616h-0.703v0.055a6.743 6.743 0 0 1-6.321-9.113zM483.563 358.52c13.991-37.406 43.887-42.163 47.24-42.582a3.65 3.65 0 0 1 3.436 1.512c1.247 2 1.933 4.294 1.996 6.65 0.272 4.948-1.483 10.227-5.284 15.717-13.932 20.243-42.383 23.481-43.588 23.605h-0.381v0.03a3.649 3.649 0 0 1-3.419-4.932zM244.124 352.099c25.851-69.117 81.092-77.907 87.289-78.681a6.754 6.754 0 0 1 6.35 2.793 24.442 24.442 0 0 1 3.688 12.288c0.503 9.143-2.74 18.896-9.764 29.042-25.744 37.403-78.313 43.387-80.539 43.616h-0.703v0.055a6.743 6.743 0 0 1-6.321-9.113zM441.831 308.602c-33.661-34.109-68.736-24.664-72.614-23.478a4.387 4.387 0 0 0-3.023 3.34 15.866 15.866 0 0 0 1.074 8.262c2.127 5.553 6.638 10.474 13.492 14.624 25.183 15.34 57.93 4.94 59.31 4.485l0.417-0.187 0.015 0.033a4.38 4.38 0 0 0 1.329-7.079zM391.791 425.633c18.749-50.129 58.813-56.504 63.308-57.065a4.896 4.896 0 0 1 4.605 2.026 17.726 17.726 0 0 1 2.675 8.912c0.365 6.631-1.987 13.705-7.081 21.063-18.671 27.128-56.798 31.467-58.413 31.633h-0.51v0.04a4.89 4.89 0 0 1-4.584-6.609zM481.358 262.174c18.749-50.129 58.813-56.504 63.308-57.065a4.896 4.896 0 0 1 4.605 2.026 17.726 17.726 0 0 1 2.675 8.912c0.365 6.631-1.987 13.705-7.081 21.063-18.671 27.128-56.798 31.467-58.413 31.633h-0.51v0.04a4.89 4.89 0 0 1-4.584-6.609zM473.429 273.75c-6.078-41.262-31.763-50.518-34.664-51.435-1.156-0.369-2.425 0.056-3.3 1.097-1.442 1.922-2.438 4.232-2.892 6.697-1.077 5.155-0.413 10.947 2.027 17.253 8.925 23.236 33.586 30.691 34.633 30.993l0.337 0.054-0.005 0.031c1.06 0.171 2.153-0.283 2.925-1.22 0.773-0.937 1.12-2.232 0.939-3.47z" fill="#18944A" p-id="4677"></path></svg>