<?xml version="1.0" standalone="no"?><!DOCTYPE svg PUBLIC "-//W3C//DTD SVG 1.1//EN" "http://www.w3.org/Graphics/SVG/1.1/DTD/svg11.dtd"><svg t="1582352770071" class="icon" viewBox="0 0 1024 1024" version="1.1" xmlns="http://www.w3.org/2000/svg" p-id="3097" xmlns:xlink="http://www.w3.org/1999/xlink" width="24" height="24"><defs><style type="text/css"></style></defs><path d="M709.737 568.237c-21.611-18.97 0-105.67 0-105.67 0-29.841-28.435-54.032-63.512-54.032H468.362c-35.076 0-63.511 24.191-63.511 54.032 0 0 21.611 86.7 0 105.67-39.84 34.973-103.06 41.44-103.06 90.488v223.046c0 50.015 47.659 90.561 106.449 90.561h298.108c58.79 0 106.449-40.545 106.449-90.561V658.725c0-49.048-63.221-55.515-103.06-90.488z" fill="#BBC4BB" p-id="3098"></path><path d="M556.685 825.242c-115.756 0.002-206.933-20.274-254.894-32.984v66.206c44.264 12.095 136.369 34.023 254.899 34.023 2.63 0 5.253-0.011 7.911-0.033 64.957-0.536 160.131-10.806 248.196-37.131v-66.027c-88.653 25.391-182.975 35.376-247.955 35.911-2.729 0.024-5.456 0.035-8.157 0.035z" fill="#DBDDDB" p-id="3099"></path><path d="M556.685 746.585c-115.756 0.002-206.933-20.274-254.894-32.984v56.374c44.264 12.095 136.369 34.023 254.899 34.023 2.63 0 5.253-0.011 7.911-0.032 64.957-0.536 160.131-10.806 248.196-37.131V710.64c-88.653 25.391-182.975 35.376-247.955 35.911a969.24 969.24 0 0 1-8.157 0.034z" fill="#DBDDDB" p-id="3100"></path><path d="M556.685 667.927c-111.525 0.002-200.236-18.82-249.465-31.562-3.457 6.391-5.429 13.711-5.429 22.36v32.593c44.264 12.095 136.369 34.023 254.899 34.023 2.63 0 5.253-0.011 7.911-0.032 64.957-0.536 160.131-10.806 248.196-37.131v-29.452c0-9.78-2.52-17.863-6.861-24.821-86.632 23.968-177.787 33.468-241.094 33.989-2.729 0.022-5.456 0.033-8.157 0.033zM564.842 913.698c-2.728 0.023-5.456 0.034-8.157 0.034-115.756 0.002-206.933-20.274-254.894-32.984v1.023c0 50.015 47.659 90.561 106.449 90.561h298.108c58.79 0 106.449-40.545 106.449-90.561v-3.984c-88.653 25.391-182.975 35.376-247.955 35.911z" fill="#DBDDDB" p-id="3101"></path><path d="M556.685 582.715c-58.715 0.001-111.102-5.217-154.74-12.017-24.839 20.429-57.521 30.986-78.685 47.564 49.243 12.231 131.582 28.422 233.43 28.422 2.63 0 5.253-0.011 7.911-0.032 59.071-0.487 143.132-9.03 224.112-30.37-21.642-15.81-53.616-26.442-77.644-46.899-54.451 8.999-105.973 12.968-146.227 13.299-2.729 0.022-5.456 0.033-8.157 0.033zM412.994 550.791c41.046 6.113 89.618 10.68 143.696 10.68 2.63 0 5.253-0.011 7.911-0.032 37.797-0.312 85.832-3.924 136.74-12.071-5.263-31.997 8.396-86.801 8.396-86.801 0-29.841-28.435-54.032-63.512-54.032H468.362c-35.076 0-63.511 24.191-63.511 54.032 0 0 14.069 56.46 8.143 88.224z" fill="#DBDDDB" p-id="3102"></path><path d="M402.111 440.351a155.183 69.839 0 1 0 310.366 0 155.183 69.839 0 1 0-310.366 0Z" fill="#BBC4BB" p-id="3103"></path><path d="M438.833 436.255a118.461 49.356 0 1 0 236.922 0 118.461 49.356 0 1 0-236.922 0Z" fill="#3A2C17" p-id="3104"></path><path d="M581.536 482.676c-1.164-117.396-10.518-227.142-26.639-311.305-8.676-45.289 5.224-15.632-6.358-41.185-13.634-30.077-28.795-45.328-45.063-45.328-7.374 0-13.351 10.614-13.351 23.707s25.321 4.091 39.492 78.073c15.4 80.393 24.277 186.26 25.251 300.022 0.631 0.015 1.26 0.041 1.893 0.041 8.469 0.001 16.749-1.393 24.775-4.025z" fill="#935537" p-id="3105"></path><path d="M727.372 71.979l-5.49 2.204c-1.719 0.67-42.136 17.261-62.435 38.44l-0.2 0.228c-1.07 1.402-7.353 9.29-12.682 17.289 0.482-4.503 0.606-9.24-0.162-13.791-2.988-19.584-8.966-36.869-16.917-48.78l-3.199-4.909-1.518 5.774c-0.345 1.312-8.431 33.137-4.711 54.738l0.062 0.297c0.283 1.056 0.912 3.466 1.832 6.374-11.549-11.033-30.985-20.351-31.869-20.724l-6.251-2.906 2.688 6.318c5.217 12.174 14.888 23.415 22.203 30.809 2.763 2.831 6.058 5.24 9.325 7.222a3399.281 3399.281 0 0 1-71.909-18.905c-2.756-0.724-3.86 3.475-1.104 4.199 20.664 5.713 41.266 11.13 62.033 16.449a42.439 42.439 0 0 0-3.86 0.809c-9.875 2.875-23.955 7.872-34.485 15.906l-5.448 4.179 6.906 0.413c0.953 0.11 19.731 1.259 34.84-1.783-0.766 0.781-1.567 1.692-2.368 2.604-12.786 15.017-21.995 30.833-25.914 44.674l-1.649 5.739 5.331-2.667c1.291-0.643 30.528-15.263 44.522-32.206l0.2-0.228c0.939-1.437 3.921-5.843 6.71-10.582 0.196 10.994 2.492 25.206 2.762 27.382l0.097 0.166c7.258 28.423 34.289 62.746 35.457 64.176l3.696 4.619 0.959-5.781c3.124-18.82 0.95-43.1-5.983-68.492-2.931-10.731-9.356-20.978-15.317-28.718 11.645 8.533 37.974 19.383 41.379 20.839l0.262 0.069c38.262 11.883 97.7 6.185 100.269 6.019l6.194-0.616-4.856-3.942c-19.907-16.597-50.007-31.245-84.67-41.34-16.79-4.975-36.05-4.287-49.958-2.612 8.272-3.717 17.387-9.037 24.284-16.062 18.524-18.699 32.394-38.902 38.895-56.694l2.049-6.197z m-62.951 71.397z m-15.353 6.535a130.518 130.518 0 0 1-5.66 1.845c0.217-1.293 0.413-2.914 0.699-4.928-0.286 2.014-0.482 3.635-0.699 4.928a132.734 132.734 0 0 0 11.618-4.097 132.734 132.734 0 0 1-5.958 2.252z m139.058 44.241l-0.198 0.012c-19.2-14.4-46.358-27.126-77.393-36.264 31.121 9.164 58.347 21.934 77.591 36.252z m-158.054-22.735z m-1.321 2.405z m-3.014-16.751c0.026-0.098 0.106-0.104 0.159-0.155-0.053 0.051-0.133 0.057-0.159 0.155l-0.012 0.011 0.012-0.011z m41.385 100.7a307.238 307.238 0 0 1 0 0z m-8.345-12.513a297.845 297.845 0 0 0 0 0z m-6.753-11.356z m-45.295-56.295c-10.384 12.281-18.371 25.052-22.788 36.517 9.211-5.154 27.378-16.091 37.03-27.722-9.686 11.763-27.819 22.568-37.03 27.722 4.452-11.596 12.439-24.367 22.788-36.517z m-28.026-9.192c0.076-0.044 0.158-0.086 0.234-0.13 8.263 0.061 20.84-0.263 30.083-3.123 2.078-0.749 4.275-1.63 6.376-2.537a159.768 159.768 0 0 1-6.41 2.668c-9.282 2.751-22.024 3.189-30.283 3.122z m16.83-50.556c4.145 6.977 10.013 14.391 17.058 21.446 5.273 5.435 13.074 9.172 17.893 11.147 0.026 0.045 0.056 0.089 0.037 0.161-4.814-1.967-12.632-5.846-17.965-11.176-7.011-7.184-12.878-14.601-17.023-21.578z m24.384 17.059c-6.728-6.96-17.606-13.607-24.7-17.577 7.224 4.004 18.103 10.652 24.7 17.577z m8.611-58.903a0.047 0.047 0 0 1 0.005 0.01c-2.168 10.419-5.636 31.12-3.13 46.025 1.735 6.208 4.645 15.952 7.215 21.117 0.58 0.994 1.195 1.857 1.644 2.817 0.097 0.166 0.193 0.331 0.325 0.366 0.877 0.932 1.658 1.699 2.342 2.299a99.018 99.018 0 0 0 2.359-7.734 99.28 99.28 0 0 1-2.394 7.865c-0.684-0.601-1.43-1.498-2.342-2.299-0.097-0.166-0.228-0.2-0.325-0.366l-1.644-2.817c-2.57-5.165-5.646-14.812-7.215-21.117-2.481-15.102 1.029-35.924 3.16-46.166z m34.761 40.143c-6.918 8.703-18.233 24.527-19.053 29.783 0.688-5.29 11.969-20.983 19.053-29.783z m54.687-34.584c-6.937 15.713-19.322 32.939-35.347 49.068 16.059-16.26 28.41-33.355 35.347-49.068zM207.562 276.861c20.908 28.775 56.363 58.108 99.448 82.326 16.075 9.13 35.274 14.039 52.127 16.488-25.977 4.144-61.11 12.827-88.862 30.463-57.388 36.092-104.19 78.052-131.582 118.28l-6.737 9.621 11.503-2.08c4.724-1.024 114.987-21.366 177.952-62.541l0.438-0.26c5.398-4.385 47.346-37.544 63.977-58.953-6.776 17.049-13.097 38.863-12.858 59.75 0.567 49.422 9.154 94.385 24.493 126.757l4.71 9.944 4.293-10.245c1.372-3.182 32.493-79.089 30.951-134.153l0.089-0.349c-0.634-4.067-3.812-30.913-9.124-50.866 7.478 7.119 15.134 13.538 17.569 15.649l0.479 0.308c34.001 23.383 94.327 34.715 96.99 35.21l11 2.069-5.936-9.514c-14.209-22.972-38.989-46.786-69.815-67.312-1.916-1.234-3.832-2.467-5.618-3.482 28.851-2.293 62.165-14.044 63.829-14.735l12.257-4.304-11.991-4.739c-23.153-9.08-51.152-10.847-70.465-10.949a79.965 79.965 0 0 0-7.387 0.529c34.758-20.308 69.167-40.705 103.535-61.67 4.603-2.728 0.445-9.742-4.157-7.013a6378.574 6378.574 0 0 1-120.102 71.195c4.878-5.261 9.586-11.31 13.116-17.845 9.398-17.122 21.068-42.403 24.214-67.073l1.597-12.794-9.789 8.468c-1.404 1.129-31.696 27.971-46.865 53.845 0.162-5.723 0.055-10.399 0.023-12.453l-0.041-0.568c-4.414-40.922-35.415-94.22-36.715-96.411l-5.716-9.643-3.246 10.513c-8.22 25.605-10.106 59.895-5.409 96.798 0.959 8.613 3.623 17.104 6.815 24.986-13.745-11.696-29.155-22.702-31.809-24.682l-0.479-0.308c-47.567-27.781-129.096-36.91-132.546-37.235l-11.049-1.151 6.893 10.129z m137.811 85.114z m24.931 4.128a250.464 250.464 0 0 0 23.09 1.409c-1.059-2.223-2.248-5.049-3.802-8.538 1.554 3.489 2.743 6.315 3.802 8.538a242.24 242.24 0 0 1-11.171-0.414 251.783 251.783 0 0 1-11.919-0.995zM275.35 413.2c-51.329 32.494-93.81 69.468-121.057 105.365-0.117 0.025-0.248 0.055-0.363 0.079 27.368-35.771 69.949-72.86 121.42-105.444z m147.097-22.713c1.486 1.751 3.237 3.659 5.16 5.652-1.923-1.992-3.674-3.901-5.16-5.652z m6.333 6.858z m-0.712-29.328c-0.007-0.005-0.02-0.009-0.027-0.014-0.097-0.164-0.245-0.133-0.368-0.199 0.122 0.066 0.27 0.034 0.368 0.199 0.007 0.004 0.02 0.009 0.027 0.014z m-26.461 213.206z m9.996-29.554z m6.55-23.163z m114.758-79.023c-19.289-4.56-57.598-14.726-81.151-30.975 23.423 16.03 61.863 26.416 81.151 30.975-13.884-18.426-34.888-37.37-59.966-54.195 24.949 16.606 45.952 35.55 59.966 54.195z m-70.384-75.267a300.201 300.201 0 0 1-12.95-1.515c4.261 0.556 8.682 1.013 12.82 1.296 18.163 0.4 41.039-5.496 55.929-9.864 0.16 0.04 0.33 0.074 0.489 0.115-14.88 4.377-38.112 10.152-56.288 9.968z m-19.774-44.849c-6.882 12.373-19.001 23.406-26.679 29.439-0.071-0.12-0.04-0.214-0.016-0.31 7.685-6.049 19.845-16.817 26.565-29.349 9.085-16.37 15.859-32.781 19.748-47.515-3.888 14.735-10.659 31.152-19.618 47.735z m19.923-48.832c-10.763 10.823-26.98 28.432-35.542 44.467 8.343-15.904 24.56-33.514 35.542-44.467z m-51.951 24.28c0.416 12.193-0.166 31.197-2.145 41.848l-1.517 5.934c-0.089 0.349-0.308 0.479-0.398 0.828-1.234 1.916-2.118 3.921-3.044 5.358a186.926 186.926 0 0 1-8.375-12.968 186.483 186.483 0 0 0 8.246 12.749c0.925-1.437 1.94-3.223 3.043-5.358 0.219-0.13 0.309-0.479 0.398-0.828 0.316-1.965 0.982-3.84 1.517-5.935 1.979-10.651 2.212-29.744 2.145-41.848-3.156-28.206-20.086-63.798-29.37-81.494l0.004-0.022c9.127 17.397 26.196 53.186 29.496 81.736z m-21.822 52.623c-4.19-9.067-32.776-31.809-49.753-43.959 17.326 12.239 45.782 34.762 49.753 43.959z m-166.322-78.224c20.623 24.797 51.734 49.301 89.112 70.386-37.248-20.867-68.489-45.589-89.112-70.386z" fill="#823A16" p-id="3106"></path></svg>