<?xml version="1.0" standalone="no"?><!DOCTYPE svg PUBLIC "-//W3C//DTD SVG 1.1//EN" "http://www.w3.org/Graphics/SVG/1.1/DTD/svg11.dtd"><svg t="1582352748087" class="icon" viewBox="0 0 1024 1024" version="1.1" xmlns="http://www.w3.org/2000/svg" p-id="2487" xmlns:xlink="http://www.w3.org/1999/xlink" width="24" height="24"><defs><style type="text/css"></style></defs><path d="M239.398 581.536c-28.981 38.223-45.805 83.429-45.805 131.919 0 137.069 133.946 248.186 299.177 248.186s299.177-111.117 299.177-248.186c0-48.49-16.825-93.695-45.805-131.919 0 0-124.517 38.808-259.306 38.808-118.766 0-247.438-38.808-247.438-38.808z" fill="#F5CAC5" p-id="2488"></path><path d="M230.453 613.357a262.037 117.351 0 1 0 524.074 0 262.037 117.351 0 1 0-524.074 0Z" fill="#C7A19D" p-id="2489"></path><path d="M259.672 609.587a236.588 93.787 0 1 0 473.176 0 236.588 93.787 0 1 0-473.176 0Z" fill="#3A2C17" p-id="2490"></path><path d="M469.82 575.783c0 19.771-20.213 29.909-39.983 29.909s-36.804-1.26-36.804-21.031 21.218-44.676 40.989-44.676 35.798 16.027 35.798 35.798zM556.949 653.571c3.99 19.364 27.715 24.827 48.92 20.458 21.205-4.369 39.22-9.367 35.231-28.732-3.99-19.364-31.774-39.068-52.979-34.699-21.206 4.369-35.162 23.608-31.172 42.973z" fill="#95804C" p-id="2491"></path><path d="M376.726 606.814c0 19.771-20.213 29.909-39.984 29.909s-36.804-1.26-36.804-21.031 21.218-44.676 40.989-44.676c19.772-0.001 35.799 16.027 35.799 35.798zM592.12 559.354c0 19.771-20.213 29.909-39.984 29.909s-36.804-1.26-36.804-21.031 21.218-44.676 40.989-44.676 35.799 16.027 35.799 35.798z" fill="#896B36" p-id="2492"></path><path d="M391.207 656.099c0 19.771 20.213 29.909 39.983 29.909s36.804-1.26 36.804-21.031-21.218-44.677-40.989-44.677-35.798 16.028-35.798 35.799z" fill="#95804C" p-id="2493"></path><path d="M624.854 595.862c0 19.771 20.213 29.909 39.984 29.909s36.804-1.26 36.804-21.031-21.218-44.676-40.989-44.676-35.799 16.027-35.799 35.798z" fill="#896B36" p-id="2494"></path><path d="M232.461 696.963m-13.69 0a13.69 13.69 0 1 0 27.38 0 13.69 13.69 0 1 0-27.38 0Z" fill="#C7A19D" p-id="2495"></path><path d="M278.095 729.819m-13.69 0a13.69 13.69 0 1 0 27.38 0 13.69 13.69 0 1 0-27.38 0Z" fill="#C7A19D" p-id="2496"></path><path d="M336.507 751.724m-13.69 0a13.69 13.69 0 1 0 27.38 0 13.69 13.69 0 1 0-27.38 0Z" fill="#C7A19D" p-id="2497"></path><path d="M387.617 762.676m-13.69 0a13.69 13.69 0 1 0 27.38 0 13.69 13.69 0 1 0-27.38 0Z" fill="#C7A19D" p-id="2498"></path><path d="M449.68 771.803m-13.69 0a13.69 13.69 0 1 0 27.38 0 13.69 13.69 0 1 0-27.38 0Z" fill="#C7A19D" p-id="2499"></path><path d="M513.568 773.628m-13.69 0a13.69 13.69 0 1 0 27.38 0 13.69 13.69 0 1 0-27.38 0Z" fill="#C7A19D" p-id="2500"></path><path d="M579.281 769.977m-13.69 0a13.69 13.69 0 1 0 27.38 0 13.69 13.69 0 1 0-27.38 0Z" fill="#C7A19D" p-id="2501"></path><path d="M635.867 755.374m-13.69 0a13.69 13.69 0 1 0 27.38 0 13.69 13.69 0 1 0-27.38 0Z" fill="#C7A19D" p-id="2502"></path><path d="M690.628 735.295m-13.69 0a13.69 13.69 0 1 0 27.38 0 13.69 13.69 0 1 0-27.38 0Z" fill="#C7A19D" p-id="2503"></path><path d="M745.389 702.439m-13.69 0a13.69 13.69 0 1 0 27.38 0 13.69 13.69 0 1 0-27.38 0Z" fill="#C7A19D" p-id="2504"></path><path d="M520.161 647.377l-3.978-1.361c14.446-40.406-0.209-74.636-17.063-114.309-19.68-46.268-41.976-98.608-23.029-173.976 9.945-39.883 30.357-97.561 70.972-146.55 24.39-29.31 44.174-41.348 45.012-41.872l2.198 3.559c-0.209 0.105-20.203 12.247-44.07 41.139-22.087 26.693-52.13 73.38-70.03 144.666-18.528 74.008 3.454 125.719 22.925 171.359 17.167 40.51 32.032 75.368 17.063 117.345z" fill="#18944A" p-id="2505"></path><path d="M498.407 620.928c-6.931-31.42-0.048-57.513 7.9-87.836 9.015-34.163 19.193-72.87 10.615-128.268-8.288-53.36-22.198-88.306-32.425-108.287-11.051-21.626-20.308-30.715-20.405-30.794l1.018-2.664c0.388 0.392 9.548 9.403 20.841 31.342 18.806 36.67 28.257 79.844 32.862 109.697 8.773 56.416-1.551 95.594-10.663 130.227-7.803 29.697-14.589 55.319-7.9 85.564l-1.843 1.019z" fill="#18944A" p-id="2506"></path><path d="M744.906 161.562S584.852 30.923 582.758 207.411c0 0 0 1.047 1.361 0.628 13.504-4.501 90.233-30.357 99.654-15.074 10.363 16.749-84.476 35.172-74.741 53.282 9.735 18.109 27.531 58.097 54.328 33.707 26.798-24.39 56.841-52.653 60.818-37.161 3.978 15.597-60.19 63.854-49.094 75.474 11.096 11.515 25.123 28.473 39.673 10.991 14.55-17.481 34.649-37.056 38.312-26.274 3.664 10.887-40.825 33.602-27.845 53.072s21.145 19.994 25.751 11.305c4.606-8.793 16.958-33.497 20.098-19.575 3.14 13.922-21.669 28.577-10.363 36.01 30.043 11.201 34.23 40.511 35.695 43.023 1.466 2.512 17.795-24.076 37.266-36.114 1.361-2.408-24.809-25.542-14.027-30.671s11.619 36.533 27.635 26.379c16.016-10.049 19.156-13.608 10.782-24.495-8.374-10.887-31.194-38.312-17.586-42.918s24.809 54.119 39.569 43.128c14.76-10.991 21.355-28.682 5.443-35.067-15.911-6.385-65.006-58.201-45.954-67.518 18.947-9.316 39.673 63.121 62.389 55.375 22.715-7.746-2.512-49.618-20.517-55.27-17.9-5.653-48.99-25.332-43.965-36.847 5.025-11.619 42.395 20.203 44.384 18.319 1.989-1.884-27.321-74.845-80.184-99.026-52.861-24.183-56.734 19.468-56.734 19.468zM394.55 256.956s-2.284-25.742-33.458-11.482-48.459 57.287-47.286 58.398 23.211-17.655 26.174-10.803c2.963 6.79-15.371 18.396-25.927 21.729-10.618 3.333-25.495 28.026-12.099 32.594 13.396 4.568 25.619-38.15 36.792-32.656 11.235 5.494-17.717 36.051-27.1 39.817-9.383 3.766-5.494 14.198 3.21 20.68 8.704 6.482 15.309-28.15 23.334-25.433s-5.432 18.89-10.371 25.31c-4.939 6.42-3.087 8.519 6.358 14.445 9.445 5.988 9.939-18.581 16.297-15.556s-9.075 16.668-8.272 18.087c11.482 7.099 21.112 22.779 21.976 21.297 0.864-1.482 3.333-18.766 21.05-25.372 6.667-4.383-7.963-13.025-6.111-21.236 1.852-8.21 9.136 6.358 11.852 11.544 2.716 5.124 7.531 4.815 15.186-6.667s-18.581-24.878-16.421-31.298c2.161-6.358 14.013 5.185 22.594 15.495 8.581 10.309 16.853 0.309 23.396-6.482 6.544-6.852-31.298-35.31-28.952-44.508 2.346-9.136 20.063 7.531 35.866 21.915 15.803 14.383 26.298-9.198 32.039-19.878 5.741-10.68-50.188-21.544-44.076-31.421 5.556-9.013 50.805 6.235 58.768 8.889 0.803 0.247 0.803-0.37 0.803-0.37-1.235-104.079-95.622-27.038-95.622-27.038z" fill="#58AA38" p-id="2507"></path><path d="M783.466 158.418c5.556 2.299 10.937 2.041 12.021-0.576 1.083-2.618-2.542-6.603-8.098-8.902-3.929-3.385-12.046-5.13-16.121-4.305-4.074 0.825-4.192 4.238-0.263 7.623 2.992 2.576 7.604 4.485 12.461 6.16z" fill="#FFFFFF" p-id="2508"></path><path d="M470.619 632.374c0 19.771 20.213 29.909 39.983 29.909 19.771 0 36.804-1.26 36.804-21.031s-21.218-44.676-40.989-44.676-35.798 16.027-35.798 35.798z" fill="#896B36" p-id="2509"></path></svg>