<?xml version="1.0" standalone="no"?><!DOCTYPE svg PUBLIC "-//W3C//DTD SVG 1.1//EN" "http://www.w3.org/Graphics/SVG/1.1/DTD/svg11.dtd"><svg t="1582352753846" class="icon" viewBox="0 0 1024 1024" version="1.1" xmlns="http://www.w3.org/2000/svg" p-id="2646" xmlns:xlink="http://www.w3.org/1999/xlink" width="24" height="24"><defs><style type="text/css"></style></defs><path d="M134.202 522.253c-33.377 39.953-52.755 87.204-52.755 137.888 0 143.271 154.267 259.416 344.566 259.416S770.579 803.411 770.579 660.14c0-50.684-19.377-97.935-52.755-137.888 0 0-143.408 40.564-298.647 40.564-136.782 0-284.975-40.563-284.975-40.563z" fill="#87AA9A" p-id="2647"></path><path d="M122.947 547.034a302.849 91.39 0 1 0 605.698 0 302.849 91.39 0 1 0-605.698 0Z" fill="#CACCCB" p-id="2648"></path><path d="M153.41 544.907a273.435 73.038 0 1 0 546.87 0 273.435 73.038 0 1 0-546.87 0Z" fill="#3A2C17" p-id="2649"></path><path d="M542.935 381.274c3.448 12.805 4.432 46.295 5.417 49.25 0.985 3.447-10.342 24.132-11.327 30.042-0.985 5.91-4.432 2.462-6.895-2.462-2.462-4.925-14.775 5.91-9.357-0.985 5.91-6.895 25.117-18.222 21.67-48.265-1.97-17.237-3.447-25.117-4.432-28.565-18.222-7.387-98.499-45.31-83.232-124.109 17.237-88.649 32.997-94.559 55.652-126.571-2.462 3.447-28.072 45.31 54.175 88.649 85.201 44.325 28.564 140.854-21.671 163.016z" fill="#17723B" p-id="2650"></path><path d="M781.143 460.501c-6.895 6.402-27.58 18.222-29.057 20.192-1.97 1.97-18.715 1.477-22.655 2.955-3.94 0.985-2.955-1.97-0.985-4.925s-8.372-7.387-2.462-5.91c6.402 1.477 20.192 9.85 37.43-2.462 10.342-6.895 14.282-10.835 16.252-12.312-1.478-13.79-4.432-76.829 49.742-93.574 61.069-18.715 69.934-10.835 97.514-7.387-2.955-0.492-37.922-2.462-37.43 63.039 0.985 67.964-78.306 64.517-108.349 40.384zM299.384 480.563c2.507-0.865 7.99-2.078 20.383-3.451 21.319-2.419 29.531 11.291 34.259 15.465 4.729 4.174-2.245-4.546 0.801-6.371 3.539-1.801 5.625-4.165 1.714-4.848-4.404-0.706-18.804-8.8-21.311-7.935s-26.215 1.689-35.212 4.212c-15.526-35.76-84.109-75.567-115.617-15.459-30.429 58.189-60.118 39.987-62.506 38.392 22.898 15.901 27.269 27.453 89.806 39.356 55.699 10.586 82.121-46.317 87.683-59.361zM830.254 595.992c-2.292-1.335-6.79-4.697-15.918-13.19-15.748-14.573-10.72-29.743-10.645-36.049s-1.979 4.668-5.35 3.551c-3.674-1.505-6.827-1.543-4.791 1.866 2.339 3.797 5.606 19.99 7.898 21.325s18.39 18.758 26.174 23.928c-16.958 35.103-2.354 113.045 63.75 97.684 63.946-14.926 69.534 19.448 69.884 22.298-2.899-27.726 3-38.578-28.799-93.726-28.333-49.109-88.69-31.986-102.203-27.687z" fill="#58AA38" p-id="2651"></path><path d="M759.966 600.37c0.985-9.85 9.85-32.505 9.85-34.967s13.79-13.297 16.252-17.237c2.462-3.447 3.94-0.492 3.94 3.447 0 3.94 11.82 0.492 5.91 3.448-5.91 2.955-22.162 5.417-28.072 26.595-3.447 12.312-4.432 18.222-4.925 20.685 10.342 10.342 54.175 58.114 21.67 106.872-35.952 55.159-48.757 54.667-72.889 69.934 2.462-1.477 31.52-22.655-11.82-74.859-45.31-53.191 20.192-102.933 60.084-103.918zM646.692 445.727c-4.432 2.955-17.73 6.895-18.715 7.387-0.985 0.985-10.835-1.478-12.805-1.478s-1.477-1.477 0-2.955-3.94-5.417-0.492-3.94 9.85 7.88 21.177 3.447c6.402-2.462 9.357-3.94 10.835-4.925 0.985-7.88 6.895-43.34 39.4-46.295 36.445-2.955 40.385 2.955 55.652 8.372-1.477-0.493-20.685-6.402-29.057 30.535-8.373 38.909-52.205 27.089-65.995 9.852z" fill="#58AA38" p-id="2652"></path><path d="M707.762 496.946c2.955-2.955 12.312-6.402 13.297-7.387 0.985-0.985 8.372 4.432 10.342 4.432s1.477 2.462 0.492 4.432c-0.985 1.97 3.94 8.372 0.985 5.417s-9.357-13.297-17.237-8.865c-4.432 2.462-6.402 3.94-7.387 4.925 0.985 11.327 2.955 61.562-21.67 58.607-28.072-2.955-32.012-11.82-44.817-23.147 1.477 0.985 17.237 12.805 16.252-38.415-0.985-53.681 35.46-28.071 49.743 0.001z m118.198 55.159c-4.432 2.955-17.73 6.895-18.715 7.387-0.985 0.985-10.835-1.477-12.805-1.477-2.462 0-1.477-1.477 0-2.955s-3.94-5.417-0.492-3.94c3.448 1.477 9.85 7.88 21.177 3.447 6.402-2.462 9.357-3.94 10.835-4.925 0.985-7.88 6.895-43.34 39.4-46.295 36.445-2.955 40.385 2.955 55.652 8.372-1.477-0.492-20.685-6.402-29.057 30.535-7.88 38.909-52.205 27.089-65.995 9.851z" fill="#17723B" p-id="2653"></path><path d="M563.62 471.893c-3.94 0.985-14.282 1.477-15.267 1.477-0.985 0.492-7.387-2.955-9.357-3.447s-0.492-1.477 0.492-1.97c1.477-0.492-1.97-4.432 0.492-2.955s5.417 7.88 14.775 6.895c5.417-0.493 7.88-0.985 8.865-1.478 2.463-5.417 13.79-30.042 37.922-25.61 27.087 5.417 28.565 9.85 38.415 17.237-0.985-0.492-13.79-8.865-27.087 16.252-12.805 26.104-42.355 8.867-49.25-6.401zM329.685 436.926c3.447 1.97 10.835 9.357 11.82 9.85s3.447 6.895 4.432 8.372-0.492 1.477-1.97 0.985c-1.477-0.492-1.477 3.94-1.97 1.477s0.492-8.372-6.402-14.282c-3.94-3.447-5.91-4.925-6.895-5.417-4.925 1.477-27.58 7.88-41.862-11.82-16.252-22.162-14.282-26.102-17.237-37.43 0.492 0.985 4.925 14.775 28.565 9.357 25.117-5.909 35.952 25.118 31.519 38.908z" fill="#58AA38" p-id="2654"></path><path d="M436.049 550.584l85.734-96.44 12.509 11.125-85.729 96.44-12.514-11.125z m-96.883-100.085l16.435-3.201 24.699 126.64-16.435 3.206-24.699-126.645z" fill="#58AA38" p-id="2655"></path><path d="M524.233 456.512l107.645-6.816 0.872 13.765-107.645 6.816-0.872-13.765z" fill="#58AA38" p-id="2656"></path><path d="M621.269 460.516l4.349-13.086 102.355 34.017-4.349 13.091-102.355-34.022z" fill="#58AA38" p-id="2657"></path><path d="M714.174 490.859l8.678-10.712 83.808 67.895-8.683 10.717-83.803-67.9z" fill="#58AA38" p-id="2658"></path><path d="M458.343 525.001c0 17.713-18.108 26.795-35.821 26.795s-32.973-1.129-32.973-18.841c0-17.713 19.009-40.025 36.722-40.025s32.072 14.359 32.072 32.071zM287.255 545.725c0 17.713-18.108 26.795-35.821 26.795s-32.973-1.129-32.973-18.841 19.009-40.025 36.722-40.025 32.072 14.359 32.072 32.071zM536.744 554.44c0 17.713 18.108 26.795 35.821 26.795 17.713 0 32.973-1.129 32.973-18.841 0-17.713-19.009-40.025-36.722-40.025s-32.072 14.359-32.072 32.071z" fill="#896B36" p-id="2659"></path><path d="M360.736 567.045c0 23.617 27.578 35.728 54.554 35.728 26.976 0 50.216-1.505 50.216-25.122s-28.951-53.368-55.927-53.368c-26.974-0.001-48.843 19.145-48.843 42.762z" fill="#896B36" p-id="2660"></path><path d="M457.782 564.398c3.869 18.779 27.17 24.016 48.021 19.719 20.851-4.296 38.568-9.194 34.699-27.973-3.869-18.779-31.12-37.823-51.971-33.527-20.852 4.296-34.618 23.002-30.749 41.781zM280.605 571.072c0 17.713 18.108 26.795 35.821 26.795s32.973-1.129 32.973-18.841c0-17.713-19.009-40.025-36.722-40.025s-32.072 14.358-32.072 32.071z" fill="#95804C" p-id="2661"></path><path d="M704.649 539.692c-61.07-51.22-133.466 0.492-148.734 12.805-3.448-0.985-10.835-2.955-27.087-9.85-27.58-11.327-28.072-33.982-31.52-42.355-3.448-8.372-0.492 7.387-5.417 7.387-5.417 0-9.85 0.985-5.417 4.925 4.432 3.94 17.237 24.132 20.685 24.625 2.955 0.492 32.997 16.252 45.802 19.207-5.417 54.175 51.712 150.704 131.989 98.007 77.322-51.219 101.454-7.88 103.424-4.432-17.238-35.46-14.775-52.698-83.725-110.319z" fill="#3B9548" p-id="2662"></path><path d="M345.908 549.056c0.492-1.477 0-10.342 0.492-12.312 0.493-2.463-0.985-0.985-1.97 0.492s-3.448-3.447-2.462 0c0.492 2.955 4.432 8.865 0.492 20.685-2.462 6.895-3.447 9.357-4.432 10.835-5.417 1.477-30.042 10.835-34.967 42.847-5.417 35.952-1.97 39.4 0.492 53.682 0-1.477-2.462-19.7 23.147-31.027 26.595-11.82 22.655-53.682 12.312-65.994 2.464-4.926 6.404-17.731 6.896-19.208zM214.781 612.787a3.762 3.762 0 0 0-0.368 0.293c0.126-0.099 0.246-0.195 0.368-0.293z" fill="#58AA38" p-id="2663"></path><path d="M358.713 510.149c-1.478 0.985 0.493-2.955-0.985-0.492-1.478 2.462-2.955 7.387-11.82 16.252-4.925 4.925-7.387 6.895-8.372 7.88-3.94 0.492-21.177 5.417-42.355 29.55a747.512 747.512 0 0 0-8.31 9.85c-0.474 0.052-0.957 0.115-1.448 0.186 0.285-0.996-0.118-0.649-0.908 0.139-0.248 0.042-0.502 0.091-0.754 0.138-0.178-0.477-0.073-1.442-0.4-0.463a7.056 7.056 0 0 0-0.109 0.557c-3.813 0.754-8.062 2.114-12.695 4.368-19.134 9.112-20.993 11.903-26.621 16.558-0.48 0.218-0.962 0.441-1.451 0.679-20.306 9.669-21.157 12.222-27.704 17.437 1.914-1.393 10.728-6.679 22.779-2.662 4.281 1.476 9.18 1.174 14.023-0.16a63.095 63.095 0 0 0-1.711 3.115c-10.835 20.192-9.85 22.655-12.312 30.535 0.492-0.985 3.447-11.327 17.237-16.252 12.855-3.546 20.519-23.445 20.487-33.133 0.151-0.247 0.287-0.489 0.406-0.725 0.093-0.076 0.191-0.152 0.285-0.228 4.151-0.723 8.382-2.318 12.272-4.323 0.011-0.001 0.031-0.005 0.04-0.005 0.624 0 2.63-1.382 4.393-2.521-0.167 0.428-0.31 0.758-0.453 1.044-2.462 1.477-13.79 8.372-17.237 28.565-4.432 22.655-2.955 24.625-2.955 32.997 0-0.985 0-12.312 11.82-20.192 12.312-8.865 12.805-34.475 8.865-41.37 0.199-0.398 0.407-0.9 0.619-1.463 0.755-0.474 1.421-0.859 1.843-0.999 0.979-0.326 0.874-0.436 0.264-0.473a47.44 47.44 0 0 0 3.464-2.752c4.301-1.983 8.611-5.014 12.727-8.645 2.305-0.784 4.264-1.427 4.723-1.427 0.985 0 5.417-3.447 6.895-3.94 1.477-0.492 0.492-0.492-0.985-0.492-0.985 0 0.985-1.97-0.492-0.985-1.404 1.404-3.263 4.141-9.782 6.523 13.702-12.239 25.138-30.894 26.527-38.536 3.94-3.447 13.297-13.297 14.282-14.282s5.91-7.88 7.387-9.85c1.476-1.973 0.491-0.988-1.479-0.003z m-108.406 82.078a53.438 53.438 0 0 0-4.675 1.704 25.273 25.273 0 0 1 4.675-1.704z" fill="#58AA38" p-id="2664"></path></svg>