<?xml version="1.0" standalone="no"?><!DOCTYPE svg PUBLIC "-//W3C//DTD SVG 1.1//EN" "http://www.w3.org/Graphics/SVG/1.1/DTD/svg11.dtd"><svg t="1582352726085" class="icon" viewBox="0 0 1024 1024" version="1.1" xmlns="http://www.w3.org/2000/svg" p-id="1817" xmlns:xlink="http://www.w3.org/1999/xlink" width="24" height="24"><defs><style type="text/css"></style></defs><path d="M638.094 975.873H411.713c-18.848 0-34.251-15.403-34.251-34.251h294.883c0 19.051-15.2 34.251-34.251 34.251z" fill="#AAD5D6" p-id="1818"></path><path d="M665.049 952.971H384.758c-96.065 0-173.89-77.825-173.89-173.89s77.825-173.89 173.89-173.89h280.291c96.065 0 173.89 77.825 173.89 173.89-0.001 95.863-77.825 173.89-173.89 173.89z" fill="#80A9B2" p-id="1819"></path><path d="M697.982 656.264H351.216l-18.443-93.43h384.26l-19.051 93.43zM668.291 952.971H381.515a37.398 37.398 0 0 0 7.093 11.957l279.683-11.957z" fill="#AAD5D6" p-id="1820"></path><path d="M656.131 604.989H515.276c-47.424 0-90.188 18.848-121.601 49.654l262.456-49.654z" fill="#AAD5D6" p-id="1821"></path><path d="M715.615 569.319l0.203-0.203H333.989l13.984 69.718 367.642-69.515z" fill="#AAD5D6" p-id="1822"></path><path d="M828.235 718.874c-24.484-66.374-88.29-113.682-163.186-113.682H384.758c-74.897 0-138.702 47.308-163.187 113.682h606.664zM210.868 779.081c0 0.59 0.017 1.176 0.022 1.764h628.026c0.006-0.589 0.022-1.174 0.022-1.764a174.24 174.24 0 0 0-5.703-44.317H216.571a174.246 174.246 0 0 0-5.703 44.317zM230.123 858.708c28.88 55.992 87.27 94.264 154.634 94.264h280.291c67.328 0 125.691-38.331 154.587-94.264H230.123zM826.861 842.817a172.662 172.662 0 0 0 11.188-46.082H211.754a172.962 172.962 0 0 0 11.158 46.082h603.949z" fill="#AAD5D6" p-id="1823"></path><path d="M325.234 544.621a199.669 69.888 0 1 0 399.338 0 199.669 69.888 0 1 0-399.338 0Z" fill="#80A9B2" p-id="1824"></path><path d="M701.772 543.314c0 30.265-79.187 54.799-176.869 54.799a567.5 567.5 0 0 1-30.3-0.801c-83.246-4.453-146.569-26.934-146.569-53.998 0-30.264 79.187-54.799 176.869-54.799s176.869 24.534 176.869 54.799z" fill="#3A2C17" p-id="1825"></path><path d="M837.193 374.342C503.277 367.71 514.738 539.77 523.62 585.639l39.21 11.558s21.34-80.543 133.162-139.263a1454.203 1454.203 0 0 0 141.201-83.592z m0 0M489.792 595.215c-15.125-90.207-72.207-242.728-271.188-394.119 21.752 84.911 65.708 203.844 151.085 282.947l120.103 111.172z m0 0" fill="#18944A" p-id="1826"></path><path d="M578.601 117.643c-15.391 42.335-33.883 83.997-55.374 124.737-76.662 146.688-46.256 297.676-34.223 353.894 23.466 3.787 22.708 6.49 44.488 4.237 30.718-3.178 38.133-7.415 38.133-7.415 29.811-78.36 20.952-317.037 6.976-475.453z m0 0" fill="#58AA38" p-id="1827"></path></svg>