<?xml version="1.0" standalone="no"?><!DOCTYPE svg PUBLIC "-//W3C//DTD SVG 1.1//EN" "http://www.w3.org/Graphics/SVG/1.1/DTD/svg11.dtd"><svg t="1582352805901" class="icon" viewBox="0 0 1024 1024" version="1.1" xmlns="http://www.w3.org/2000/svg" p-id="4203" xmlns:xlink="http://www.w3.org/1999/xlink" width="24" height="24"><defs><style type="text/css"></style></defs><path d="M204.977 582.264l114.576 355.648c0 30.744 86.428 55.667 193.043 55.667 106.615 0 193.043-24.923 193.043-55.667l112.715-366.169-613.377 10.521z" fill="#F9C4DA" p-id="4204"></path><path d="M535.957 908.135c75.772-4.21 137.827-14.756 187.211-27.168l17.436-56.644c-52.433 14.148-119.903 26.469-203.709 31.125a605.367 605.367 0 0 1-33.578 0.934c-51.229 0-101.846-6.545-150.904-19.54-24.896-6.595-49.413-14.865-73.38-24.704l18.983 58.925a575.133 575.133 0 0 0 59.146 19.114c57.899 15.29 118.054 21.337 178.795 17.958z" fill="#FCE8F1" p-id="4205"></path><path d="M503.317 783.033c-51.229 0-101.846-6.545-150.904-19.54-34.521-9.145-68.317-21.496-100.915-36.824l20.676 64.18c27.613 12.142 56.043 22.097 84.988 29.74 57.899 15.291 118.054 21.338 178.795 17.959 88.235-4.902 157.874-18.396 210.558-33.425l18.867-61.291c-55.35 17.006-130.823 32.842-228.486 38.268a607.38 607.38 0 0 1-33.579 0.933z" fill="#FCE8F1" p-id="4206"></path><path d="M357.162 747.239c57.899 15.291 118.054 21.337 178.795 17.959 102.933-5.719 180.555-23.13 235.478-41.03l46.92-152.425-613.377 10.521 39.329 122.078c36.209 18.246 74.067 32.653 112.855 42.897zM536.895 925.036a605.367 605.367 0 0 1-33.578 0.934c-51.229 0-101.846-6.545-150.904-19.54a591.112 591.112 0 0 1-47.797-14.88l14.936 46.363c0 30.744 86.428 55.667 193.043 55.667 106.615 0 193.043-24.923 193.043-55.667l11.73-38.108c-48.677 11.595-108.557 21.236-180.473 25.231z" fill="#FCE8F1" p-id="4207"></path><path d="M204.052 571.743a307.545 128.33 0 1 0 615.09 0 307.545 128.33 0 1 0-615.09 0Z" fill="#F9C4DA" p-id="4208"></path><path d="M233.921 567.62a277.676 102.561 0 1 0 555.352 0 277.676 102.561 0 1 0-555.352 0Z" fill="#3A2C17" p-id="4209"></path><path d="M537.052 497.423c0 16.595-16.965 25.104-33.56 25.104s-30.891-1.058-30.891-17.652c0-16.595 17.809-37.499 34.404-37.499s30.047 13.452 30.047 30.047z" fill="#FFFFFF" p-id="4210"></path><path d="M589.27 504.309c0 16.595-16.965 25.104-33.56 25.104-16.595 0-30.891-1.058-30.891-17.652s17.81-37.499 34.404-37.499 30.047 13.452 30.047 30.047z" fill="#EDEDED" p-id="4211"></path><path d="M460.776 503.608c0 16.595-16.965 25.104-33.56 25.104-16.595 0-30.891-1.058-30.891-17.652 0-16.595 17.81-37.499 34.404-37.499 16.594-0.001 30.047 13.452 30.047 30.047z" fill="#FFFFFF" p-id="4212"></path><path d="M608.584 590.458c0 16.595-16.965 25.104-33.56 25.104s-30.891-1.058-30.891-17.652c0-16.595 17.81-37.499 34.404-37.499 16.594 0 30.047 13.452 30.047 30.047z" fill="#DBDBDB" p-id="4213"></path><path d="M670.507 540.715c0 16.595 16.965 25.104 33.56 25.104 16.595 0 30.891-1.058 30.891-17.652 0-16.595-17.81-37.499-34.404-37.499-16.594 0-30.047 13.452-30.047 30.047z" fill="#FFFFFF" p-id="4214"></path><path d="M380.51 537.382c-2.196 16.449-20.139 22.638-36.587 20.441s-30.48-5.137-28.283-21.586c2.196-16.449 22.616-34.812 39.065-32.615 16.447 2.196 28.001 17.311 25.805 33.76z" fill="#DBDBDB" p-id="4215"></path><path d="M704.436 577.009c-0.353 16.591 16.427 25.459 33.018 25.812 16.591 0.353 30.907-0.4 31.26-16.991 0.353-16.591-17.008-37.869-33.599-38.222-16.59-0.353-30.326 12.81-30.679 29.401z" fill="#FFFFFF" p-id="4216"></path><path d="M405.115 616.991c0 16.595-16.965 25.104-33.56 25.104s-30.891-1.058-30.891-17.652 17.81-37.499 34.404-37.499c16.594 0 30.047 13.453 30.047 30.047z" fill="#DBDBDB" p-id="4217"></path><path d="M475.207 639.668c0 16.595-16.965 25.104-33.56 25.104-16.595 0-30.891-1.058-30.891-17.652 0-16.595 17.809-37.499 34.404-37.499s30.047 13.452 30.047 30.047zM444.337 563.432c0 16.595-16.965 25.104-33.56 25.104s-30.891-1.058-30.891-17.652c0-16.595 17.81-37.499 34.404-37.499 16.594 0 30.047 13.453 30.047 30.047z" fill="#FFFFFF" p-id="4218"></path><path d="M629.465 586.021c0 16.595 16.965 25.104 33.56 25.104 16.595 0 30.891-1.058 30.891-17.652s-17.81-37.499-34.404-37.499-30.047 13.453-30.047 30.047z" fill="#DBDBDB" p-id="4219"></path><path d="M549.421 643.791c0 16.595-16.965 25.104-33.56 25.104-16.595 0-30.891-1.058-30.891-17.652 0-16.595 17.81-37.499 34.404-37.499 16.595 0 30.047 13.452 30.047 30.047z" fill="#EDEDED" p-id="4220"></path><path d="M613.329 635.545c0 16.595-16.965 25.104-33.56 25.104-16.595 0-30.891-1.058-30.891-17.652 0-16.595 17.81-37.499 34.404-37.499 16.594 0 30.047 13.452 30.047 30.047z" fill="#EDEDED" p-id="4221"></path><path d="M709.053 619.275c0 16.595-16.965 25.104-33.56 25.104s-30.891-1.058-30.891-17.652 17.81-37.499 34.404-37.499c16.594 0 30.047 13.453 30.047 30.047z" fill="#FFFFFF" p-id="4222"></path><path d="M263.992 574.959c0 16.595 16.965 25.104 33.56 25.104 16.595 0 30.891-1.058 30.891-17.652 0-16.595-17.81-37.499-34.404-37.499s-30.047 13.453-30.047 30.047z" fill="#EDEDED" p-id="4223"></path><path d="M668.99 515.977c0 16.595-16.965 25.104-33.56 25.104s-30.891-1.058-30.891-17.652c0-16.595 17.81-37.499 34.404-37.499 16.594 0 30.047 13.452 30.047 30.047z" fill="#DBDBDB" p-id="4224"></path><path d="M637.446 534.798c0 16.595-16.965 25.104-33.56 25.104-16.595 0-30.891-1.058-30.891-17.652 0-16.595 17.81-37.499 34.404-37.499s30.047 13.452 30.047 30.047z" fill="#FFFFFF" p-id="4225"></path><path d="M527.549 575.375c0 16.595-16.965 25.104-33.56 25.104s-30.891-1.058-30.891-17.652c0-16.595 17.81-37.499 34.404-37.499 16.594 0 30.047 13.453 30.047 30.047z" fill="#DBDBDB" p-id="4226"></path><path d="M511.873 314.007c23.09-22.042 22.519-35.912 13.687-45.131-8.745-9.214-22.519-10.355-45.608 11.686-16.461 15.715-28.714 43.689-34.396 58.46v-77.441c11.284-3.433 47.044-15.346 66.317-33.749 23.09-22.04 22.519-35.912 13.687-45.131-8.745-9.213-22.519-10.354-45.608 11.686-16.461 15.713-28.714 43.688-34.396 58.46V208.34c6.425-13.266 19.67-43.543 19.67-67.731 0-31.923-10.36-41.044-23.089-41.044-12.73 0-23.09 9.121-23.09 41.044 0 24.063 13.112 54.159 19.574 67.531v44.697c-5.684-14.774-17.938-42.741-34.391-58.45-23.09-22.04-36.868-20.899-45.702-11.686-8.837 9.218-9.409 23.09 13.682 45.131 19.274 18.404 55.106 30.317 66.411 33.749v77.431c-5.684-14.773-17.938-42.738-34.391-58.45-23.09-22.042-36.868-20.9-45.609-11.686-8.833 9.219-9.404 23.089 13.681 45.131 19.275 18.403 55.028 30.313 66.318 33.746v77.341c-5.684-14.773-17.938-42.738-34.391-58.451-23.09-22.04-36.868-20.899-45.609-11.686-8.833 9.218-9.404 23.09 13.681 45.131 19.275 18.404 55.028 30.314 66.318 33.747v77.433c-5.684-14.773-17.938-42.737-34.391-58.445-23.09-22.046-36.868-20.905-45.702-11.686-8.837 9.214-9.409 23.084 13.682 45.131 19.274 18.403 55.106 30.313 66.411 33.744v53.855h6.936V520.01c11.284-3.432 47.044-15.341 66.317-33.743 23.09-22.046 22.519-35.917 13.687-45.131-8.745-9.219-22.519-10.36-45.608 11.686-16.461 15.712-28.714 43.685-34.396 58.455v-77.441c11.284-3.432 47.044-15.342 66.317-33.749 23.09-22.04 22.519-35.912 13.687-45.131-8.745-9.213-22.519-10.354-45.608 11.686-16.461 15.716-28.714 43.69-34.396 58.461v-77.35c11.286-3.43 47.045-15.341 66.318-33.746z" fill="#58AA38" p-id="4227"></path><path d="M687.95 309.405c25.838-24.664 25.198-40.185 15.315-50.5-9.785-10.31-25.198-11.587-51.034 13.077-18.419 17.585-32.131 48.887-38.488 65.415v-86.655c12.627-3.841 52.641-17.172 74.207-37.764 25.838-24.663 25.198-40.185 15.315-50.5-9.785-10.309-25.198-11.586-51.034 13.077-18.419 17.582-32.131 48.886-38.488 65.415v-49.802c7.189-14.844 22.01-48.723 22.01-75.789 0-35.721-11.592-45.927-25.836-45.927-14.245 0-25.837 10.206-25.837 45.927 0 26.926 14.672 60.603 21.902 75.565v50.015c-6.36-16.532-20.072-47.826-38.482-65.404-25.837-24.663-41.254-23.385-51.139-13.077-9.889 10.315-10.528 25.837 15.31 50.5 21.567 20.593 61.663 33.924 74.312 37.765v86.643c-6.36-16.531-20.072-47.822-38.482-65.404-25.837-24.664-41.254-23.387-51.035-13.077-9.884 10.315-10.523 25.836 15.309 50.5 21.568 20.592 61.575 33.919 74.208 37.761v86.543c-6.36-16.531-20.072-47.823-38.482-65.405-25.837-24.663-41.254-23.385-51.035-13.077-9.884 10.315-10.523 25.837 15.309 50.5 21.568 20.594 61.575 33.92 74.208 37.762v86.645c-6.36-16.53-20.072-47.821-38.482-65.399-25.837-24.669-41.254-23.392-51.139-13.077-9.889 10.31-10.528 25.831 15.31 50.5 21.567 20.592 61.663 33.919 74.312 37.758v60.262h7.761v-60.263c12.627-3.84 52.641-17.167 74.207-37.758 25.838-24.669 25.198-40.19 15.315-50.5-9.785-10.315-25.198-11.592-51.034 13.077-18.419 17.581-32.131 48.882-38.488 65.409V443.49c12.627-3.84 52.641-17.168 74.207-37.764 25.838-24.663 25.198-40.185 15.315-50.5-9.785-10.309-25.198-11.586-51.034 13.077-18.419 17.586-32.131 48.888-38.488 65.416v-86.552c12.625-3.84 52.639-17.167 74.205-37.762z" fill="#18944A" p-id="4228"></path><path d="M589.21 352.614c19.131-18.262 18.657-29.753 11.339-37.391-7.245-7.634-18.657-8.579-37.787 9.682-13.638 13.02-23.79 36.197-28.497 48.434v-64.161c9.349-2.844 38.976-12.714 54.944-27.961 19.131-18.261 18.657-29.753 11.339-37.391-7.245-7.633-18.657-8.578-37.787 9.682-13.638 13.018-23.79 36.196-28.497 48.434v-36.874c5.323-10.991 16.297-36.075 16.297-56.115 0-26.448-8.583-34.005-19.129-34.005-10.547 0-19.13 7.557-19.13 34.005 0 19.936 10.863 44.871 16.217 55.95v37.032c-4.709-12.241-14.862-35.411-28.493-48.426-19.13-18.261-30.545-17.315-37.864-9.682-7.322 7.638-7.795 19.13 11.335 37.391 15.969 15.248 45.656 25.118 55.022 27.961v64.152c-4.709-12.24-14.862-35.408-28.493-48.426-19.13-18.262-30.545-17.316-37.787-9.682-7.318 7.638-7.791 19.129 11.335 37.391 15.969 15.247 45.591 25.114 54.945 27.959v64.078c-4.709-12.24-14.862-35.409-28.493-48.427-19.13-18.261-30.545-17.315-37.787-9.682-7.318 7.638-7.791 19.13 11.335 37.391 15.969 15.248 45.591 25.115 54.945 27.96v64.154c-4.709-12.239-14.862-35.407-28.493-48.422-19.13-18.266-30.545-17.32-37.864-9.682-7.322 7.634-7.795 19.125 11.335 37.391 15.969 15.247 45.656 25.115 55.022 27.957v44.619h5.746v-44.62c9.349-2.843 38.976-12.71 54.944-27.956 19.131-18.265 18.657-29.757 11.339-37.391-7.245-7.638-18.657-8.583-37.787 9.682-13.638 13.018-23.79 36.193-28.497 48.43v-64.16c9.349-2.843 38.976-12.711 54.944-27.961 19.131-18.261 18.657-29.753 11.339-37.391-7.245-7.633-18.657-8.578-37.787 9.682-13.638 13.021-23.79 36.197-28.497 48.435v-64.085c9.352-2.844 38.979-12.712 54.947-27.961z" fill="#17723B" p-id="4229"></path></svg>