<?xml version="1.0" standalone="no"?><!DOCTYPE svg PUBLIC "-//W3C//DTD SVG 1.1//EN" "http://www.w3.org/Graphics/SVG/1.1/DTD/svg11.dtd"><svg t="1582352758954" class="icon" viewBox="0 0 1024 1024" version="1.1" xmlns="http://www.w3.org/2000/svg" p-id="2801" xmlns:xlink="http://www.w3.org/1999/xlink" width="24" height="24"><defs><style type="text/css"></style></defs><path d="M786.217 875.568c0 50.723-39.339 91.843-87.865 91.843h-397.59c-48.527 0-87.865-41.119-87.865-91.843V499.013c0-50.723 39.339-91.843 87.865-91.843h397.59c48.526 0 87.865 41.119 87.865 91.843v376.555z" fill="#B7A376" p-id="2802"></path><path d="M786.217 815.927v-15.236l-7.735-11.082 7.735-15.407v-21l-13.866 27.621-22.683-32.501 19.553-38.95 16.996 24.352v-15.236L773.67 700.51l11.811-23.527 0.736 1.055v-23.522l-2.419 4.819-16.279-23.326 16.456-32.781 2.242 3.213v-28.68l-3.926 7.82L657.775 407.17h-10.633l98.404 140.997-1.228-0.246-16.014 31.9-108.546-155.526-7.151 4.99 82.304 117.928-1.468-0.294-11.283 22.474-85.292-122.21-7.151 4.99 38.137 54.644-7.293-1.46-16.928 33.721-24.012-34.405 5.272-10.501-9.58-1.918-1.824 3.633-10.409-14.915-7.151 4.99 13.111 18.786-17.231 34.323-19.249-27.58-7.151 4.99 21.951 31.452-14.134 28.154-23.54-33.73 48.105-95.824-9.58-1.918-65.634 130.74-25.295-36.244 66.237-131.942h-10.543L429.28 573.888l-10.077-14.439-7.151 4.99 12.78 18.311-17.079 34.02-30.202-43.275 85.392-166.326H452.38l-80.914 157.603-6.758-9.684-7.151 4.99 9.403 13.472-18.592 36.212-26.276-37.649 82.805-164.945h-10.542L315.96 563.33l-5.751-8.24-7.151 4.99 8.453 12.111-21.234 42.297-21.512-31.514 88.257-175.804h-10.543L262.69 574.075l-25.644-37.567 64.93-129.337h-1.214c-3.248 0-6.452 0.198-9.609 0.557l-60.182 119.88-18.074-26.478v15.467l13.6 19.924-13.6 27.091v21l19.675-39.192 25.644 37.567-20.158 40.155-25.161-36.051v15.236l20.712 29.677-15.753 31.38-4.959-7.105v15.236l0.51 0.731-0.51 1.016v21l6.642-13.23 21.714 31.112-18.779 37.408-9.576-13.721v15.236l5.128 7.347-5.128 10.214v21l11.259-22.428 24.996 35.815-18.24 35.528-18.016-25.813v15.236l13.509 19.356-13.509 26.312v1.935c0 5.461 0.482 10.802 1.357 16.001l18.239-35.526L264.566 902l-21.492 42.812a88.725 88.725 0 0 0 7.476 6.108l20.148-40.134 25.295 36.244-9.607 19.138c3.27 0.563 6.595 0.953 9.976 1.128l5.763-11.48 8.093 11.596h10.633l-14.278-20.458 18.005-35.865 23.541 33.73-11.342 22.593h10.542l6.931-13.808 9.636 13.808h10.634l-15.82-22.671 18.779-37.408 24.012 34.405-12.888 25.672h10.543l8.477-16.886 11.785 16.886h10.634l-17.969-25.747 15.753-31.38 22.781 32.641-12.292 24.486h10.542l7.882-15.7 10.958 15.7h10.633l-17.142-24.562 18.084-36.023 19.3 28.274-16.221 32.311h10.543l11.753-23.412 15.981 23.412h10.558l-22.065-32.324 23.287-46.387 23.75 34.03-22.431 44.682h10.542l18.02-35.896 25.052 35.896h13.808l17.023-33.91 16.28 23.326-5.314 10.584h10.542l0.903-1.798 1.255 1.798h10.633l-7.44-10.66 17.079-34.02 22.683 32.501-6.114 12.179h10.542l1.704-3.393 2.368 3.393h5.057c1.829 0 3.64-0.078 5.442-0.193l-8.418-12.062 17.421-34.701 25.689 36.808a87.098 87.098 0 0 0 7.478-4.521l-28.718-41.148 16.528-32.923 35.58 50.98a92.685 92.685 0 0 0 5.018-8.046l-36.149-51.796 14.134-28.154 32.936 47.192c0.601-4.337 0.926-8.768 0.926-13.279v-0.629l-29.414-42.145 17.231-34.323 12.183 17.456z m-42.681-76.391l-16.28-23.326 19.554-38.95 16.279 23.326-19.553 38.95z m-464.764 26.366l31.476 45.101-18.779 37.408-31.722-45.452 19.025-37.057z m-1.581-17.5l-25.358-36.334 15.753-31.38 25.564 36.629-15.959 31.085z m6.088 8.722l15.959-31.085 31.212 44.722-15.753 31.38-31.418-45.017z m20.466-39.864l19.801-38.568 30.612 44.845-19.258 38.362-31.155-44.639z m32.837 62.287l25.295 36.244-15.753 31.38-25.295-36.244 15.753-31.38z m4.449-8.862l19.201-38.248 25.06 36.712-18.966 37.78-25.295-36.244z m23.675-47.16l21.932-43.688 25.295 36.244-22.168 44.157-25.059-36.713z m26.661 54.524l23.322 34.166-18.69 37.23-23.541-33.73 18.909-37.666z m4.474-8.913l22.224-44.27 23.54 33.73-22.443 44.706-23.321-34.166z m320.835-52.85l-17.231 34.323-26.952-38.617 17.231-34.323 26.952 38.617z m-22.503-47.479l19.554-38.95 26.952 38.617-19.554 38.95-26.952-38.617zM577.44 711.276l16.528-32.923 19.481 27.913-16.528 32.923-19.481-27.913z m15.033 36.775l-17.421 34.701-19.481-27.913 17.421-34.701 19.481 27.913z m27.108-32.998l23.75 34.03-16.528 32.923-23.75-34.03 16.528-32.923z m4.448-8.862l14.134-28.154 23.75 34.03-14.134 28.154-23.75-34.03z m44.016 14.662l26.952 38.617-14.134 28.154-26.952-38.617 14.134-28.154z m-1.683-17.647l-23.75-34.03 17.23-34.323 23.75 34.03-17.23 34.323zM636.48 660.39l-19.481-27.913 17.23-34.323 19.481 27.913-17.23 34.323z m-4.449 8.861l-14.134 28.154-19.481-27.913 14.134-28.154 19.481 27.913z m-39.746-8.545l-22.781-32.641 14.134-28.154 22.781 32.641-14.134 28.154z m-4.449 8.861l-16.528 32.923-22.781-32.641 16.528-32.923 22.781 32.641z m-20.976 41.785l-17.421 34.701-22.781-32.641 17.421-34.701 22.781 32.641z m-46.334-6.726l-24.012-34.405 17.421-34.701 24.012 34.405-17.421 34.701z m-4.449 8.861l-17.079 34.02-24.012-34.405 17.079-34.02 24.012 34.405z m-47.222-9.171l-23.54-33.73 17.079-34.02 23.541 33.73-17.08 34.02z m-4.449 8.862l-18.352 36.556-23.54-33.73 18.352-36.556 23.54 33.73z m-16.668 54.204l24.012 34.405-22.723 45.264-23.789-34.85 22.5-44.819z m4.448-8.862l18.352-36.556 24.012 34.405-18.352 36.556-24.012-34.405z m48.496 6.635l22.781 32.641-18.352 36.556-22.781-32.641 18.352-36.556z m4.448-8.862l17.079-34.02 22.781 32.641-17.079 34.02-22.781-32.641z m45.992 7.408l19.481 27.913-17.079 34.02-19.481-27.913 17.079-34.02z m25.613 36.699l23.75 34.03-17.079 34.02-23.75-34.03 17.079-34.02z m4.449-8.862l17.421-34.701 23.75 34.03-17.421 34.701-23.75-34.03z m47.302 8.115l26.952 38.617-17.421 34.701-26.952-38.617 17.421-34.701z m4.449-8.862l16.528-32.923 26.952 38.617-16.528 32.923-26.952-38.617z m49.611 14.48l16.279 23.326-16.527 32.923-16.28-23.326 16.528-32.923z m4.449-8.861l14.134-28.154 16.279 23.326-14.134 28.154-16.279-23.326z m18.582-37.015l17.23-34.323 16.28 23.326-17.231 34.323-16.279-23.326z m73.772-91.197l-11.811 23.527-16.279-23.326 11.811-23.527 16.279 23.326z m-28.458-112.372l26.952 38.617-16.456 32.781-26.952-38.617 16.456-32.781z m-20.905 41.643l26.952 38.617-11.811 23.527-26.952-38.617 11.811-23.527z m-29.882-42.816l23.75 34.03-11.811 23.527-23.75-34.03 11.811-23.527z m-16.259 32.388l23.75 34.03-19.553 38.95-23.75-34.03 19.553-38.95z m-6.132-8.786l-19.553 38.95-19.481-27.913 19.554-38.95 19.48 27.913z m-48.394-69.34l26.803 38.404-6.283-1.258-17.292 34.445-22.781-32.641 19.553-38.95z m-24.002 47.811l22.781 32.641-17.231 34.323-22.781-32.641 17.231-34.323z m-30.144-43.191l24.012 34.405-17.231 34.323-24.012-34.405 17.231-34.323z m-21.679 43.185l24.012 34.405-14.134 28.154-24.012-34.405 14.134-28.154z m-18.583 37.015l24.012 34.405-16.528 32.923-24.012-34.405 16.528-32.923z m-29.672-42.516l23.54 33.73-16.528 32.923-23.54-33.73 16.528-32.923z m-20.976 41.785l23.541 33.73-17.421 34.701-23.541-33.73 17.421-34.701z m-31.427-45.03l25.295 36.244-17.421 34.701-25.295-36.244 17.421-34.701z m-21.87 43.563l25.295 36.244-17.079 34.02-25.295-36.244 17.079-34.02z m-21.527 42.882l25.295 36.244-18.352 36.556-25.295-36.244 18.352-36.556z m-36.392-52.145l30.26 43.358-18.352 36.556-30.5-43.702 18.592-36.212z m-23.099 44.991l30.558 43.785-21.875 43.575-30.554-44.76 21.871-42.6z m-32.305-46.288l26.218 37.566-21.814 42.488-25.695-37.643 21.291-42.411z m-25.765 51.324l25.637 37.558-19.858 38.679-25.622-36.712 19.843-39.525z m-27.587-40.414l21.512 31.514-19.9 39.639-21.714-31.112 20.102-40.041z m-40.303 80.283l15.753-31.38 21.714 31.112-15.753 31.38-21.714-31.112z m4.618 86.167l18.779-37.408 25.3 36.25-19.025 37.056-25.054-35.898z m40.41 134.8L237 847.265l18.24-35.528 31.78 45.535-18.004 35.865z m31.426 45.03l-25.295-36.244 18.005-35.865 25.295 36.244-18.005 35.865z m22.454-44.727l-25.295-36.244 18.779-37.408 25.295 36.244-18.779 37.408z m29.672 42.516l-23.541-33.73 18.779-37.408 23.541 33.73-18.779 37.408z m23.228-46.27l-23.541-33.73 15.754-31.38 23.54 33.73-15.753 31.38z m30.144 43.191l-24.012-34.405 15.753-31.38 24.012 34.405-15.753 31.38z m20.202-40.242L402.13 858.23l18.633-37.117 23.789 34.85-18.41 36.672z m28.913 41.428l-22.781-32.641 18.353-36.559 22.569 33.063-18.141 36.137z m22.615-45.049l-22.569-33.063 22.78-45.378 22.781 32.641-22.992 45.8z m25.375 37.173l-19.3-28.274L506.794 852l19.481 27.913-23.23 46.274z m27.679-55.135l-19.481-27.913 18.352-36.556 19.481 27.913-18.352 36.556z m29.882 42.815l-23.75-34.03 18.352-36.556 23.75 34.03-18.352 36.556z m33.084 47.404l-26.952-38.617 18.352-36.556 26.952 38.617-18.352 36.556z m22.8-45.418l-26.952-38.617 17.079-34.02 26.952 38.617-17.079 34.02z m22.411 32.112l-16.28-23.326 17.079-34.02 16.28 23.326-17.079 34.02z m21.528-42.882l-16.28-23.326 17.421-34.701 16.28 23.326-17.421 34.701z m28.814 41.287l-22.683-32.501 17.42-34.701 22.683 32.501-17.42 34.701z m21.87-43.563l-22.683-32.501 16.528-32.923 22.683 32.501-16.528 32.923z m20.976-41.785l-22.683-32.501 14.134-28.154 22.683 32.501-14.134 28.154z m18.582-37.015l-22.683-32.501 17.231-34.323 22.683 32.501-17.231 34.323zM229.94 444.669a93.07 93.07 0 0 0-12.224 24.35l12.224-24.35z" fill="#95804C" p-id="2803"></path><path d="M215.04 485.22a285.825 128.005 0 1 0 571.65 0 285.825 128.005 0 1 0-571.65 0Z" fill="#95804C" p-id="2804"></path><path d="M246.912 481.107a258.065 102.301 0 1 0 516.13 0 258.065 102.301 0 1 0-516.13 0Z" fill="#3A2C17" p-id="2805"></path><path d="M477.831 441.206c0 23.611-24.139 35.718-47.75 35.718s-43.953-1.505-43.953-25.116 25.34-53.354 48.951-53.354 42.752 19.141 42.752 42.752z" fill="#95804C" p-id="2806"></path><path d="M366.655 478.265c0 23.611-24.139 35.718-47.75 35.718s-43.953-1.505-43.953-25.116 25.34-53.354 48.951-53.354 42.752 19.141 42.752 42.752zM623.886 421.587c0 23.611-24.139 35.718-47.75 35.718s-43.953-1.505-43.953-25.116 25.34-53.354 48.951-53.354 42.752 19.141 42.752 42.752zM662.978 465.185c0 23.611 24.139 35.718 47.75 35.718s43.953-1.505 43.953-25.116-25.34-53.354-48.951-53.354-42.752 19.141-42.752 42.752z" fill="#896B36" p-id="2807"></path><path d="M303.118 118.766c1.974 93.014 15.564 231.834 70.348 355.013l48.718-163.968s-73.396-107.265-119.066-191.045z m0 0M873.432 328.72c-279.755-5.557-270.153 138.596-262.712 177.025l32.85 9.683s17.879-67.479 111.563-116.675a1217.746 1217.746 0 0 0 118.299-70.033z m0 0" fill="#18944A" p-id="2808"></path><path d="M394.742 523.952c-10.181-60.724-48.607-163.397-182.555-265.308 14.643 57.159 44.232 137.221 101.706 190.471l80.849 74.837z m0 0" fill="#58AA38" p-id="2809"></path><path d="M506.083 529.419c46.656-50.656 176.314-194.838 174.117-231.707 0 0-15.955-152.208-54.443-245.067-54.593 109.037-179.258 374.227-147.91 463.511l28.236 13.263z m-28.237-13.263" fill="#18944A" p-id="2810"></path><path d="M487.507 60.141c-15.838 43.563-34.865 86.434-56.98 128.355-78.885 150.942-59.126 299.818-46.743 357.668l100.032-16.75c30.675-80.633 18.072-306.262 3.691-469.273z m0 0" fill="#58AA38" p-id="2811"></path><path d="M559.166 514.011l-8.376-44.685s-59.833-89.726-98.188-175.69c5.735 82.742 24.917 186.614 83.099 221.696l23.465-1.321z m-23.465 1.322" fill="#17723B" p-id="2812"></path><path d="M640.515 332.478c-79.354 84.592-99.754 190.988-99.754 190.988l5.494 1.772 152.37-138.286s64.023-42.947 16.381-185.2c-11.824 37.93-33.847 87.396-74.491 130.726z m0 0" fill="#58AA38" p-id="2813"></path><path d="M451.526 516.496c0 31.482 36.763 47.625 72.722 47.625s66.939-2.006 66.939-33.489-38.592-71.14-74.551-71.14-65.11 25.522-65.11 57.004z" fill="#896B36" p-id="2814"></path><path d="M580.889 512.966c5.158 25.032 36.218 32.013 64.012 26.286 27.795-5.727 51.412-12.256 46.254-37.288s-41.484-50.419-69.279-44.692c-27.793 5.727-46.144 30.662-40.987 55.694zM344.71 521.863c0 23.611 24.139 35.718 47.75 35.718s43.953-1.505 43.953-25.116-25.34-53.354-48.951-53.354-42.752 19.141-42.752 42.752z" fill="#95804C" p-id="2815"></path></svg>