<?xml version="1.0" standalone="no"?><!DOCTYPE svg PUBLIC "-//W3C//DTD SVG 1.1//EN" "http://www.w3.org/Graphics/SVG/1.1/DTD/svg11.dtd"><svg t="1582352721279" class="icon" viewBox="0 0 1024 1024" version="1.1" xmlns="http://www.w3.org/2000/svg" p-id="1665" xmlns:xlink="http://www.w3.org/1999/xlink" width="24" height="24"><defs><style type="text/css"></style></defs><path d="M748.628 446.738s-120.449 55.26-250.834 55.26c-114.884 0-239.352-55.26-239.352-55.26-28.034 54.428-44.309 118.798-44.309 187.844 0 195.178 79.106 331.416 289.402 331.416 231.704 0 289.402-136.237 289.402-331.416 0-69.046-16.275-133.417-44.309-187.844z" fill="#F9C4DA" p-id="1666"></path><path d="M353.239 695.961s58.496 21.649 155.975 24.099c85.786 2.156 154.025-26.063 154.025-26.063l-1.95 88.583s-50.7 16.87-142.327 19.403c-77.987 2.156-161.824-15.091-161.824-15.091l-3.899-90.931z" fill="#FCE8F1" p-id="1667"></path><path d="M225.239 480.498a278 124.5 0 1 0 556 0 278 124.5 0 1 0-556 0Z" fill="#FCE8F1" p-id="1668"></path><path d="M505.155 806.67c-73.57 0-148.578-15.257-149.327-15.411a6.5 6.5 0 0 1-5.184-6.088l-3.899-90.932a6.5 6.5 0 0 1 8.75-6.374c0.141 0.052 14.729 5.385 40.883 10.944 24.128 5.128 63.318 11.504 112.999 12.752 3.05 0.077 6.156 0.115 9.233 0.115 78.978 0 141.524-25.431 142.147-25.688a6.503 6.503 0 0 1 8.979 6.15l-1.949 88.584a6.5 6.5 0 0 1-4.446 6.025c-2.107 0.701-52.664 17.201-144.199 19.731-4.537 0.129-9.242 0.192-13.987 0.192z m-141.743-27.182c17.762 3.332 80.312 14.183 141.743 14.183 4.625 0 9.21-0.062 13.627-0.184 74.545-2.062 122.081-13.831 136.112-17.782l1.634-74.253c-20.576 7.236-73.35 23.226-137.919 23.226-3.186 0-6.402-0.04-9.56-0.119-76.468-1.922-128.77-15.363-148.915-21.494l3.278 76.423z" fill="#FFFFFF" p-id="1669"></path><path d="M255.105 472.647a251 99.5 0 1 0 502 0 251 99.5 0 1 0-502 0Z" fill="#3A2C17" p-id="1670"></path><path d="M737.496 388.641c-11.028 22.837-56.156 15.486-94.767-3.158-38.611-18.645-71.173-36.163-60.145-59 11.028-22.837 66.357-31.595 104.968-12.951 38.611 18.644 60.972 52.272 49.944 75.109z" fill="#18944A" p-id="1671"></path><path d="M470.793 238.97c-7.291 20.799 26.362 44.573 62.937 57.394 36.575 12.822 68.55 22.543 75.841 1.743 7.291-20.799-22.776-60.76-59.351-73.582-36.575-12.821-72.136-6.354-79.427 14.445z" fill="#33B36D" p-id="1672"></path><path d="M578.905 66.07c19.538-10.2 47.893 19.695 65.829 54.053s32.143 64.608 12.604 74.807-63.399-13.825-81.335-48.182-16.636-70.478 2.902-80.678z" fill="#17723B" p-id="1673"></path><path d="M701.278 178.962c8.106 1.711 13.29 9.668 11.579 17.774s-9.668 13.29-17.774 11.579c-18.536-3.912-45.734 20.069-70.979 62.584-29.112 49.028-53.901 117.517-69.799 192.852-1.711 8.106-9.668 13.29-17.774 11.579s-13.29-9.668-11.579-17.774c16.559-78.466 42.611-150.195 73.357-201.974 15.454-26.026 31.438-45.88 47.509-59.013 18.917-15.456 37.577-21.381 55.46-17.607z" fill="#58AA38" p-id="1674"></path><path d="M828.169 174.219c0 29.863-43.835 45.176-86.711 45.176s-79.817-1.903-79.817-31.767 46.016-67.482 88.893-67.482 77.635 24.21 77.635 54.073zM290.922 374.316c2.177 29.784 47.012 41.86 89.775 38.734s79.465-7.718 77.288-37.502c-2.177-29.784-50.814-63.948-93.576-60.821s-75.665 29.805-73.487 59.589z" fill="#18944A" p-id="1675"></path><path d="M245.705 312.597c4.893 21.49 46.036 23.713 83.826 15.108s70.035-17.387 65.142-38.878c-4.893-21.49-51.614-39.327-89.404-30.722-37.789 8.605-64.458 33.002-59.564 54.492z" fill="#17723B" p-id="1676"></path><path d="M389.068 70.544c-27.894 0.106-44.667 45.986-47.084 90.81-2.416 44.824-2.721 83.434 25.173 83.328 27.894-0.106 65.625-48.345 68.041-93.169s-18.237-81.075-46.13-80.969z" fill="#33B36D" p-id="1677"></path><path d="M320.227 209.435c-8.106 1.711-13.29 9.668-11.579 17.774 1.711 8.106 9.668 13.29 17.774 11.579 18.536-3.912 45.734 20.069 70.979 62.584 29.112 49.028 53.901 117.517 69.799 192.852 1.711 8.106 9.668 13.29 17.774 11.579s13.29-9.668 11.579-17.774c-16.559-78.466-42.611-150.195-73.357-201.974-15.454-26.026-31.438-45.88-47.509-59.013-18.917-15.457-37.577-21.381-55.46-17.607z" fill="#58AA38" p-id="1678"></path><path d="M193.336 204.692c0 29.863 43.835 45.176 86.711 45.176 42.877 0 79.817-1.903 79.817-31.767s-46.016-67.482-88.893-67.482-77.635 24.21-77.635 54.073zM453.114 217.466c-18.624-3.353-33.096 22.265-37.909 49.005-4.814 26.74-7.774 49.991 10.85 53.344 18.624 3.353 47.251-21.121 52.065-47.861s-6.382-51.136-25.006-54.488z" fill="#18944A" p-id="1679"></path><path d="M414.612 142.966c-18.624-3.353-33.096 22.265-37.909 49.005s-7.774 49.991 10.85 53.344c18.624 3.353 47.251-21.121 52.065-47.861s-6.382-51.135-25.006-54.488zM576.712 301.443c7.291 20.799-26.362 44.573-62.937 57.394s-68.55 22.543-75.841 1.743c-7.291-20.799 22.776-60.76 59.351-73.582s72.136-6.354 79.427 14.445zM761.801 280.124c-4.893 21.49-46.036 23.713-83.826 15.108-37.79-8.605-70.035-17.387-65.142-38.878s51.614-39.327 89.404-30.722c37.789 8.605 64.457 33.002 59.564 54.492z" fill="#17723B" p-id="1680"></path></svg>