<?xml version="1.0" standalone="no"?><!DOCTYPE svg PUBLIC "-//W3C//DTD SVG 1.1//EN" "http://www.w3.org/Graphics/SVG/1.1/DTD/svg11.dtd"><svg t="1582353139571" class="icon" viewBox="0 0 1024 1024" version="1.1" xmlns="http://www.w3.org/2000/svg" p-id="17021" xmlns:xlink="http://www.w3.org/1999/xlink" width="24" height="24"><defs><style type="text/css"></style></defs><path d="M469.65333333 680.32S278.50666667 520.42666667 302.82666667 208c0 0 151.25333333 118.50666667 166.82666666 472.32z" fill="#CFD55C" p-id="17022"></path><path d="M496.21333333 624.42666667S331.52 437.44 402.88 132.26666667c0 0 131.52 140.05333333 93.33333333 492.16zM577.6 625.92S463.36 404.48 606.93333333 125.86666667c-0.10666667-0.10666667 93.44 167.78666667-29.33333333 500.05333333z" fill="#6F9176" p-id="17023"></path><path d="M517.01333333 637.97333333s-122.34666667-217.06666667 10.66666667-500.8c0.10666667 0 99.73333333 164.26666667-10.66666667 500.8z" fill="#CFD55C" p-id="17024"></path><path d="M568.21333333 662.72s-53.76-243.30666667 156.26666667-475.94666667c0 0 47.46666667 186.13333333-156.26666667 475.94666667z" fill="#CFD55C" p-id="17025"></path><path d="M543.36 547.84l-58.24-0.10666667-186.45333333-0.32 80.85333333 373.01333334 104.85333333 0.21333333 58.24 0.10666667 104.96 0.21333333L729.81333333 548.26666667z" fill="#BFDBD9" p-id="17026"></path><path d="M543.14666667 687.68l155.84 0.32 30.82666666-139.73333333-186.45333333-0.42666667-58.24-0.10666667-186.45333333-0.32 30.29333333 139.84 155.94666667 0.32z" fill="#A2C9CC" p-id="17027"></path></svg>