<?xml version="1.0" standalone="no"?><!DOCTYPE svg PUBLIC "-//W3C//DTD SVG 1.1//EN" "http://www.w3.org/Graphics/SVG/1.1/DTD/svg11.dtd"><svg t="1582352665852" class="icon" viewBox="0 0 1024 1024" version="1.1" xmlns="http://www.w3.org/2000/svg" p-id="11007" xmlns:xlink="http://www.w3.org/1999/xlink" width="24" height="24"><defs><style type="text/css"></style></defs><path d="M684.966 590.966c-21.487-18.862 0-105.068 0-105.068 0-29.671-28.273-53.724-63.15-53.724h-176.85c-34.877 0-63.15 24.053-63.15 53.724 0 0 21.487 86.206 0 105.068-39.613 34.774-102.473 41.203-102.473 89.972v221.776c0 49.731 47.387 90.045 105.843 90.045h296.41c58.455 0 105.843-40.314 105.843-90.045V680.939c0-48.769-62.86-55.199-102.473-89.973z" fill="#D1E8D1" p-id="11008"></path><path d="M379.091 463.809a154.3 69.442 0 1 0 308.6 0 154.3 69.442 0 1 0-308.6 0Z" fill="#BBC4BB" p-id="11009"></path><path d="M415.605 459.735a117.786 49.075 0 1 0 235.572 0 117.786 49.075 0 1 0-235.572 0Z" fill="#3A2C17" p-id="11010"></path><path d="M548.99 500.298c-1.077-108.679-9.737-210.277-24.661-288.191-8.031-41.926 4.836-14.471-5.886-38.127-12.621-27.844-26.657-41.962-41.717-41.962-6.826 0-12.36 9.826-12.36 21.947s23.44 3.787 36.56 72.276c14.256 74.424 22.474 172.43 23.376 277.746 0.584 0.014 1.166 0.038 1.752 0.038 7.84 0 15.505-1.291 22.936-3.727z" fill="#896B36" p-id="11011"></path><path d="M672.13 153.788c3.974 1.852 4.529 9.075 1.24 16.131-3.289 7.056-14.674-4.156-40.898 32.158-10.469 14.497-21.328 31.075-32.32 49.269 28.787-9.325 56.527-14.885 80.115-15.93 15.571-0.689 3.578-4.747 13.825-1.467 12.062 3.861 19.981 10.344 23.537 19.268 1.612 4.045-0.286 8.602-4.239 10.177-3.953 1.575-6.77-13.399-32.206-12.272-26.91 1.192-59.76 8.696-93.371 21.229-14.914 26.089-29.896 54.818-44.32 85.084-0.344-0.15-0.689-0.294-1.03-0.453-4.565-2.128-8.677-4.959-12.342-8.394 30.119-62.979 62.73-119.779 92.562-161.09 16.053-22.23 1.111-9.738 13.773-20.6 14.903-12.786 26.906-17.197 35.674-13.11z" fill="#896B36" p-id="11012"></path><path d="M384.242 588.304c-0.742 0.99-1.544 1.888-2.426 2.663-39.613 34.774-102.473 41.203-102.473 89.972v221.776c0 49.73 47.387 90.045 105.843 90.045h296.41c30.849 0 58.611-11.231 77.957-29.145L384.242 588.304z" fill="#BBC4BB" p-id="11013"></path><path d="M671.765 97.711c2.597-1.064 3.239-18.775 8.659-25.417 5.42-6.641 3.481 5.088 7.863 3.292 4.382-1.796 9.076-19.304 21.916-27.127 2.884-1.762 4.541 0.582 3.706 3.366-0.835 2.784-2.971 5.522-0.059 7.236 2.911 1.714 7.602-8.698 14.726-12.317 7.124-3.619 10.272-2.464 11.31-0.216s-3.285 3.905-0.595 5.358c2.69 1.452 7.264-3.56 12.525-5.483s9.583-3.578 11.16-1.434-2.452 3.098 0.026 5.455c2.477 2.357 10.067-5.522 16.486-7.454s1.071 3.748 3.83 6.224c2.758 2.476 7.964-1.293 11.99-0.26s2.311 3.937 6.416 7.14 12.245 1.495 13.961 3.695c1.716 2.2-3.026 3.691-5.755 11.792-2.729 8.101-0.268 13.253-3.344 18.236-3.076 4.982-14.874 9.119-14.726 12.317 0.148 3.198 10.161-0.369 8.498 2.897s-5.727 7.833-9.887 9.887c-4.16 2.054-11.084 2.452-11.892 4.757s8.437 2.706 7.696 4.872c-1.132 3.484-15.854 6.734-18.062 10.429-2.208 3.695 9.063 5.939 5.864 8.064-3.2 2.125-15.058 1.293-18.049 4.489s10.135 2.586 7.589 6.311-7.092 5.117-12.538 6.302-11.084-0.345-12.206 3.141 12.121 5.727 8.884 8.339-18.424-2.099-21.262 0.338 7.99 4.17 2.575 6.854-21.657-1.478-24.264 2.383c-2.607 3.861 14.964 2.472 8.557 7.543s-27.554 3.152-33.895 0.166c-15.446-6.451-26.309-27.02-28.036-37.479s-1.153-11.042 0.14-14.131c1.293-3.089 6.71 6.438 5.718-2.226s-5.391-11.168-3.527-17.979c1.864-6.811 4.077 4.842 4.888-3.399 0.811-8.241 0.58-19.137 5.304-21.822 7.406-4.209 4.219 7.33 7.81 5.861z" fill="#58AA38" p-id="11014"></path><path d="M794.805 63.412c-12.08-1.097-114.122 51.89-126.138 96.361 23.767-34.633 126.138-96.361 126.138-96.361z" fill="#FFFFFF" p-id="11015"></path><path d="M727.751 231.631c1.055 1.855 14.471 0.618 20.005 4.059 5.534 3.442-3.498 3.119-1.718 6.248 1.78 3.13 15.436 4.968 22.583 13.889 1.609 2.003 0.002 3.48-2.178 3.121-2.18-0.359-4.452-1.703-5.462 0.658s7.296 4.887 10.717 9.906c3.421 5.02 2.856 7.505 1.262 8.506-1.594 1.001-3.264-2.097-4.097 0.072-0.834 2.169 3.39 5.131 5.351 8.911s3.629 6.877 2.165 8.275-2.574-1.547-4.111 0.549 5.141 7.054 7.222 11.706c2.081 4.653-2.722 1.172-4.321 3.492-1.599 2.32 1.749 5.879 1.361 9.015-0.388 3.136-2.744 2.125-4.76 5.531-2.017 3.406 0.063 9.377-1.43 10.885s-3.077-1.923-9.45-3.193-10.019 1.086-14.074-0.75c-4.056-1.835-8.32-10.329-10.717-9.906-2.397 0.422 1.266 7.625-1.359 6.689-2.624-0.936-6.462-3.557-8.415-6.494-1.953-2.937-2.925-8.119-4.742-8.504-1.817-0.385-1.221 6.624-2.925 6.276-2.737-0.515-6.617-11.3-9.618-12.605-3-1.306-3.598 7.411-5.51 5.205s-2.438-11.228-5.138-13.173c-2.7-1.945-0.966 7.893-4.021 6.335-3.055-1.558-4.547-4.85-5.969-8.842-1.422-3.991-0.816-8.391-3.554-8.898-2.737-0.507-3.141 9.695-5.425 7.509-2.284-2.187-0.208-14.095-2.32-15.998s-2.368 6.429-4.918 2.608c-2.55-3.822-0.99-16.473-4.154-18.063-3.164-1.59-0.41 11.523-4.856 7.185s-5.053-20.469-3.418-25.54c3.364-12.273 17.817-22.462 25.535-24.78 7.718-2.318 8.214-1.942 10.668-1.267 2.455 0.675-4.202 5.685 2.234 4.095s7.896-5.149 13.213-4.406c5.317 0.744-3.255 3.545 3.038 3.355s14.486-1.422 16.968 1.879c3.892 5.176-5.118 3.895-3.662 6.46z" fill="#18944A" p-id="11016"></path><path d="M765.565 321.069c-0.346-9.215-50.211-81.005-84.909-85.745 28.423 14.555 84.909 85.745 84.909 85.745z" fill="#FFFFFF" p-id="11017"></path><path d="M416.738 55.855c8.944-1.936 20.214 11.759 30.01 21.022s0.279-7.567 9.915-1.236c9.636 6.33 6.62 14.303 14.539 26.09 7.919 11.788 4.792-5.978 9.74-3.604 4.948 2.373 6.309 2.455 15.184 17.272 8.875 14.816 16.7 52.248 3.623 77.358-5.01 10.723-30.253 36.576-43.902 37.437s10.493-16.939 3.031-18.806-23.997 21.304-33.832 24.007c-9.835 2.703 2.293-11.459-3.955-11.313-6.248 0.146-20.839 22.823-27.788 23.196-6.949 0.373 7.755-17.097 2.607-20.151-5.148-3.054-10.797 5.094-19.081 9.682-8.283 4.588-15.627 7.919-22.866 6.153s10.342-15.591 3.09-16.211c-7.252-0.62-21.667 13.575-28.051 14.508-6.383 0.933 5.774-14.352-0.997-16.457s-29.213 10.237-34.373 7.197c-3.254-1.848 8.246-12.608 4.756-14.555s-12.843 5.253-20.392 7.34c-7.548 2.087-17.64 0.968-23.253-1.214s11.092-8.902 7.887-13.01c-3.205-4.108-22.816 3.892-32.074 1.163s-11.554-11.816-23.675-18.777-19.822-3.533-19.944-8.152 12.193-11.552 14.087-20.061c1.895-8.51-3.401-10.187 0.696-15.932 4.097-5.744 14.814-6.878 15.744-12.994 0.93-6.116-12.001-7.183-1.668-11.929s28.489-3.457 29.182-9.116-5.517-2.36-5.759-6.757 7.09-7.155 15.919-10.626c8.829-3.471 20.052-2.37 21.98-7.148s-5.408-2.021-6.455-5.947c-1.048-3.926 1.788-8.846 14.82-12.294 13.032-3.448 30.138 4.184 32.074-1.163 1.936-5.348-3.726-6.353-7.759-8.859s-4.384-7.238 1.207-8.267c24.87-4.61 49.514 11.77 57.074 9.118s-7.396-14.963 6.648-12.792c14.044 2.171 33.675 23.303 38.155 21.73 6.198-2.177-10.164-12.869 3.856-15.902z" fill="#58AA38" p-id="11018"></path><path d="M482.776 144.858c-62.716-41.502-250.612 6.471-265.031 21.24 0 0 197.6-37.559 265.031-21.24z" fill="#FFFFFF" p-id="11019"></path></svg>