<?xml version="1.0" standalone="no"?><!DOCTYPE svg PUBLIC "-//W3C//DTD SVG 1.1//EN" "http://www.w3.org/Graphics/SVG/1.1/DTD/svg11.dtd"><svg t="1582352653594" class="icon" viewBox="0 0 1024 1024" version="1.1" xmlns="http://www.w3.org/2000/svg" p-id="10845" xmlns:xlink="http://www.w3.org/1999/xlink" width="24" height="24"><defs><style type="text/css"></style></defs><path d="M243.026 588.638c-31.206 41.159-49.323 89.837-49.323 142.05 0 147.596 144.233 267.247 322.154 267.247s322.154-119.651 322.154-267.247c0-52.214-18.117-100.891-49.323-142.05 0 0-134.08 41.788-279.221 41.788-127.887 0-266.441-41.788-266.441-41.788z" fill="#FC9475" p-id="10846"></path><path d="M233.394 622.903a282.162 126.364 0 1 0 564.324 0 282.162 126.364 0 1 0-564.324 0Z" fill="#C16D53" p-id="10847"></path><path d="M264.858 618.844a254.758 100.99 0 1 0 509.516 0 254.758 100.99 0 1 0-509.516 0Z" fill="#3A2C17" p-id="10848"></path><path d="M534.422 649.8c9.008 0 16.31-5.555 16.31-12.408 0-63.689 10.996-123.356 30.961-168.009 17.313-38.722 40.865-62.776 61.464-62.776 9.008 0 16.31-5.555 16.31-12.408s-7.302-12.408-16.31-12.408c-19.874 0-38.396 7.982-55.051 23.724-14.149 13.374-26.698 32.173-37.296 55.877-21.086 47.159-32.698 109.664-32.698 176 0 6.853 7.303 12.408 16.31 12.408z" fill="#3A2C1C" p-id="10849"></path><path d="M513.415 655.89c-11.542 0-20.899-9.72-20.899-21.709 0-111.432-14.089-215.827-39.672-293.954-22.184-67.748-52.363-109.835-78.758-109.835-11.542 0-20.899-9.72-20.899-21.709s9.357-21.709 20.899-21.709c25.466 0 49.199 13.965 70.541 41.508 18.131 23.399 34.209 56.292 47.79 97.765 27.018 82.512 41.898 191.872 41.898 307.935 0 11.988-9.357 21.708-20.9 21.708z" fill="#493923" p-id="10850"></path><path d="M491.145 582.443c0 21.289-21.765 32.206-43.054 32.206s-39.631-1.357-39.631-22.646 22.848-48.107 44.137-48.107 38.548 17.257 38.548 38.547z" fill="#95804C" p-id="10851"></path><path d="M491.013 635.513c0 21.289 21.765 32.206 43.054 32.206s39.631-1.357 39.631-22.646-22.848-48.107-44.137-48.107c-21.289-0.001-38.548 17.257-38.548 38.547z" fill="#896B36" p-id="10852"></path><path d="M584.966 666.205c4.296 20.851 29.843 26.733 52.677 22.029s42.232-10.087 37.936-30.938c-4.296-20.851-34.214-42.069-57.048-37.364s-37.861 25.422-33.565 46.273z" fill="#95804C" p-id="10853"></path><path d="M390.902 615.857c0 21.289-21.765 32.206-43.054 32.206s-39.631-1.357-39.631-22.646 22.848-48.107 44.137-48.107 38.548 17.258 38.548 38.547zM622.838 564.753c0 21.289-21.765 32.206-43.054 32.206s-39.631-1.357-39.631-22.646S563 526.205 584.29 526.205s38.548 17.258 38.548 38.548z" fill="#896B36" p-id="10854"></path><path d="M406.495 668.927c0 21.289 21.765 32.206 43.054 32.206s39.631-1.357 39.631-22.646-22.848-48.108-44.137-48.108-38.548 17.259-38.548 38.548z" fill="#95804C" p-id="10855"></path><path d="M658.086 604.064c0 21.289 21.765 32.206 43.054 32.206s39.631-1.357 39.631-22.646-22.848-48.107-44.137-48.107-38.548 17.258-38.548 38.547z" fill="#896B36" p-id="10856"></path><path d="M425.338 162.727s-1.324-59.792-64.02-81.534-52.846-9.199-52.846-9.199 50.256 54.321 34.913 63.834c-15.343 9.512-33.589-4.042-39.629-24.646s-24.623-31.359-24.623-31.359-3.24-20.267-41.208 12.079-20.731 54.298-20.731 54.298 81.279 32.497 82.057 49.629c0.778 17.131-6.804 14.575-17.664 10.428s-29.584-18.953-48.841-24.11l-19.257-5.157-1.58 36.725s20.977 2.528 21.719 8.293c2.285 17.743-13.554 18.247-13.554 18.247l-2.695 22.393s50.485 6.602 55.072 15.673c4.588 9.071 5.939 20.065-2.795 21.854-8.734 1.789-39.861 0.883-39.861 0.883s20.14 45.018 39.164 75.704l19.025 30.686 117.795-11.382s-33.357-29.571-18.351-36.284c15.006-6.713 44.112 10.987 44.112 10.987l6.713 15.006s25.866-2.567 46.807-11.406 37.294-26.748 37.294-26.748-16.562-27.55-41.081-36.179c-24.518-8.63-35.146-38.305-13.09-32.811s73.66 48.618 73.66 48.618l19.152-17.573s-5.446-15.634-3.24-20.267c1.515-3.182 12.207-7.05 12.207-7.05l4.042-33.589s-83.636-12.904-97.969-11.789-35.715-9.977-11.638-21.278c24.077-11.301 91.592-6.017 91.592-6.017s-9.72-60.803-130.651-46.959z" fill="#3B965B" p-id="10857"></path><path d="M603.159 367.934s1.033-34.174 49.962-46.601 41.242-5.257 41.242-5.257-39.221 31.047-27.247 36.484 26.214-2.31 30.927-14.086c4.713-11.776 19.216-17.923 19.216-17.923s2.529-11.584 32.16 6.904 16.18 31.034 16.18 31.034-63.431 18.574-64.039 28.365c-0.607 9.791 5.31 8.33 13.785 5.96 8.475-2.37 23.088-10.833 38.117-13.78l15.028-2.947 1.233 20.99s-16.371 1.445-16.95 4.74c-1.783 10.141 10.578 10.429 10.578 10.429l2.103 12.799s-39.399 3.773-42.979 8.958c-3.58 5.185-4.635 11.468 2.181 12.491s31.108 0.505 31.108 0.505-15.717 25.73-30.565 43.268l-14.847 17.538-91.929-6.506s26.032-16.901 14.321-20.738-34.426 6.28-34.426 6.28l-5.239 8.577s-20.186-1.467-36.529-6.519c-16.343-5.052-29.105-15.288-29.105-15.288s12.926-15.746 32.06-20.678c19.135-4.932 27.428-21.893 10.215-18.753s-57.485 27.788-57.485 27.788l-14.947-10.044s4.25-8.936 2.529-11.584c-1.182-1.819-9.526-4.029-9.526-4.029l-3.154-19.198s65.271-7.375 76.457-6.738c11.185 0.637 27.872-5.702 9.082-12.161s-71.48-3.439-71.48-3.439 7.587-34.754 101.963-26.841z" fill="#66A04E" p-id="10858"></path><path d="M235.557 712.93m-14.742 0a14.742 14.742 0 1 0 29.484 0 14.742 14.742 0 1 0-29.484 0Z" fill="#C16D53" p-id="10859"></path><path d="M284.696 748.31m-14.742 0a14.742 14.742 0 1 0 29.484 0 14.742 14.742 0 1 0-29.484 0Z" fill="#C16D53" p-id="10860"></path><path d="M347.594 771.896m-14.742 0a14.742 14.742 0 1 0 29.484 0 14.742 14.742 0 1 0-29.484 0Z" fill="#C16D53" p-id="10861"></path><path d="M402.629 783.69m-14.742 0a14.742 14.742 0 1 0 29.484 0 14.742 14.742 0 1 0-29.484 0Z" fill="#C16D53" p-id="10862"></path><path d="M469.458 793.518m-14.742 0a14.742 14.742 0 1 0 29.484 0 14.742 14.742 0 1 0-29.484 0Z" fill="#C16D53" p-id="10863"></path><path d="M538.253 795.483m-14.742 0a14.742 14.742 0 1 0 29.484 0 14.742 14.742 0 1 0-29.484 0Z" fill="#C16D53" p-id="10864"></path><path d="M609.013 791.552m-14.742 0a14.742 14.742 0 1 0 29.484 0 14.742 14.742 0 1 0-29.484 0Z" fill="#C16D53" p-id="10865"></path><path d="M669.945 775.828m-14.742 0a14.742 14.742 0 1 0 29.484 0 14.742 14.742 0 1 0-29.484 0Z" fill="#C16D53" p-id="10866"></path><path d="M728.912 754.206m-14.742 0a14.742 14.742 0 1 0 29.484 0 14.742 14.742 0 1 0-29.484 0Z" fill="#C16D53" p-id="10867"></path><path d="M787.878 718.826m-14.742 0a14.742 14.742 0 1 0 29.484 0 14.742 14.742 0 1 0-29.484 0Z" fill="#C16D53" p-id="10868"></path><path d="M414.423 166.505c-4.576 3.718-139.131 255.249-123.83 229.97 45.207-74.691 155.279-255.522 123.83-229.97z" fill="#17723B" p-id="10869"></path><path d="M599.606 370.693c1.214 3.129 123.063 142.437 111.221 127.701-34.991-43.539-119.563-149.206-111.221-127.701z" fill="#18944A" p-id="10870"></path></svg>