<?xml version="1.0" standalone="no"?><!DOCTYPE svg PUBLIC "-//W3C//DTD SVG 1.1//EN" "http://www.w3.org/Graphics/SVG/1.1/DTD/svg11.dtd"><svg t="1614258449085" class="icon" viewBox="0 0 1025 1024" version="1.1" xmlns="http://www.w3.org/2000/svg" p-id="23098" xmlns:xlink="http://www.w3.org/1999/xlink" width="24.0234375" height="24"><defs><style type="text/css"></style></defs><path d="M1024.730337 511.697055A511.697055 511.697055 0 1 1 513.033282 0a511.697055 511.697055 0 0 1 511.697055 511.697055z" fill="#FDDF6D" p-id="23099"></path><path d="M622.682651 947.879347a511.697055 511.697055 0 0 1-342.312127-892.008083A511.697055 511.697055 0 1 0 854.70136 892.008083a508.315797 508.315797 0 0 1-232.662758 55.871264z" fill="#FCC56B" p-id="23100"></path><path d="M486.949291 353.260963a62.472768 62.472768 0 1 1-62.472768-62.311756 62.472768 62.472768 0 0 1 62.472768 62.311756zM838.600131 353.260963a62.472768 62.472768 0 1 1-62.472768-62.311756A62.472768 62.472768 0 0 1 838.600131 353.260963z" fill="#7F184C" p-id="23101"></path><path d="M293.090495 479.977634a68.91326 68.91326 0 0 0-68.752248 68.91326h137.665508a68.91326 68.91326 0 0 0-68.91326-68.91326zM893.344309 470.799934a68.752248 68.752248 0 0 0-68.752247 68.752247h137.504495a68.752248 68.752248 0 0 0-68.752248-68.752247z" fill="#F9A880" p-id="23102"></path><path d="M608.835594 790.731353a152.156613 152.156613 0 0 1-132.996151-78.251973A20.770585 20.770585 0 1 1 512.22822 692.352844a110.45443 110.45443 0 0 0 96.607374 56.837338A115.606824 115.606824 0 0 0 706.570054 692.352844a20.770585 20.770585 0 1 1 35.422703 20.770585 157.309007 157.309007 0 0 1-133.318175 77.607924z" fill="#7F184C" p-id="23103"></path><path d="M609.479643 84.853476c56.837338 16.101229 95.6413 54.905191 86.624612 86.624612s-62.311756 44.27838-119.149094 28.338163S481.474873 144.91106 490.491561 112.708603s62.311756-44.439392 118.988082-28.338163z" fill="#FCEB88" p-id="23104"></path></svg>