<?xml version="1.0" standalone="no"?><!DOCTYPE svg PUBLIC "-//W3C//DTD SVG 1.1//EN" "http://www.w3.org/Graphics/SVG/1.1/DTD/svg11.dtd"><svg t="1614258558070" class="icon" viewBox="0 0 1071 1024" version="1.1" xmlns="http://www.w3.org/2000/svg" p-id="25372" xmlns:xlink="http://www.w3.org/1999/xlink" width="25.1015625" height="24"><defs><style type="text/css"></style></defs><path d="M996.238222 512c0 136.533333 61.895111 394.808889 61.895111 394.808889S642.161778 1012.622222 503.808 1012.622222A496.526222 496.526222 0 0 1 11.377778 512 496.526222 496.526222 0 0 1 503.808 11.377778a496.526222 496.526222 0 0 1 492.430222 500.622222z" fill="#FFD93B" p-id="25373"></path><path d="M123.107556 429.624889a113.777778 91.022222 90 1 0 182.044444 0 113.777778 91.022222 90 1 0-182.044444 0Z" fill="#AD5818" p-id="25374"></path><path d="M282.396444 384.113778m-34.133333 0a34.133333 34.133333 0 1 0 68.266667 0 34.133333 34.133333 0 1 0-68.266667 0Z" fill="#FFD93B" p-id="25375"></path><path d="M487.196444 429.624889a113.777778 91.022222 90 1 0 182.044445 0 113.777778 91.022222 90 1 0-182.044445 0Z" fill="#AD5818" p-id="25376"></path><path d="M646.485333 384.113778m-34.133333 0a34.133333 34.133333 0 1 0 68.266667 0 34.133333 34.133333 0 1 0-68.266667 0Z" fill="#FFD93B" p-id="25377"></path><path d="M460.572444 531.342222s0 2.958222 1.365334 7.964445a24.120889 24.120889 0 0 1 0 9.557333 30.037333 30.037333 0 0 1-4.096 12.515556 50.744889 50.744889 0 0 1-8.874667 12.970666 72.817778 72.817778 0 0 1-13.653333 10.695111 64.170667 64.170667 0 0 1-17.294222 7.054223 107.861333 107.861333 0 0 1-19.114667 2.958222 97.393778 97.393778 0 0 1-18.432-2.730667 60.757333 60.757333 0 0 1-17.976889-7.281778 72.817778 72.817778 0 0 1-13.653333-10.695111 50.744889 50.744889 0 0 1-8.874667-12.970666 30.264889 30.264889 0 0 1-4.096-12.288 28.672 28.672 0 0 1 0-9.557334 77.141333 77.141333 0 0 1 1.365333-8.192l3.185778 7.281778a26.168889 26.168889 0 0 0 4.323556 7.509333 34.133333 34.133333 0 0 0 6.599111 7.736889 76.231111 76.231111 0 0 0 9.102222 7.509334 94.663111 94.663111 0 0 0 11.832889 5.688888l6.371555 2.275556 6.144 1.365333a105.130667 105.130667 0 0 0 14.791112 1.592889 72.362667 72.362667 0 0 0 14.108444-1.592889l6.826667-1.365333 6.371555-2.275556a94.663111 94.663111 0 0 0 11.832889-5.688888 76.231111 76.231111 0 0 0 9.102222-7.509334 39.822222 39.822222 0 0 0 6.599111-7.736889 30.72 30.72 0 0 0 4.323556-7.281777c0.455111-4.778667 1.820444-7.509333 1.820444-7.509334z" fill="#AD5818" p-id="25378"></path></svg>