<?xml version="1.0" standalone="no"?><!DOCTYPE svg PUBLIC "-//W3C//DTD SVG 1.1//EN" "http://www.w3.org/Graphics/SVG/1.1/DTD/svg11.dtd"><svg t="1614259736313" class="icon" viewBox="0 0 1277 1024" version="1.1" xmlns="http://www.w3.org/2000/svg" p-id="90642" xmlns:xlink="http://www.w3.org/1999/xlink" width="29.9296875" height="24"><defs><style type="text/css"></style></defs><path d="M127.142196 511.688071c0 282.233216 228.830998 511.064213 511.064213 511.064214 282.233216 0 511.064213-228.830998 511.064214-511.064214 0-282.233216-228.830998-511.064213-511.064214-511.064213-282.233216 0-511.064213 228.830998-511.064213 511.064213z m0 0" fill="#FEC43C" p-id="90643"></path><path d="M1139.039357 408.50201C1091.002315 175.42878 885.503594 0.623858 638.206409 0.623858c-282.108444 0-511.064213 228.955769-511.064213 511.064213 0 123.648593 43.919581 236.067747 116.536615 324.03168 86.840989 48.037042 186.034361 74.613379 292.33971 74.613379 300.44986 0 549.868161-216.728159 603.020836-501.83112z m0 0" fill="#FFD73A" p-id="90644"></path><path d="M331.517972 338.006092c0 50.782015 41.174607 91.956622 91.956623 91.956623s91.956622-41.174607 91.956622-91.956623-41.174607-91.956622-91.956622-91.956622c-50.782015-0.124772-91.956622 41.049836-91.956623 91.956622z m429.338858 0c0 50.782015 41.174607 91.956622 91.956622 91.956623s91.956622-41.174607 91.956622-91.956623c0-32.814914-17.468015-63.259169-46.040697-79.729011a91.747006 91.747006 0 0 0-91.956622 0c-28.44791 16.469843-45.915925 46.789326-45.915925 79.729011z m-122.650421 439.445352c-133.879859 0-245.300841-97.072255-265.763373-224.838309-3.119288-21.460704 13.225783-40.925064 35.809431-40.925064h459.907884c22.458877 0 38.803948 19.46436 35.809431 40.925064-20.462532 127.766053-131.883514 224.838309-265.763373 224.838309z m0 0" fill="#873A18" p-id="90645"></path><path d="M868.160351 511.688071H408.252467c-22.458877 0-38.803948 19.46436-35.809431 40.925064 0.998172 7.111978 1.996345 14.348727 4.117461 21.460704h522.293652c1.996345-7.111978 3.119288-14.348727 4.117461-21.460704 3.992689-21.460704-13.350554-40.925064-34.811259-40.925064z m0 0" fill="#FFFFFF" p-id="90646"></path><path d="M713.81796 635.336664c-30.693798 0-58.268308 15.346899-75.611551 38.803948-16.345071-23.457049-43.919581-38.803948-75.611551-38.803948-48.037042 0-87.963933 36.807603-91.956622 83.846472 46.040697 36.807603 104.309005 58.268308 167.692945 58.268308 63.383941 0 121.652248-21.460704 167.568173-58.268308-4.117461-47.038869-44.044352-83.846473-92.081394-83.846472z m0 0" fill="#F44444" p-id="90647"></path></svg>