<?xml version="1.0" standalone="no"?><!DOCTYPE svg PUBLIC "-//W3C//DTD SVG 1.1//EN" "http://www.w3.org/Graphics/SVG/1.1/DTD/svg11.dtd"><svg t="1614259255761" class="icon" viewBox="0 0 1024 1024" version="1.1" xmlns="http://www.w3.org/2000/svg" p-id="64237" xmlns:xlink="http://www.w3.org/1999/xlink" width="24" height="24"><defs><style type="text/css"></style></defs><path d="M998.4 512c0 268.7488-217.6512 486.4-486.4 486.4S25.6 780.7488 25.6 512 243.2512 25.6 512 25.6a485.6832 485.6832 0 0 1 182.7328 35.4304C872.8576 133.4272 998.4 308.0192 998.4 512z" fill="#FED44A" p-id="64238"></path><path d="M616.2432 926.5152c-268.7488 0-486.4-217.6512-486.4-486.4 0-143.7184 62.2592-272.2816 160.9728-361.3696C133.4272 159.232 25.6 323.2256 25.6 512c0 268.7488 217.6512 486.4 486.4 486.4 125.0304 0 239.4112-47.0528 325.4272-125.0304a484.7104 484.7104 0 0 1-221.184 53.1456z" fill="#FEC54A" p-id="64239"></path><path d="M492.7488 381.44a19.7632 19.7632 0 0 1-19.712-19.7632c0-25.2928-20.736-46.08-46.08-46.08S380.416 335.872 380.416 361.6768a19.7632 19.7632 0 1 1-39.4752 0 86.0672 86.0672 0 1 1 172.0832 0c-0.512 10.6496-9.1136 19.7632-20.2752 19.7632z m334.08 0a19.7632 19.7632 0 0 1-19.7632-19.7632c0-25.2928-20.736-46.08-46.0288-46.08s-46.08 20.7872-46.08 46.08a19.7632 19.7632 0 1 1-39.4752 0 86.0672 86.0672 0 1 1 172.0832 0c-1.024 10.6496-9.6256 19.7632-20.736 19.7632z" fill="#675827" p-id="64240"></path><path d="M582.8608 844.544c-115.4048 0-208.5376-93.1328-208.5376-208.5376h417.0752c0 114.8928-93.1328 208.5376-208.5376 208.5376z" fill="#FFFFFF" p-id="64241"></path><path d="M302.9504 482.1504c-35.9424 0-65.28 29.3376-65.28 65.28h130.6112a65.1264 65.1264 0 0 0-65.3312-65.28z m570.4192 0c-35.9424 0-65.28 29.3376-65.28 65.28h130.6112a65.1264 65.1264 0 0 0-65.3312-65.28z" fill="#F9A880" p-id="64242"></path><path d="M394.5984 726.1184a210.176 210.176 0 0 0 19.712 32.3584h337.1008a210.176 210.176 0 0 0 19.712-32.3584z" fill="#E6E6E5" p-id="64243"></path></svg>