<?xml version="1.0" standalone="no"?><!DOCTYPE svg PUBLIC "-//W3C//DTD SVG 1.1//EN" "http://www.w3.org/Graphics/SVG/1.1/DTD/svg11.dtd"><svg t="1614259240352" class="icon" viewBox="0 0 1024 1024" version="1.1" xmlns="http://www.w3.org/2000/svg" p-id="62458" xmlns:xlink="http://www.w3.org/1999/xlink" width="24" height="24"><defs><style type="text/css"></style></defs><path d="M25.6 512.256c0 268.5952 217.6512 486.144 486.4 486.144s486.4-217.5488 486.4-486.144v-0.512C998.4 243.1488 780.7488 25.6 512 25.6S25.6 243.6096 25.6 512.256z" fill="#FED44A" p-id="62459"></path><path d="M302.9504 482.4064c-35.9424 0-65.28 29.3376-65.28 65.28h130.6112a65.1264 65.1264 0 0 0-65.3312-65.28z m570.4192-9.1136c-35.9424 0-65.28 29.3376-65.28 65.28h130.6112c0-35.9424-29.3888-65.28-65.3312-65.28z" fill="#F9A880" p-id="62460"></path><path d="M616.2432 926.5664c-268.7488 0-486.4-217.5488-486.4-486.144 0-143.6672 62.2592-272.1792 160.9728-361.216C133.4272 159.6416 25.6 323.584 25.6 512.256c0 268.5952 217.6512 486.144 486.4 486.144 125.0304 0 239.4112-47.0528 325.4272-124.928a485.3248 485.3248 0 0 1-221.184 53.0944z" fill="#FEC54A" p-id="62461"></path><path d="M492.7488 381.7472a19.7632 19.7632 0 0 1-19.712-19.7632c0-25.2928-20.736-46.0288-46.08-46.0288S380.416 336.2304 380.416 361.984a19.7632 19.7632 0 1 1-39.4752 0 85.9136 85.9136 0 0 1 86.016-85.9648c47.5648 0 86.0672 38.4512 86.0672 85.9648-0.512 10.6496-9.1136 19.7632-20.2752 19.7632z m334.08 0a19.7632 19.7632 0 0 1-19.7632-19.7632c0-25.2928-20.736-46.0288-46.0288-46.0288s-46.08 20.736-46.08 46.0288a19.7632 19.7632 0 1 1-39.4752 0 86.0672 86.0672 0 0 1 172.0832 0c-1.024 10.6496-9.6256 19.7632-20.736 19.7632zM599.552 792.0128c-52.6336 0-100.7104-28.3648-126.5152-74.3936a19.712 19.712 0 0 1 34.4064-19.2c18.7392 33.3824 53.6576 54.1184 91.5968 54.1184 36.9664 0 72.9088-20.736 92.6208-54.6304 5.5808-9.6256 17.7152-12.6464 27.3408-6.5536s12.6464 17.664 6.6048 27.2896c-26.3168 45.0048-74.9056 73.3696-126.0544 73.3696z" fill="#675827" p-id="62462"></path></svg>