<?xml version="1.0" standalone="no"?><!DOCTYPE svg PUBLIC "-//W3C//DTD SVG 1.1//EN" "http://www.w3.org/Graphics/SVG/1.1/DTD/svg11.dtd"><svg t="1614258983965" class="icon" viewBox="0 0 1024 1024" version="1.1" xmlns="http://www.w3.org/2000/svg" p-id="48673" xmlns:xlink="http://www.w3.org/1999/xlink" width="24" height="24"><defs><style type="text/css"></style></defs><path d="M25.6 512.256c0 268.5952 217.6512 486.144 486.4 486.144s486.4-217.5488 486.4-486.144v-0.512C998.4 243.1488 780.7488 25.6 512 25.6S25.6 243.6096 25.6 512.256z" fill="#FED44A" p-id="48674"></path><path d="M616.2432 926.5664c-268.7488 0-486.4-217.5488-486.4-486.144 0-143.6672 62.2592-272.1792 160.9728-361.216C133.4272 159.6416 25.6 323.584 25.6 512.256c0 268.5952 217.6512 486.144 486.4 486.144 125.0304 0 239.4112-47.0528 325.4272-124.928a485.3248 485.3248 0 0 1-221.184 53.0944z" fill="#FEC54A" p-id="48675"></path><path d="M286.2592 361.984c0 77.9264 63.2832 141.1584 141.2096 141.1584s141.2096-63.232 141.2096-141.1584-63.2832-141.1072-141.2096-141.1072S286.2592 284.1088 286.2592 361.984z m395.8272 0c0 77.9264 63.232 141.1584 141.2096 141.1584s141.2096-63.232 141.2096-141.1584-63.2832-141.1072-141.2096-141.1072-141.2096 63.232-141.2096 141.1072z" fill="#FFFFFF" p-id="48676"></path><path d="M302.9504 556.288c-35.9424 0-65.28 29.3376-65.28 65.2288h130.6112c0-35.8912-29.3888-65.2288-65.3312-65.2288z m570.4192 0c-35.9424 0-65.28 29.3376-65.28 65.2288h130.6112c0-35.8912-29.3888-65.2288-65.3312-65.2288z" fill="#F9A880" p-id="48677"></path><path d="M715.4688 708.0448H504.9344c-11.1616 0-19.7632-8.6016-19.7632-19.7632a19.7632 19.7632 0 0 1 19.7632-19.712h210.5344c11.1104 0 19.7632 8.6016 19.7632 19.712a19.7632 19.7632 0 0 1-19.7632 19.7632zM411.2896 361.984a39.4752 39.4752 0 1 0 39.4752-39.424c-21.76 0-39.4752 17.2032-39.4752 39.424z m401.8688 0a39.4752 39.4752 0 1 0 39.4752-39.424c-21.76-0.512-39.4752 17.2032-39.4752 39.424z" fill="#675827" p-id="48678"></path></svg>