<?xml version="1.0" standalone="no"?><!DOCTYPE svg PUBLIC "-//W3C//DTD SVG 1.1//EN" "http://www.w3.org/Graphics/SVG/1.1/DTD/svg11.dtd"><svg t="1614258866237" class="icon" viewBox="0 0 1024 1024" version="1.1" xmlns="http://www.w3.org/2000/svg" p-id="44741" xmlns:xlink="http://www.w3.org/1999/xlink" width="24" height="24"><defs><style type="text/css"></style></defs><path d="M512 512m-502.5834661 0a502.5834661 502.5834661 0 1 0 1005.1669322 0 502.5834661 502.5834661 0 1 0-1005.1669322 0Z" fill="#F1CD5C" p-id="44742"></path><path d="M700.31492357 448.87303357c34.73658486 0 62.89615038-28.16328827 62.89614672-62.9011129 0-34.7316187-28.1583257-62.88994443-62.89614672-62.88994445-34.74154741 0-62.9011129 28.1583257-62.9011129 62.88994445 0 34.73782461 28.15956549 62.9011129 62.9011129 62.9011129zM322.95043711 448.87303357c34.73782461 0 62.9011129-28.16328827 62.90111293-62.9011129 0-34.7316187-28.16328827-62.88994443-62.90111293-62.88994445-34.73658486 0-62.89987314 28.1583257-62.8998732 62.88994445 0 34.73782461 28.16328827 62.9011129 62.8998732 62.9011129zM756.77303935 562.11067276c-12.57451543-6.24320348-31.39223078 0-37.73222812 18.90955016-6.24320348 18.91699227-18.82764411 43.98039778-31.40215952 62.90483574-37.73719433 56.6517035-106.9832671 88.04890043-176.11765845 88.04890041-69.10957109 0-132.00571779-31.49895339-182.32239004-94.39014108-12.486407-18.83012715-25.15771631-37.74960259-31.40091623-62.90483574-6.34123713-12.67130929-18.82268154-25.15523323-37.74215687-18.91202975-12.67627184 6.3424805-25.15771631 25.16019574-18.91451282 44.07595193 12.67503213 25.15399345 25.15771631 56.55243012 44.07222547 81.71882822 50.31170614 69.12942509 138.3705353 113.20537332 226.40454444 113.20537697 88.05882921 0 176.10896941-43.98287726 219.99257327-113.20537697 18.92940419-25.16516195 37.74711947-50.31667232 44.07346882-81.71882822 6.24816609-12.58568398-0.00123977-31.49399079-18.91078995-37.73223167z" fill="#333333" p-id="44743"></path></svg>