<?xml version="1.0" standalone="no"?><!DOCTYPE svg PUBLIC "-//W3C//DTD SVG 1.1//EN" "http://www.w3.org/Graphics/SVG/1.1/DTD/svg11.dtd"><svg t="1614259516699" class="icon" viewBox="0 0 1024 1024" version="1.1" xmlns="http://www.w3.org/2000/svg" p-id="80148" xmlns:xlink="http://www.w3.org/1999/xlink" width="24" height="24"><defs><style type="text/css"></style></defs><path d="M0 512c0 283.306667 228.693333 512 512 512s512-228.693333 512-512S795.306667 0 512 0 0 228.693333 0 512" fill="#FFD73A" p-id="80149"></path><path d="M204.8 354.986667a98.986667 68.266667 90 1 0 136.533333 0 98.986667 68.266667 90 1 0-136.533333 0Z" fill="#490F20" p-id="80150"></path><path d="M266.24 320.853333m-27.306667 0a27.306667 27.306667 0 1 0 54.613334 0 27.306667 27.306667 0 1 0-54.613334 0Z" fill="#FFFFFF" p-id="80151"></path><path d="M691.2 354.986667a98.986667 68.266667 90 1 0 136.533333 0 98.986667 68.266667 90 1 0-136.533333 0Z" fill="#490F20" p-id="80152"></path><path d="M752.64 320.853333m-27.306667 0a27.306667 27.306667 0 1 0 54.613334 0 27.306667 27.306667 0 1 0-54.613334 0Z" fill="#FFFFFF" p-id="80153"></path><path d="M692.906667 631.466667h-334.506667c-10.24 0-17.066667-6.826667-17.066667-17.066667s6.826667-17.066667 17.066667-17.066667h334.506667c10.24 0 17.066667 6.826667 17.066666 17.066667s-6.826667 17.066667-17.066666 17.066667z" fill="#873A18" p-id="80154"></path></svg>