<?xml version="1.0" standalone="no"?><!DOCTYPE svg PUBLIC "-//W3C//DTD SVG 1.1//EN" "http://www.w3.org/Graphics/SVG/1.1/DTD/svg11.dtd"><svg t="1614259695342" class="icon" viewBox="0 0 1024 1024" version="1.1" xmlns="http://www.w3.org/2000/svg" p-id="89833" xmlns:xlink="http://www.w3.org/1999/xlink" width="24" height="24"><defs><style type="text/css"></style></defs><path d="M1019.732064 507.947957c0 68.821161-6.229318 137.215657-30.975923 197.034174-25.685269 61.866512-73.045151 112.170386-119.850367 158.890269a496.937424 496.937424 0 0 1-164.308922 106.453068c-59.818517 24.746605-122.709027 53.674532-191.572855 53.674532-68.778495 0-134.399664-22.186611-194.260847-46.975883-61.866512-25.685269-114.133048-67.114499-160.938265-113.834382-47.487881-46.079885-85.33312-101.20508-111.402388-162.047595C21.675892 641.280957 0.299946 576.769118 0.299946 507.947957c0-67.285165 13.226634-133.972998 38.82657-196.138177 25.770602-61.909179 70.058492-114.047715 116.778374-160.938264 46.719883-46.933216 100.351749-86.997116 162.346261-112.639718C379.989663 12.802528 446.080165-0.210773 512.853331 0.00256c68.821161 0 132.522335 18.559954 192.340853 43.647891 61.866512 25.685269 124.629022 53.887865 171.391571 100.650415 46.719883 46.719883 72.149153 110.50639 97.834422 172.458235 24.831938 59.818517 45.311887 122.709027 45.311887 191.188856z" fill="#FFD635" p-id="89834"></path><path d="M622.207724 957.866832c-64.853171 0-126.847683-20.906614-183.252875-44.287889-58.453187-24.277273-107.690397-63.274508-151.764954-107.391732a471.892154 471.892154 0 0 1-104.789071-152.831618c-23.381275-56.405192-43.349225-117.247707-43.349225-182.186211 0-63.445175 12.373302-126.293018 36.394576-185.002204 24.319939-58.495854 66.261168-107.519731 110.122391-151.594288C329.472456 90.498334 380.245663 52.439762 438.656183 28.16249c30.122591-12.415969 61.439846-21.674612 93.439767-27.605265C525.781299 0.00256 519.338648 0.00256 512.853331 0.00256c-66.7305-0.213333-132.821001 12.799968-194.559513 38.186571-61.866512 25.770602-115.626378 66.133168-162.346261 112.853051C109.185007 197.762066 64.897118 250.028602 39.169182 311.980447c-25.599936 62.165178-38.82657 128.725012-38.869236 195.96751 0 68.821161 21.418613 133.333 46.250551 193.194183A499.753417 499.753417 0 0 0 157.867552 863.147069c46.76255 46.719883 99.071752 88.149113 160.980931 113.834382 59.861184 24.746605 125.52502 46.975883 194.303514 46.975882s131.711671-28.842595 191.487521-53.674532a517.844039 517.844039 0 0 0 134.570331-79.530468c-11.733304 5.802652-23.765274 11.391972-36.053244 16.511959-56.746525 23.338608-115.83971 50.60254-180.991547 50.60254z" fill="#F7B523" p-id="89835"></path><path d="M431.274868 132.140896s3.669324-2.815993 10.282641-7.253315c9.17331-6.229318 18.773286-11.818637 28.671929-16.682625 14.165298-7.082649 29.013261-12.714635 44.330556-16.853291a217.514123 217.514123 0 0 1 55.210528-7.679981h14.079965a213.3328 213.3328 0 0 1 13.909299 0.639999c4.479989 0.298666 9.087977 0.981331 13.525299 1.621329a173.994232 173.994232 0 0 1 37.119907 9.941308c7.125316 2.773326 13.951965 6.058652 20.479949 9.898642 10.154641 5.802652 19.413285 12.970634 27.519931 21.33328a74.239814 74.239814 0 0 1 8.789312 10.751973s-5.20532 0.938664-13.6533 1.535997c-4.09599 0.298666-9.045311 0.426666-14.63463 0.682664-5.546653 0.255999-11.647971 0-18.133288 0-6.485317 0-13.439966-0.597332-20.693281-1.10933-7.253315-0.511999-14.719963-1.407996-22.442611-2.346661l-11.690637-1.621329-12.03197-1.919995c-4.09599-0.682665-7.722647-1.407996-12.373303-2.047995l-6.186651-1.23733a434.772246 434.772246 0 0 0-97.36509-0.725332l-32.127919 2.73066-9.215977 0.682665-3.370659-0.341333z" fill="#FFEF57" p-id="89836"></path><path d="M448.938824 799.317895v-11.263972c0-1.109331 0.597332-2.47466 0.938665-3.83999 0.725332-2.73066 1.535996-6.186651 2.559993-9.215977 0.938664-3.071992 2.261328-6.186651 3.669324-9.813309 3.327992-7.80798 7.509315-15.231962 12.373303-22.186611 5.973318-8.277313 12.885301-15.786627 20.607948-22.442611l6.229318-5.290653 6.911983-4.863988a141.226314 141.226314 0 0 1 14.847963-8.959978 160.511599 160.511599 0 0 1 71.082489-17.834622h13.738632l4.991987 0.426666c3.413325 0.426666 6.954649 0.682665 10.154642 1.151997 3.242659 0.426666 6.186651 1.109331 9.087977 1.706662 11.818637 2.47466 23.253275 6.271984 34.175915 11.349305 5.33332 2.389327 10.367974 5.418653 15.231961 8.149313 4.906654 2.73066 9.386643 6.186651 13.6533 9.642643 8.106646 6.399984 15.445295 13.781299 21.802612 21.930612 2.986659 3.83999 5.46132 7.850647 7.80798 11.434638 2.346661 3.626658 3.96799 7.679981 5.631986 11.178639 1.706662 3.413325 2.85866 7.039982 3.925324 10.197307 1.023997 3.157325 1.535996 6.186651 2.133328 8.959978 0.981331 4.181323 1.450663 8.447979 1.493329 12.714635a34.645247 34.645247 0 0 1 0 4.437322 18.559954 18.559954 0 0 1-30.933256 13.226634l-1.407996-1.279997-2.517327-2.133328c-1.450663-1.279997-3.498658-3.327992-6.186651-5.46132-2.645327-2.175995-6.186651-4.693322-9.813309-7.381315-3.669324-2.73066-8.490645-4.991988-13.311967-7.551981-2.687993-1.109331-5.034654-2.47466-7.93598-3.455991l-4.09599-1.706663-4.437322-1.578662a182.954209 182.954209 0 0 0-39.850567-9.386643c-1.791996 0-3.669324 0-5.418653-0.639999h-16.25596a165.46092 165.46092 0 0 0-60.671848 11.647971c-3.029326 1.109331-5.503986 2.773326-8.490645 3.754657-2.986659 0.981331-5.290653 2.687993-7.850647 4.09599-4.693322 2.986659-9.386643 5.674652-13.311967 8.618645a80.1278 80.1278 0 0 1-5.503986 4.138657l-4.22399 3.327991a25.898602 25.898602 0 0 0-1.919995 1.49333 29.439926 29.439926 0 0 0-1.919995 1.962662l-3.071992 3.242658-2.602661 2.559994a18.559954 18.559954 0 0 1-30.933256-13.226634l-0.426665-1.834662z" fill="#943436" p-id="89837"></path><path d="M920.404312 433.281477l-6.826649-3.882657-7.893314-4.522656c-3.071992-1.791996-6.613317-4.266656-10.453307-6.698649a270.76199 270.76199 0 0 1-25.386603-18.005289c-4.309323-3.498658-9.045311-6.997316-13.439967-11.007972-4.394656-4.010657-9.087977-7.722647-13.354633-11.946637a411.305638 411.305638 0 0 1-24.746605-25.258604 268.543329 268.543329 0 0 1-19.498618-23.893273c-5.418653-7.466648-9.898642-13.482633-13.0133-18.090622a159.402268 159.402268 0 0 0-3.541325-5.418653l-1.279997-2.218661a21.674612 21.674612 0 1 1 38.058572-20.693281v0.383999l0.682665 1.36533c0.554665 1.023997 1.36533 2.559994 2.346661 4.607988 2.218661 4.053323 5.546653 9.941308 9.898641 16.810625 4.394656 6.82665 9.727976 14.76263 15.786628 23.039942 6.058652 8.319979 13.013301 16.853291 20.351949 24.789271 3.626658 4.223989 7.466648 8.106646 11.221305 11.989304 3.797324 3.925324 7.637314 7.551981 11.349305 11.221305 3.711991 3.669324 7.551981 6.82665 11.093306 9.983975 3.498658 3.157325 6.911983 6.186651 10.111974 8.405312 3.242659 2.218661 6.186651 4.821321 8.746645 6.869317l7.466648 5.20532 6.186651 4.565322a13.183967 13.183967 0 1 1-13.866632 22.399944zM246.016665 411.308198l6.186651-4.565322 7.423982-5.20532c2.85866-2.047995 5.589319-4.394656 8.831978-6.826649 3.199992-2.517327 6.613317-5.247987 10.111974-8.447979 3.541324-3.242659 7.466648-6.186651 11.093306-9.983975 3.669324-3.754657 7.722647-7.167982 11.647971-11.093306 3.882657-3.83999 7.594648-7.765314 11.135972-11.946637 7.381315-8.19198 14.165298-16.895958 20.351949-24.789271a268.799328 268.799328 0 0 0 15.87196-23.082609c4.309323-6.954649 7.594648-12.799968 9.813309-16.767958l2.431994-4.693322 0.597332-1.322663v-0.298666a21.674612 21.674612 0 0 1 39.125235 18.559954c0 0.597332-0.597332 1.23733-0.98133 1.834662l-1.36533 2.261327-3.498658 5.418653a274.687313 274.687313 0 0 1-13.013301 18.090622c-5.631986 7.167982-12.373302 15.445295-19.797284 23.893273-7.423981 8.405312-15.914627 17.066624-24.746605 25.258604-4.351989 4.181323-8.959978 8.106646-13.3973 11.946637-4.479989 3.83999-9.087977 7.466648-13.439966 11.007972-4.309323 3.541324-8.703978 6.399984-13.013301 9.514643-4.266656 3.114659-8.19198 5.845319-12.373302 8.319979-4.138656 2.47466-7.423981 4.863988-10.453307 6.655984l-7.935981 4.522655-6.357317 3.711991a13.055967 13.055967 0 0 1-17.919955-4.821321 13.226634 13.226634 0 0 1 3.669324-17.151958z" fill="#F7B523" p-id="89838"></path><path d="M460.330796 504.833298c0.341332 9.343977-1.109331 18.645287-4.351989 27.391931a71.551821 71.551821 0 0 1-16.554626 22.101279 69.546493 69.546493 0 0 1-22.869276 14.762629 70.82649 70.82649 0 0 1-26.623933 7.423982 72.277153 72.277153 0 0 1-26.965266-6.186651 70.314491 70.314491 0 0 1-22.229278-16.12796 75.391812 75.391812 0 0 1-21.845279-49.49321c0-9.386643 1.877329-18.645287 5.46132-27.306598 3.83999-8.405312 9.343977-15.957293 16.12796-22.229278 12.799968-13.653299 30.805256-21.247947 49.493209-20.991947 9.258644 0.255999 18.346621 2.346661 26.7946 6.186651 8.746645 3.029326 16.810625 7.765314 23.765274 13.909298 6.015985 7.039982 10.66664 15.189295 13.610633 23.978607 3.797324 8.362646 5.887985 17.407956 6.186651 26.581267z m401.492329 0c0.341332 9.343977-1.151997 18.645287-4.351989 27.391931a71.551821 71.551821 0 0 1-16.597292 22.101279 69.546493 69.546493 0 0 1-22.826609 14.762629 70.82649 70.82649 0 0 1-26.623934 7.423982 70.314491 70.314491 0 0 1-49.322543-22.015945 75.391812 75.391812 0 0 1-21.845279-49.49321c0-9.386643 1.834662-18.645287 5.418653-27.263932 3.83999-8.405312 9.386643-15.99996 16.170627-22.271944 12.799968-13.653299 30.805256-21.247947 49.493209-20.991948 9.258644 0.255999 18.346621 2.346661 26.751933 6.186652 8.831978 2.986659 16.981291 7.594648 24.021274 13.653299 6.058652 7.039982 10.66664 15.189295 13.653299 23.978607 3.711991 8.362646 5.759986 17.407956 6.058651 26.5386z" fill="#943436" p-id="89839"></path></svg>